<svg width="25" height="21" viewBox="0 0 25 21" fill="none" xmlns="http://www.w3.org/2000/svg">
<path d="M1.05078 13.4375C0.923828 12.4805 0.860352 11.416 0.860352 10.2441C0.860352 9.07227 0.923828 8.00781 1.05078 7.05078C1.1875 6.08398 1.42188 5.16113 1.75391 4.28223C2.08594 3.40332 2.51562 2.6709 3.04297 2.08496C3.58008 1.48926 4.26855 1.01562 5.1084 0.664062C5.94824 0.3125 6.91992 0.136719 8.02344 0.136719C9.12695 0.136719 10.0986 0.3125 10.9385 0.664062C11.7783 1.01562 12.4619 1.48926 12.9893 2.08496C13.5166 2.6709 13.9463 3.40332 14.2783 4.28223C14.6104 5.16113 14.8398 6.0791 14.9668 7.03613C15.1035 7.99316 15.1719 9.0625 15.1719 10.2441C15.1719 11.416 15.1035 12.4805 14.9668 13.4375C14.8398 14.3848 14.6104 15.2979 14.2783 16.1768C13.9463 17.0459 13.5166 17.7783 12.9893 18.374C12.4619 18.96 11.7783 19.4287 10.9385 19.7803C10.0986 20.1221 9.12695 20.293 8.02344 20.293C6.91992 20.293 5.94824 20.1221 5.1084 19.7803C4.26855 19.4287 3.58008 18.96 3.04297 18.374C2.51562 17.7783 2.08594 17.0459 1.75391 16.1768C1.42188 15.2979 1.1875 14.3848 1.05078 13.4375ZM3.92188 10.2441C3.92188 11.0645 3.95605 11.8066 4.02441 12.4707C4.10254 13.1348 4.23438 13.7744 4.41992 14.3896C4.61523 15.0049 4.86426 15.5225 5.16699 15.9424C5.46973 16.3525 5.86035 16.6846 6.33887 16.9385C6.82715 17.1826 7.38867 17.3047 8.02344 17.3047C8.6582 17.3047 9.21484 17.1826 9.69336 16.9385C10.1719 16.6943 10.5625 16.3623 10.8652 15.9424C11.168 15.5225 11.4121 15.0049 11.5977 14.3896C11.793 13.7744 11.9248 13.1348 11.9932 12.4707C12.0713 11.8066 12.1104 11.0645 12.1104 10.2441C12.1104 9.42383 12.0713 8.68164 11.9932 8.01758C11.9248 7.35352 11.793 6.71387 11.5977 6.09863C11.4121 5.4834 11.168 4.9707 10.8652 4.56055C10.5625 4.14062 10.1719 3.80859 9.69336 3.56445C9.21484 3.32031 8.6582 3.19824 8.02344 3.19824C7.23242 3.19824 6.55859 3.37891 6.00195 3.74023C5.45508 4.10156 5.03516 4.61914 4.74219 5.29297C4.44922 5.9668 4.23926 6.7041 4.1123 7.50488C3.98535 8.2959 3.92188 9.20898 3.92188 10.2441ZM18.3066 5.54199V2.68555L24.6055 0.195312V20H21.5439V4.37012L18.3066 5.54199Z" fill="#79C0E0"/>
</svg>
