<svg width="49" height="31" viewBox="0 0 49 31" fill="none" xmlns="http://www.w3.org/2000/svg">
<path d="M11.5396 30.54C19.9996 30.54 22.2497 23.655 22.2497 15.375C22.2497 6.96 19.9996 0.209997 11.5396 0.209997C3.07965 0.209997 0.829649 6.96 0.829649 15.375C0.829649 23.655 3.07965 30.54 11.5396 30.54ZM11.5396 26.4C6.54465 26.4 5.23965 21.315 5.23965 15.375C5.23965 9.39 6.54465 4.395 11.5396 4.395C16.5346 4.395 17.7946 9.39 17.7946 15.375C17.7946 21.315 16.5346 26.4 11.5396 26.4ZM44.5626 19.92V0.614997H43.3026L25.3476 22.98V24.06H40.1076V30H44.5626V24.06H48.7926V19.92H44.5626ZM40.1076 10.65V19.92H32.4576L40.1076 10.65Z" fill="#79C0E0"/>
</svg>
