<svg width="46" height="31" viewBox="0 0 46 31" fill="none" xmlns="http://www.w3.org/2000/svg">
<path d="M10.7701 30.54C19.2301 30.54 21.4801 23.655 21.4801 15.375C21.4801 6.96 19.2301 0.209997 10.7701 0.209997C2.31012 0.209997 0.0601174 6.96 0.0601174 15.375C0.0601174 23.655 2.31012 30.54 10.7701 30.54ZM10.7701 26.4C5.77512 26.4 4.47012 21.315 4.47012 15.375C4.47012 9.39 5.77512 4.395 10.7701 4.395C15.7651 4.395 17.0251 9.39 17.0251 15.375C17.0251 21.315 15.7651 26.4 10.7701 26.4ZM41.3181 16.545C43.2531 14.295 44.6931 11.37 44.6931 8.94C44.6931 3.72 41.0031 0.209997 35.3331 0.209997C30.1131 0.209997 26.6031 3.315 26.0181 7.995L29.9781 8.805C30.2481 6.15 32.2731 4.395 35.2881 4.395C38.3031 4.395 40.2831 6.195 40.2831 8.94C40.2831 10.2 39.1131 12.405 37.3581 14.52L26.2881 27.93V30H45.1431V25.77H33.5781L41.3181 16.545Z" fill="#79C0E0"/>
</svg>
