<svg width="31" height="21" viewBox="0 0 31 21" fill="none" xmlns="http://www.w3.org/2000/svg">
<path d="M0.223633 13.4375C0.0966797 12.4805 0.0332031 11.416 0.0332031 10.2441C0.0332031 9.07227 0.0966797 8.00781 0.223633 7.05078C0.360352 6.08398 0.594727 5.16113 0.926758 4.28223C1.25879 3.40332 1.68848 2.6709 2.21582 2.08496C2.75293 1.48926 3.44141 1.01562 4.28125 0.664062C5.12109 0.3125 6.09277 0.136719 7.19629 0.136719C8.2998 0.136719 9.27148 0.3125 10.1113 0.664062C10.9512 1.01562 11.6348 1.48926 12.1621 2.08496C12.6895 2.6709 13.1191 3.40332 13.4512 4.28223C13.7832 5.16113 14.0127 6.0791 14.1396 7.03613C14.2764 7.99316 14.3447 9.0625 14.3447 10.2441C14.3447 11.416 14.2764 12.4805 14.1396 13.4375C14.0127 14.3848 13.7832 15.2979 13.4512 16.1768C13.1191 17.0459 12.6895 17.7783 12.1621 18.374C11.6348 18.96 10.9512 19.4287 10.1113 19.7803C9.27148 20.1221 8.2998 20.293 7.19629 20.293C6.09277 20.293 5.12109 20.1221 4.28125 19.7803C3.44141 19.4287 2.75293 18.96 2.21582 18.374C1.68848 17.7783 1.25879 17.0459 0.926758 16.1768C0.594727 15.2979 0.360352 14.3848 0.223633 13.4375ZM3.09473 10.2441C3.09473 11.0645 3.12891 11.8066 3.19727 12.4707C3.27539 13.1348 3.40723 13.7744 3.59277 14.3896C3.78809 15.0049 4.03711 15.5225 4.33984 15.9424C4.64258 16.3525 5.0332 16.6846 5.51172 16.9385C6 17.1826 6.56152 17.3047 7.19629 17.3047C7.83105 17.3047 8.3877 17.1826 8.86621 16.9385C9.34473 16.6943 9.73535 16.3623 10.0381 15.9424C10.3408 15.5225 10.585 15.0049 10.7705 14.3896C10.9658 13.7744 11.0977 13.1348 11.166 12.4707C11.2441 11.8066 11.2832 11.0645 11.2832 10.2441C11.2832 9.42383 11.2441 8.68164 11.166 8.01758C11.0977 7.35352 10.9658 6.71387 10.7705 6.09863C10.585 5.4834 10.3408 4.9707 10.0381 4.56055C9.73535 4.14062 9.34473 3.80859 8.86621 3.56445C8.3877 3.32031 7.83105 3.19824 7.19629 3.19824C6.40527 3.19824 5.73145 3.37891 5.1748 3.74023C4.62793 4.10156 4.20801 4.61914 3.91504 5.29297C3.62207 5.9668 3.41211 6.7041 3.28516 7.50488C3.1582 8.2959 3.09473 9.20898 3.09473 10.2441ZM17.8018 5.5127C18.0654 3.87207 18.7832 2.56348 19.9551 1.58691C21.127 0.600586 22.5234 0.107422 24.1445 0.107422C25.9023 0.107422 27.3818 0.654297 28.583 1.74805C29.7842 2.8418 30.3848 4.24805 30.3848 5.9668C30.3848 7.73438 29.6719 9.41406 28.2461 11.0059C25.9316 13.7109 24.2324 15.708 23.1484 16.9971H30.2529V20H17.9922V18.5352L25.9756 8.92578C26.874 7.85156 27.3232 6.86523 27.3232 5.9668C27.3232 5.13672 27.0156 4.45801 26.4004 3.93066C25.7852 3.40332 25.0137 3.13965 24.0859 3.13965C23.2266 3.13965 22.4844 3.41797 21.8594 3.97461C21.2344 4.52148 20.8633 5.24414 20.7461 6.14258L17.8018 5.5127Z" fill="#79C0E0"/>
</svg>
