<svg width="32" height="21" viewBox="0 0 32 21" fill="none" xmlns="http://www.w3.org/2000/svg">
<path d="M1.13574 13.4375C1.00879 12.4805 0.945312 11.416 0.945312 10.2441C0.945312 9.07227 1.00879 8.00781 1.13574 7.05078C1.27246 6.08398 1.50684 5.16113 1.83887 4.28223C2.1709 3.40332 2.60059 2.6709 3.12793 2.08496C3.66504 1.48926 4.35352 1.01562 5.19336 0.664062C6.0332 0.3125 7.00488 0.136719 8.1084 0.136719C9.21191 0.136719 10.1836 0.3125 11.0234 0.664062C11.8633 1.01562 12.5469 1.48926 13.0742 2.08496C13.6016 2.6709 14.0312 3.40332 14.3633 4.28223C14.6953 5.16113 14.9248 6.0791 15.0518 7.03613C15.1885 7.99316 15.2568 9.0625 15.2568 10.2441C15.2568 11.416 15.1885 12.4805 15.0518 13.4375C14.9248 14.3848 14.6953 15.2979 14.3633 16.1768C14.0312 17.0459 13.6016 17.7783 13.0742 18.374C12.5469 18.96 11.8633 19.4287 11.0234 19.7803C10.1836 20.1221 9.21191 20.293 8.1084 20.293C7.00488 20.293 6.0332 20.1221 5.19336 19.7803C4.35352 19.4287 3.66504 18.96 3.12793 18.374C2.60059 17.7783 2.1709 17.0459 1.83887 16.1768C1.50684 15.2979 1.27246 14.3848 1.13574 13.4375ZM4.00684 10.2441C4.00684 11.0645 4.04102 11.8066 4.10938 12.4707C4.1875 13.1348 4.31934 13.7744 4.50488 14.3896C4.7002 15.0049 4.94922 15.5225 5.25195 15.9424C5.55469 16.3525 5.94531 16.6846 6.42383 16.9385C6.91211 17.1826 7.47363 17.3047 8.1084 17.3047C8.74316 17.3047 9.2998 17.1826 9.77832 16.9385C10.2568 16.6943 10.6475 16.3623 10.9502 15.9424C11.2529 15.5225 11.4971 15.0049 11.6826 14.3896C11.8779 13.7744 12.0098 13.1348 12.0781 12.4707C12.1562 11.8066 12.1953 11.0645 12.1953 10.2441C12.1953 9.42383 12.1562 8.68164 12.0781 8.01758C12.0098 7.35352 11.8779 6.71387 11.6826 6.09863C11.4971 5.4834 11.2529 4.9707 10.9502 4.56055C10.6475 4.14062 10.2568 3.80859 9.77832 3.56445C9.2998 3.32031 8.74316 3.19824 8.1084 3.19824C7.31738 3.19824 6.64355 3.37891 6.08691 3.74023C5.54004 4.10156 5.12012 4.61914 4.82715 5.29297C4.53418 5.9668 4.32422 6.7041 4.19727 7.50488C4.07031 8.2959 4.00684 9.20898 4.00684 10.2441ZM18.333 16.3379L21.0283 14.9023C21.292 15.5273 21.7998 16.084 22.5518 16.5723C23.3037 17.0508 24.0166 17.2949 24.6904 17.3047C25.9014 17.3047 26.8193 17.0264 27.4443 16.4697C28.0693 15.9131 28.3818 15.1904 28.3818 14.3018C28.3818 13.4521 28.0645 12.6904 27.4297 12.0166C26.8047 11.333 25.9502 10.9961 24.8662 11.0059H22.6836V8.14941H24.8662C25.5889 8.15918 26.1602 7.93945 26.5801 7.49023C27.0098 7.03125 27.2783 6.50879 27.3857 5.92285C27.4346 5.60059 27.4297 5.29297 27.3711 5C27.3223 4.69727 27.1758 4.39453 26.9316 4.0918C26.6973 3.7793 26.3701 3.54004 25.9502 3.37402C25.6182 3.2373 25.1689 3.16895 24.6025 3.16895C23.4502 3.13965 22.5273 3.65234 21.834 4.70703L19.5049 2.99316C20.0518 2.05566 20.8428 1.32324 21.8779 0.795898C22.9131 0.268555 24.041 0.0390625 25.2617 0.107422C26.8633 0.195312 28.1816 0.766602 29.2168 1.82129C30.2617 2.87598 30.7842 4.11621 30.7842 5.54199C30.7842 6.30371 30.5645 7.03613 30.125 7.73926C29.6953 8.43262 29.124 8.98926 28.4111 9.40918C29.3779 9.77051 30.1445 10.4395 30.7109 11.416C31.2773 12.3926 31.5605 13.4326 31.5605 14.5361C31.5605 16.3135 30.9209 17.7197 29.6416 18.7549C28.3623 19.7803 26.7217 20.293 24.7197 20.293C23.2451 20.293 21.9463 19.9268 20.8232 19.1943C19.7002 18.4619 18.8701 17.5098 18.333 16.3379Z" fill="#79C0E0"/>
</svg>
