<svg width="46" height="31" viewBox="0 0 46 31" fill="none" xmlns="http://www.w3.org/2000/svg">
<path d="M10.7481 30.54C19.2081 30.54 21.4581 23.655 21.4581 15.375C21.4581 6.96 19.2081 0.209997 10.7481 0.209997C2.28814 0.209997 0.0381447 6.96 0.0381447 15.375C0.0381447 23.655 2.28814 30.54 10.7481 30.54ZM10.7481 26.4C5.75315 26.4 4.44814 21.315 4.44814 15.375C4.44814 9.39 5.75315 4.395 10.7481 4.395C15.7431 4.395 17.0031 9.39 17.0031 15.375C17.0031 21.315 15.7431 26.4 10.7481 26.4ZM40.1261 14.205C42.4211 13.125 43.8611 10.83 43.8611 8.13C43.8611 3.36 40.3511 0.209997 35.1761 0.209997C31.7561 0.209997 28.6061 1.92 26.9861 4.485L29.8661 7.05C30.9911 5.43 33.0161 4.395 34.9961 4.395C37.6061 4.395 39.4061 5.88 39.4061 8.22C39.4511 10.74 37.4711 12.54 34.3661 12.54H31.8011V16.185H34.8161C38.2811 16.185 40.8011 18.3 40.8011 21.45C40.8011 24.33 38.2811 26.4 34.7711 26.4C32.3411 26.4 30.2261 24.915 28.8311 22.44L25.3661 24.555C27.2111 28.335 30.7661 30.54 34.9511 30.54C40.9811 30.54 45.2561 26.805 45.2561 21.405C45.2561 17.94 43.1861 15.24 40.1261 14.205Z" fill="#79C0E0"/>
</svg>
