<svg width="34" height="21" viewBox="0 0 34 21" fill="none" xmlns="http://www.w3.org/2000/svg">
<path d="M0.844727 13.4375C0.717773 12.4805 0.654297 11.416 0.654297 10.2441C0.654297 9.07227 0.717773 8.00781 0.844727 7.05078C0.981445 6.08398 1.21582 5.16113 1.54785 4.28223C1.87988 3.40332 2.30957 2.6709 2.83691 2.08496C3.37402 1.48926 4.0625 1.01562 4.90234 0.664062C5.74219 0.3125 6.71387 0.136719 7.81738 0.136719C8.9209 0.136719 9.89258 0.3125 10.7324 0.664062C11.5723 1.01562 12.2559 1.48926 12.7832 2.08496C13.3105 2.6709 13.7402 3.40332 14.0723 4.28223C14.4043 5.16113 14.6338 6.0791 14.7607 7.03613C14.8975 7.99316 14.9658 9.0625 14.9658 10.2441C14.9658 11.416 14.8975 12.4805 14.7607 13.4375C14.6338 14.3848 14.4043 15.2979 14.0723 16.1768C13.7402 17.0459 13.3105 17.7783 12.7832 18.374C12.2559 18.96 11.5723 19.4287 10.7324 19.7803C9.89258 20.1221 8.9209 20.293 7.81738 20.293C6.71387 20.293 5.74219 20.1221 4.90234 19.7803C4.0625 19.4287 3.37402 18.96 2.83691 18.374C2.30957 17.7783 1.87988 17.0459 1.54785 16.1768C1.21582 15.2979 0.981445 14.3848 0.844727 13.4375ZM3.71582 10.2441C3.71582 11.0645 3.75 11.8066 3.81836 12.4707C3.89648 13.1348 4.02832 13.7744 4.21387 14.3896C4.40918 15.0049 4.6582 15.5225 4.96094 15.9424C5.26367 16.3525 5.6543 16.6846 6.13281 16.9385C6.62109 17.1826 7.18262 17.3047 7.81738 17.3047C8.45215 17.3047 9.00879 17.1826 9.4873 16.9385C9.96582 16.6943 10.3564 16.3623 10.6592 15.9424C10.9619 15.5225 11.2061 15.0049 11.3916 14.3896C11.5869 13.7744 11.7188 13.1348 11.7871 12.4707C11.8652 11.8066 11.9043 11.0645 11.9043 10.2441C11.9043 9.42383 11.8652 8.68164 11.7871 8.01758C11.7188 7.35352 11.5869 6.71387 11.3916 6.09863C11.2061 5.4834 10.9619 4.9707 10.6592 4.56055C10.3564 4.14062 9.96582 3.80859 9.4873 3.56445C9.00879 3.32031 8.45215 3.19824 7.81738 3.19824C7.02637 3.19824 6.35254 3.37891 5.7959 3.74023C5.24902 4.10156 4.8291 4.61914 4.53613 5.29297C4.24316 5.9668 4.0332 6.7041 3.90625 7.50488C3.7793 8.2959 3.71582 9.20898 3.71582 10.2441ZM17.5 15.8838L27.9443 0.415039H30.5811V13.1006H33.3057V15.8838H30.5811V20H27.5195V15.8838H17.5ZM22.3926 13.1006H27.5195V5.4541L22.3926 13.1006Z" fill="#79C0E0"/>
</svg>
