<svg width="37" height="31" viewBox="0 0 37 31" fill="none" xmlns="http://www.w3.org/2000/svg">
<path d="M11.3956 30.54C19.8556 30.54 22.1056 23.655 22.1056 15.375C22.1056 6.96 19.8556 0.209997 11.3956 0.209997C2.93561 0.209997 0.685606 6.96 0.685606 15.375C0.685606 23.655 2.93561 30.54 11.3956 30.54ZM11.3956 26.4C6.40061 26.4 5.09561 21.315 5.09561 15.375C5.09561 9.39 6.40061 4.395 11.3956 4.395C16.3906 4.395 17.6506 9.39 17.6506 15.375C17.6506 21.315 16.3906 26.4 11.3956 26.4ZM25.9236 4.845V9.075L32.2686 6.555V30H36.6786V0.209997H36.4536L25.9236 4.845Z" fill="#79C0E0"/>
</svg>
