<svg width="71" height="19" viewBox="0 0 71 19" fill="none" xmlns="http://www.w3.org/2000/svg">
<path d="M7 13.725L3.25 0.775H0.6L5.825 18H8.225L13.4 0.775H10.75L7 13.725ZM28.9348 18L22.4348 0.775H19.6848L13.1598 18H15.8598L17.4598 13.65H24.6348L26.2348 18H28.9348ZM21.0598 3.9L23.8098 11.4H18.2848L21.0598 3.9ZM33.8307 0.775H31.2557V18H40.7557V15.65H33.8307V0.775ZM49.1977 18.3C52.6227 18.3 55.5727 16.025 55.5727 12.075V0.775H52.9977V12.05C52.9977 14.675 51.2227 15.85 49.1977 15.85C47.1727 15.85 45.4227 14.675 45.4227 12.05V0.775H42.8477V12.075C42.8477 16.025 45.7727 18.3 49.1977 18.3ZM62.541 10.725H69.316V8.35H62.541V3.125H70.316V0.775H59.991V18H70.541V15.65H62.541V10.725Z" fill="#79C0E0"/>
</svg>
