<svg width="45" height="21" viewBox="0 0 45 21" fill="none" xmlns="http://www.w3.org/2000/svg">
<path d="M0.246094 18V0.775879H10.4756V3.22949H2.89502V8.31982H8.90088V10.749H2.89502V18H0.246094ZM10.1582 18L16.6646 0.775879H19.5332L26.0396 18H23.2319L21.584 13.7031H14.6382L12.9902 18H10.1582ZM15.5415 11.3228H20.6807L18.1172 4.09619L15.5415 11.3228ZM27.0039 9.43066C27.0039 7.81934 27.3864 6.33822 28.1514 4.9873C28.9245 3.62826 29.9784 2.55404 31.313 1.76465C32.6558 0.97526 34.1287 0.580566 35.7319 0.580566C36.9445 0.580566 38.096 0.816569 39.1865 1.28857C40.277 1.75244 41.2088 2.37907 41.9819 3.16846C42.7632 3.95785 43.3776 4.89779 43.8252 5.98828C44.2809 7.07878 44.5088 8.22624 44.5088 9.43066C44.5088 10.9606 44.1466 12.3807 43.4224 13.6909C42.7062 15.0011 41.7337 16.055 40.5049 16.8525L42.2627 19.6724L40.2607 20.9053L38.3564 17.8535C37.5833 18.1139 36.7085 18.2441 35.7319 18.2441C34.5275 18.2441 33.3841 18.0122 32.3018 17.5483C31.2275 17.0845 30.3039 16.4578 29.5308 15.6685C28.7576 14.8791 28.1432 13.9432 27.6875 12.8608C27.2318 11.7703 27.0039 10.627 27.0039 9.43066ZM29.6528 9.43066C29.6528 11.0583 30.1737 12.4539 31.2153 13.6177C32.257 14.7814 33.5632 15.4325 35.1338 15.5708C35.7116 15.644 36.3016 15.6278 36.9038 15.522L35.2559 12.8242L37.2334 11.6035L39.1011 14.6309C39.9474 14.0775 40.6147 13.3451 41.103 12.4336C41.5913 11.514 41.8354 10.513 41.8354 9.43066C41.8354 8.2832 41.5669 7.22933 41.0298 6.26904C40.5008 5.30062 39.7684 4.53564 38.8325 3.97412C37.8966 3.40446 36.8631 3.11963 35.7319 3.11963C34.6089 3.11963 33.5794 3.40446 32.6436 3.97412C31.7158 4.53564 30.9834 5.30062 30.4463 6.26904C29.9173 7.22933 29.6528 8.2832 29.6528 9.43066Z" fill="#79C0E0"/>
</svg>
