<svg width="67" height="19" viewBox="0 0 67 19" fill="none" xmlns="http://www.w3.org/2000/svg">
<path d="M0.325 0.775V18H2.9V11.625H7.225C10.925 11.625 12.475 8.975 12.475 6.225C12.475 3.5 10.925 0.775 7.225 0.775H0.325ZM2.9 9.275V3.125H7.175C9.1 3.125 9.9 4.7 9.9 6.225C9.9 7.75 9.075 9.275 7.075 9.275H2.9ZM27.6332 18L23.1082 11.575C25.9832 11.3 27.4832 8.7 27.4832 6.225C27.4832 3.5 25.9582 0.775 22.1832 0.775H15.6082V18H18.1832V11.575H20.1332L24.5582 18H27.6332ZM22.1582 3.125C23.8332 3.125 24.9082 4.425 24.9082 6.225C24.9082 8.05 23.9332 9.325 21.5582 9.325H18.1832V3.125H22.1582ZM33.7105 18V0.775H31.1355V18H33.7105ZM45.9621 18.3C48.6871 18.3 51.0621 17.1 52.5871 15.2L50.6871 13.675C49.5871 15.025 47.8871 15.9 45.9871 15.9C42.4621 15.9 39.7871 12.95 39.7871 9.425C39.7871 5.875 42.4871 2.875 45.9871 2.875C47.8871 2.875 49.5871 3.75 50.6871 5.1L52.5871 3.575C51.0621 1.675 48.6871 0.474999 45.9621 0.474999C41.0871 0.474999 37.2121 4.55 37.2121 9.425C37.2121 14.3 41.0871 18.3 45.9621 18.3ZM58.2217 10.725H64.9967V8.35H58.2217V3.125H65.9967V0.775H55.6717V18H66.2217V15.65H58.2217V10.725Z" fill="#79C0E0"/>
</svg>
