<svg width="83" height="19" viewBox="0 0 83 19" fill="none" xmlns="http://www.w3.org/2000/svg">
<path d="M0.146484 18L6.65283 0.775879H9.52148L16.0278 18H13.2202L11.5723 13.7031H4.62646L2.97852 18H0.146484ZM5.52979 11.3228H10.6689L8.10547 4.09619L5.52979 11.3228ZM18.4326 18V0.775879H25.0366C26.5015 0.775879 27.6611 1.18685 28.5156 2.00879C29.3783 2.82259 29.8096 3.92936 29.8096 5.3291C29.8096 6.09408 29.6305 6.79395 29.2725 7.42871C28.9225 8.05534 28.361 8.51921 27.5879 8.82031C28.2308 8.9668 28.7964 9.2679 29.2847 9.72363C29.7811 10.1794 30.1473 10.688 30.3833 11.2495C30.6193 11.811 30.7373 12.3766 30.7373 12.9463C30.7373 14.3623 30.2653 15.5586 29.3213 16.5352C28.3854 17.5117 27.1322 18 25.5615 18H18.4326ZM21.106 15.5708H25.4395C26.2044 15.5708 26.8148 15.3063 27.2705 14.7773C27.7344 14.2484 27.9663 13.6299 27.9663 12.9219C27.9663 12.222 27.7262 11.5832 27.2461 11.0054C26.766 10.4194 26.1393 10.1265 25.3662 10.1265H21.106V15.5708ZM21.106 7.85596H24.939C25.6063 7.85596 26.1271 7.62402 26.5015 7.16016C26.8758 6.68815 27.063 6.11035 27.063 5.42676C27.063 4.72689 26.8555 4.18164 26.4404 3.79102C26.0335 3.40039 25.472 3.20508 24.7559 3.20508H21.106V7.85596ZM33.0811 9.43066C33.0811 7.81934 33.4635 6.33822 34.2285 4.9873C34.9935 3.62826 36.0433 2.55404 37.3779 1.76465C38.7126 0.97526 40.1815 0.580566 41.7847 0.580566C43.396 0.580566 44.873 0.97526 46.2158 1.76465C47.5586 2.55404 48.6125 3.62826 49.3774 4.9873C50.1506 6.33822 50.5371 7.81934 50.5371 9.43066C50.5371 10.627 50.3092 11.7703 49.8535 12.8608C49.3978 13.9432 48.7834 14.8791 48.0103 15.6685C47.2371 16.4578 46.3053 17.0845 45.2148 17.5483C44.1325 18.0122 42.9891 18.2441 41.7847 18.2441C40.5802 18.2441 39.4368 18.0122 38.3545 17.5483C37.2803 17.0845 36.3566 16.4578 35.5835 15.6685C34.8185 14.8791 34.2082 13.9432 33.7524 12.8608C33.3049 11.7703 33.0811 10.627 33.0811 9.43066ZM35.73 9.43066C35.73 10.57 35.9945 11.6157 36.5234 12.5679C37.0605 13.5119 37.793 14.2606 38.7207 14.814C39.6484 15.3674 40.6698 15.644 41.7847 15.644C42.9077 15.644 43.9331 15.3674 44.8608 14.814C45.7967 14.2606 46.5291 13.5119 47.0581 12.5679C47.5952 11.6157 47.8638 10.57 47.8638 9.43066C47.8638 8.29134 47.5952 7.24561 47.0581 6.29346C46.5291 5.33317 45.7967 4.57633 44.8608 4.02295C43.9331 3.46143 42.9077 3.18066 41.7847 3.18066C40.092 3.18066 38.6597 3.79102 37.4878 5.01172C36.3159 6.22428 35.73 7.69727 35.73 9.43066ZM53.7842 12.0308V0.775879H56.4819V12.0308C56.4819 13.1131 56.8441 13.9961 57.5684 14.6797C58.2926 15.3633 59.1634 15.7051 60.1807 15.7051C61.1979 15.7051 62.0687 15.3633 62.793 14.6797C63.5173 13.9961 63.8794 13.1131 63.8794 12.0308V0.775879H66.5649V12.0308C66.5649 13.2515 66.2679 14.342 65.6738 15.3022C65.0879 16.2544 64.3107 16.9827 63.3423 17.4873C62.382 17.9919 61.3281 18.2441 60.1807 18.2441C59.0251 18.2441 57.9631 17.9919 56.9946 17.4873C56.0262 16.9827 55.249 16.2544 54.6631 15.3022C54.0771 14.342 53.7842 13.2515 53.7842 12.0308ZM69.3237 3.25391V0.775879H82.1777V3.25391H77.0996V18H74.4019V3.25391H69.3237Z" fill="#79C0E0"/>
</svg>
