<svg width="203" height="33" viewBox="0 0 203 33" fill="none" xmlns="http://www.w3.org/2000/svg">
<path d="M0.363281 32V0.996582H12.8438C14.4551 0.996582 15.8833 1.2749 17.1284 1.83154C18.3735 2.38818 19.3623 3.14258 20.0947 4.09473C20.8271 5.03223 21.3765 6.07227 21.7427 7.21484C22.1089 8.35742 22.292 9.56592 22.292 10.8403C22.292 12.1147 22.1089 13.3232 21.7427 14.4658C21.3765 15.6084 20.8271 16.6484 20.0947 17.5859C19.3623 18.5088 18.3735 19.2485 17.1284 19.8052C15.8833 20.3472 14.4551 20.6182 12.8438 20.6182H5.17529V32H0.363281ZM5.17529 16.2456H12.5581C13.6567 16.2456 14.5942 15.9746 15.3706 15.4326C16.147 14.8906 16.6963 14.2241 17.0186 13.4331C17.3555 12.6421 17.5239 11.7778 17.5239 10.8403C17.5239 9.37549 17.1138 8.1084 16.2935 7.03906C15.4878 5.95508 14.3086 5.41309 12.7559 5.41309H5.17529V16.2456ZM27.6973 32V0.996582H39.8042C41.4009 0.996582 42.8218 1.2749 44.0669 1.83154C45.312 2.38818 46.3008 3.13525 47.0332 4.07275C47.7656 5.01025 48.3149 6.05762 48.6812 7.21484C49.062 8.35742 49.2524 9.56592 49.2524 10.8403C49.2524 12.0122 49.0986 13.1255 48.791 14.1802C48.4834 15.2349 48.022 16.209 47.4067 17.1025C46.7915 17.9961 45.9565 18.7432 44.9019 19.3438C43.8472 19.9297 42.6313 20.2959 41.2544 20.4424L49.3843 32H43.5835L35.8491 20.6182H32.5093V32H27.6973ZM32.5093 16.2456H39.4526C41.064 16.2456 42.2725 15.7183 43.0781 14.6636C43.8984 13.5942 44.3086 12.3198 44.3086 10.8403C44.3086 9.91748 44.1548 9.06055 43.8472 8.26953C43.5542 7.47852 43.0415 6.80469 42.3091 6.24805C41.5767 5.69141 40.6831 5.41309 39.6284 5.41309H32.5093V16.2456ZM53.7568 16.5752C53.7568 13.6748 54.4453 11.0088 55.8223 8.57715C57.1992 6.13086 59.0889 4.19727 61.4912 2.77637C63.8936 1.35547 66.5376 0.64502 69.4233 0.64502C72.3237 0.64502 74.9824 1.35547 77.3994 2.77637C79.8164 4.19727 81.7134 6.13086 83.0903 8.57715C84.4819 11.0088 85.1777 13.6748 85.1777 16.5752C85.1777 18.7285 84.7676 20.7866 83.9473 22.7495C83.127 24.6978 82.021 26.3823 80.6294 27.8032C79.2378 29.2241 77.5605 30.3521 75.5977 31.187C73.6494 32.022 71.5913 32.4395 69.4233 32.4395C67.2554 32.4395 65.1973 32.022 63.249 31.187C61.3154 30.3521 59.6528 29.2241 58.2612 27.8032C56.8843 26.3823 55.7856 24.6978 54.9653 22.7495C54.1597 20.7866 53.7568 18.7285 53.7568 16.5752ZM58.5249 16.5752C58.5249 18.626 59.001 20.5083 59.9531 22.2222C60.9199 23.9214 62.2383 25.269 63.9082 26.2651C65.5781 27.2612 67.4165 27.7593 69.4233 27.7593C71.4448 27.7593 73.2905 27.2612 74.9604 26.2651C76.645 25.269 77.9634 23.9214 78.9155 22.2222C79.8823 20.5083 80.3657 18.626 80.3657 16.5752C80.3657 14.5244 79.8823 12.6421 78.9155 10.9282C77.9634 9.19971 76.645 7.8374 74.9604 6.84131C73.2905 5.83057 71.4448 5.3252 69.4233 5.3252C66.3765 5.3252 63.7983 6.42383 61.689 8.62109C59.5796 10.8037 58.5249 13.4551 58.5249 16.5752ZM91.3301 32V0.996582H103.217C105.854 0.996582 107.941 1.73633 109.479 3.21582C111.032 4.68066 111.809 6.67285 111.809 9.19238C111.809 10.5693 111.486 11.8291 110.842 12.9717C110.212 14.0996 109.201 14.9346 107.81 15.4766C108.967 15.7402 109.985 16.2822 110.864 17.1025C111.757 17.9229 112.417 18.8384 112.841 19.8491C113.266 20.8599 113.479 21.8779 113.479 22.9033C113.479 25.4521 112.629 27.6055 110.93 29.3633C109.245 31.1211 106.989 32 104.162 32H91.3301ZM96.1421 27.6274H103.942C105.319 27.6274 106.418 27.1514 107.238 26.1992C108.073 25.2471 108.491 24.1338 108.491 22.8594C108.491 21.5996 108.059 20.4497 107.194 19.4097C106.33 18.355 105.202 17.8276 103.811 17.8276H96.1421V27.6274ZM96.1421 13.7407H103.042C104.243 13.7407 105.18 13.3232 105.854 12.4883C106.528 11.6387 106.865 10.5986 106.865 9.36816C106.865 8.1084 106.491 7.12695 105.744 6.42383C105.012 5.7207 104.001 5.36914 102.712 5.36914H96.1421V13.7407ZM119.631 32V0.996582H124.399V27.6274H136.835V32H119.631ZM142.087 32V0.996582H160.764V5.41309H146.855V14.5757H159.006V18.9482H146.855V27.6274H161.225V32H142.087ZM165.861 32L169.641 0.996582H173.881L184.406 23.0791L194.931 0.996582H199.216L202.995 32H198.227L195.568 9.85156L186.472 28.5283H182.429L173.288 9.85156L170.651 32H165.861Z" fill="#79C0E0"/>
</svg>
