<svg width="124" height="19" viewBox="0 0 124 19" fill="none" xmlns="http://www.w3.org/2000/svg">
<path d="M0.622559 0.775879H3.40576L7.08008 13.5811L10.7788 0.775879H13.5254L8.3252 18H5.84717L0.622559 0.775879ZM13.4277 18L19.9341 0.775879H22.8027L29.3091 18H26.5015L24.8535 13.7031H17.9077L16.2598 18H13.4277ZM18.811 11.3228H23.9502L21.3867 4.09619L18.811 11.3228ZM31.7139 18V0.775879H38.4399C39.327 0.775879 40.1164 0.930501 40.8081 1.23975C41.4998 1.54899 42.0492 1.96403 42.4561 2.48486C42.863 3.0057 43.1681 3.58757 43.3716 4.23047C43.5832 4.86523 43.689 5.53662 43.689 6.24463C43.689 6.89567 43.6035 7.51416 43.4326 8.1001C43.2617 8.68604 43.0054 9.22721 42.6636 9.72363C42.3218 10.2201 41.8579 10.6351 41.272 10.9688C40.686 11.2943 40.0106 11.4977 39.2456 11.5791L43.7622 18H40.5396L36.2427 11.6768H34.3872V18H31.7139ZM34.3872 9.24756H38.2446C39.1398 9.24756 39.8112 8.95459 40.2588 8.36865C40.7145 7.77458 40.9424 7.06657 40.9424 6.24463C40.9424 5.73193 40.8569 5.25586 40.686 4.81641C40.5233 4.37695 40.2384 4.0026 39.8315 3.69336C39.4246 3.38411 38.9282 3.22949 38.3423 3.22949H34.3872V9.24756ZM47.2656 18V0.775879H49.9146V18H47.2656ZM52.3193 18L58.8257 0.775879H61.6943L68.2007 18H65.3931L63.7451 13.7031H56.7993L55.1514 18H52.3193ZM57.7026 11.3228H62.8418L60.2783 4.09619L57.7026 11.3228ZM67.8101 3.25391V0.775879H80.6641V3.25391H75.5859V18H72.8882V3.25391H67.8101ZM83.6182 18V0.775879H86.2671V18H83.6182ZM89.6973 9.43066C89.6973 7.81934 90.0798 6.33822 90.8447 4.9873C91.6097 3.62826 92.6595 2.55404 93.9941 1.76465C95.3288 0.97526 96.7977 0.580566 98.4009 0.580566C100.012 0.580566 101.489 0.97526 102.832 1.76465C104.175 2.55404 105.229 3.62826 105.994 4.9873C106.767 6.33822 107.153 7.81934 107.153 9.43066C107.153 10.627 106.925 11.7703 106.47 12.8608C106.014 13.9432 105.4 14.8791 104.626 15.6685C103.853 16.4578 102.922 17.0845 101.831 17.5483C100.749 18.0122 99.6053 18.2441 98.4009 18.2441C97.1965 18.2441 96.0531 18.0122 94.9707 17.5483C93.8965 17.0845 92.9728 16.4578 92.1997 15.6685C91.4347 14.8791 90.8244 13.9432 90.3687 12.8608C89.9211 11.7703 89.6973 10.627 89.6973 9.43066ZM92.3462 9.43066C92.3462 10.57 92.6107 11.6157 93.1396 12.5679C93.6768 13.5119 94.4092 14.2606 95.3369 14.814C96.2646 15.3674 97.286 15.644 98.4009 15.644C99.5239 15.644 100.549 15.3674 101.477 14.814C102.413 14.2606 103.145 13.5119 103.674 12.5679C104.211 11.6157 104.48 10.57 104.48 9.43066C104.48 8.29134 104.211 7.24561 103.674 6.29346C103.145 5.33317 102.413 4.57633 101.477 4.02295C100.549 3.46143 99.5239 3.18066 98.4009 3.18066C96.7082 3.18066 95.2759 3.79102 94.104 5.01172C92.9321 6.22428 92.3462 7.69727 92.3462 9.43066ZM110.571 18V0.775879H113.123L120.447 12.9951V0.775879H123.096V18H120.63L113.22 5.6709V18H110.571Z" fill="#79C0E0"/>
</svg>
