<svg width="64" height="18" viewBox="0 0 64 18" fill="none" xmlns="http://www.w3.org/2000/svg">
<path d="M0.927734 13.8008L1.50146 11.6279H4.1748L5.37109 7.29443H2.74658L3.32031 5.12158H5.96924L7.20215 0.775879H9.52148L8.30078 5.12158H10.9497L12.1704 0.775879H14.502L13.269 5.12158H15.9546L15.3442 7.29443H12.6465L11.4258 11.6279H14.1235L13.5254 13.8008H10.8276L9.57031 18H7.2998L8.49609 13.8008H5.87158L4.62646 18H2.35596L3.57666 13.8008H0.927734ZM6.46973 11.6279H9.09424L10.3271 7.29443H7.67822L6.46973 11.6279ZM19.0918 18V0.775879H21.7407V15.5708H28.6499V18H19.0918ZM31.5674 18V0.775879H34.2163V18H31.5674ZM37.0972 0.775879H39.8804L43.5547 13.5811L47.2534 0.775879H50L44.7998 18H42.3218L37.0972 0.775879ZM52.8809 18V0.775879H63.2568V3.22949H55.5298V8.31982H62.2803V10.749H55.5298V15.5708H63.5132V18H52.8809Z" fill="#79C0E0"/>
</svg>
