<svg width="131" height="32" viewBox="0 0 131 32" fill="none" xmlns="http://www.w3.org/2000/svg">
<path d="M0.285156 32L4.06445 0.996582H8.30518L18.8301 23.0791L29.355 0.996582H33.6396L37.4189 32H32.6509L29.9922 9.85156L20.8955 28.5283H16.8525L7.71191 9.85156L5.0752 32H0.285156ZM43.7471 32V0.996582H62.4238V5.41309H48.5151V14.5757H60.666V18.9482H48.5151V27.6274H62.8853V32H43.7471ZM69.2793 32V0.996582H81.3862C82.9829 0.996582 84.4038 1.2749 85.6489 1.83154C86.894 2.38818 87.8828 3.13525 88.6152 4.07275C89.3477 5.01025 89.897 6.05762 90.2632 7.21484C90.644 8.35742 90.8345 9.56592 90.8345 10.8403C90.8345 12.0122 90.6807 13.1255 90.373 14.1802C90.0654 15.2349 89.604 16.209 88.9888 17.1025C88.3735 17.9961 87.5386 18.7432 86.4839 19.3438C85.4292 19.9297 84.2134 20.2959 82.8364 20.4424L90.9663 32H85.1655L77.4312 20.6182H74.0913V32H69.2793ZM74.0913 16.2456H81.0347C82.646 16.2456 83.8545 15.7183 84.6602 14.6636C85.4805 13.5942 85.8906 12.3198 85.8906 10.8403C85.8906 9.91748 85.7368 9.06055 85.4292 8.26953C85.1362 7.47852 84.6235 6.80469 83.8911 6.24805C83.1587 5.69141 82.2651 5.41309 81.2104 5.41309H74.0913V16.2456ZM97.2725 32V0.996582H102.041V32H97.2725ZM107.358 5.45703V0.996582H130.495V5.45703H121.354V32H116.499V5.45703H107.358Z" fill="#79C0E0"/>
</svg>
