<svg width="73" height="18" viewBox="0 0 73 18" fill="none" xmlns="http://www.w3.org/2000/svg">
<path d="M0.269531 18L2.36914 0.775879H4.7251L10.5723 13.0439L16.4194 0.775879H18.7998L20.8994 18H18.2505L16.7734 5.69531L11.7197 16.0713H9.47363L4.39551 5.69531L2.93066 18H0.269531ZM24.415 18V0.775879H34.791V3.22949H27.064V8.31982H33.8145V10.749H27.064V15.5708H35.0474V18H24.415ZM38.5996 18V0.775879H45.3257C46.2127 0.775879 47.0021 0.930501 47.6938 1.23975C48.3856 1.54899 48.9349 1.96403 49.3418 2.48486C49.7487 3.0057 50.0539 3.58757 50.2573 4.23047C50.4689 4.86523 50.5747 5.53662 50.5747 6.24463C50.5747 6.89567 50.4893 7.51416 50.3184 8.1001C50.1475 8.68604 49.8911 9.22721 49.5493 9.72363C49.2075 10.2201 48.7437 10.6351 48.1577 10.9688C47.5718 11.2943 46.8963 11.4977 46.1313 11.5791L50.6479 18H47.4253L43.1284 11.6768H41.2729V18H38.5996ZM41.2729 9.24756H45.1304C46.0256 9.24756 46.6969 8.95459 47.1445 8.36865C47.6003 7.77458 47.8281 7.06657 47.8281 6.24463C47.8281 5.73193 47.7427 5.25586 47.5718 4.81641C47.409 4.37695 47.1242 4.0026 46.7173 3.69336C46.3104 3.38411 45.814 3.22949 45.228 3.22949H41.2729V9.24756ZM54.1514 18V0.775879H56.8003V18H54.1514ZM59.7544 3.25391V0.775879H72.6084V3.25391H67.5303V18H64.8325V3.25391H59.7544Z" fill="#79C0E0"/>
</svg>
