<svg width="117" height="33" viewBox="0 0 117 33" fill="none" xmlns="http://www.w3.org/2000/svg">
<path d="M0.363281 32V0.996582H18.7764V5.41309H5.13135V14.5757H15.9419V18.9482H5.13135V32H0.363281ZM24.0938 32V0.996582H28.8618V27.6274H41.2983V32H24.0938ZM43.6055 16.5752C43.6055 13.6748 44.2939 11.0088 45.6709 8.57715C47.0479 6.13086 48.9375 4.19727 51.3398 2.77637C53.7422 1.35547 56.3862 0.64502 59.272 0.64502C62.1724 0.64502 64.8311 1.35547 67.248 2.77637C69.665 4.19727 71.562 6.13086 72.939 8.57715C74.3306 11.0088 75.0264 13.6748 75.0264 16.5752C75.0264 18.7285 74.6162 20.7866 73.7959 22.7495C72.9756 24.6978 71.8696 26.3823 70.478 27.8032C69.0864 29.2241 67.4092 30.3521 65.4463 31.187C63.498 32.022 61.4399 32.4395 59.272 32.4395C57.104 32.4395 55.0459 32.022 53.0977 31.187C51.1641 30.3521 49.5015 29.2241 48.1099 27.8032C46.7329 26.3823 45.6343 24.6978 44.814 22.7495C44.0083 20.7866 43.6055 18.7285 43.6055 16.5752ZM48.3735 16.5752C48.3735 18.626 48.8496 20.5083 49.8018 22.2222C50.7686 23.9214 52.0869 25.269 53.7568 26.2651C55.4268 27.2612 57.2651 27.7593 59.272 27.7593C61.2935 27.7593 63.1392 27.2612 64.8091 26.2651C66.4937 25.269 67.812 23.9214 68.7642 22.2222C69.731 20.5083 70.2144 18.626 70.2144 16.5752C70.2144 14.5244 69.731 12.6421 68.7642 10.9282C67.812 9.19971 66.4937 7.8374 64.8091 6.84131C63.1392 5.83057 61.2935 5.3252 59.272 5.3252C56.2251 5.3252 53.647 6.42383 51.5376 8.62109C49.4282 10.8037 48.3735 13.4551 48.3735 16.5752ZM77.0698 0.996582H82.1895L89.5723 24.0898L94.8896 5.21533H98.625L103.92 24.0898L111.303 0.996582H116.445L105.942 32H101.943L96.7354 13.4111L91.5498 32H87.5508L77.0698 0.996582Z" fill="#79C0E0"/>
</svg>
