<svg width="113" height="19" viewBox="0 0 113 19" fill="none" xmlns="http://www.w3.org/2000/svg">
<path d="M0.246094 18V0.775879H7.17969C8.07487 0.775879 8.86833 0.930501 9.56006 1.23975C10.2518 1.54899 10.8011 1.9681 11.208 2.49707C11.6149 3.0179 11.9201 3.5957 12.1235 4.23047C12.327 4.86523 12.4287 5.53662 12.4287 6.24463C12.4287 6.95264 12.327 7.62402 12.1235 8.25879C11.9201 8.89355 11.6149 9.47135 11.208 9.99219C10.8011 10.5049 10.2518 10.9159 9.56006 11.2251C8.86833 11.5262 8.07487 11.6768 7.17969 11.6768H2.91943V18H0.246094ZM2.91943 9.24756H7.021C7.63135 9.24756 8.15218 9.09701 8.5835 8.7959C9.01481 8.49479 9.31999 8.12451 9.49902 7.68506C9.6862 7.24561 9.77979 6.76546 9.77979 6.24463C9.77979 5.43083 9.55192 4.72689 9.09619 4.13281C8.6486 3.5306 7.99349 3.22949 7.13086 3.22949H2.91943V9.24756ZM15.4316 18V0.775879H22.1577C23.0448 0.775879 23.8341 0.930501 24.5259 1.23975C25.2176 1.54899 25.7669 1.96403 26.1738 2.48486C26.5807 3.0057 26.8859 3.58757 27.0894 4.23047C27.3009 4.86523 27.4067 5.53662 27.4067 6.24463C27.4067 6.89567 27.3213 7.51416 27.1504 8.1001C26.9795 8.68604 26.7231 9.22721 26.3813 9.72363C26.0396 10.2201 25.5757 10.6351 24.9897 10.9688C24.4038 11.2943 23.7284 11.4977 22.9634 11.5791L27.48 18H24.2573L19.9604 11.6768H18.105V18H15.4316ZM18.105 9.24756H21.9624C22.8576 9.24756 23.529 8.95459 23.9766 8.36865C24.4323 7.77458 24.6602 7.06657 24.6602 6.24463C24.6602 5.73193 24.5747 5.25586 24.4038 4.81641C24.241 4.37695 23.9562 4.0026 23.5493 3.69336C23.1424 3.38411 22.646 3.22949 22.0601 3.22949H18.105V9.24756ZM29.9092 9.43066C29.9092 7.81934 30.2917 6.33822 31.0566 4.9873C31.8216 3.62826 32.8714 2.55404 34.2061 1.76465C35.5407 0.97526 37.0096 0.580566 38.6128 0.580566C40.2241 0.580566 41.7012 0.97526 43.0439 1.76465C44.3867 2.55404 45.4406 3.62826 46.2056 4.9873C46.9787 6.33822 47.3652 7.81934 47.3652 9.43066C47.3652 10.627 47.1374 11.7703 46.6816 12.8608C46.2259 13.9432 45.6115 14.8791 44.8384 15.6685C44.0653 16.4578 43.1335 17.0845 42.043 17.5483C40.9606 18.0122 39.8172 18.2441 38.6128 18.2441C37.4084 18.2441 36.265 18.0122 35.1826 17.5483C34.1084 17.0845 33.1847 16.4578 32.4116 15.6685C31.6466 14.8791 31.0363 13.9432 30.5806 12.8608C30.133 11.7703 29.9092 10.627 29.9092 9.43066ZM32.5581 9.43066C32.5581 10.57 32.8226 11.6157 33.3516 12.5679C33.8887 13.5119 34.6211 14.2606 35.5488 14.814C36.4766 15.3674 37.4979 15.644 38.6128 15.644C39.7358 15.644 40.7612 15.3674 41.689 14.814C42.6248 14.2606 43.3573 13.5119 43.8862 12.5679C44.4233 11.6157 44.6919 10.57 44.6919 9.43066C44.6919 8.29134 44.4233 7.24561 43.8862 6.29346C43.3573 5.33317 42.6248 4.57633 41.689 4.02295C40.7612 3.46143 39.7358 3.18066 38.6128 3.18066C36.9201 3.18066 35.4878 3.79102 34.3159 5.01172C33.144 6.22428 32.5581 7.69727 32.5581 9.43066ZM50.7832 18V0.775879H57.3872C58.8521 0.775879 60.0117 1.18685 60.8662 2.00879C61.7288 2.82259 62.1602 3.92936 62.1602 5.3291C62.1602 6.09408 61.9811 6.79395 61.623 7.42871C61.2731 8.05534 60.7116 8.51921 59.9385 8.82031C60.5814 8.9668 61.147 9.2679 61.6353 9.72363C62.1317 10.1794 62.4979 10.688 62.7339 11.2495C62.9699 11.811 63.0879 12.3766 63.0879 12.9463C63.0879 14.3623 62.6159 15.5586 61.6719 16.5352C60.736 17.5117 59.4827 18 57.9121 18H50.7832ZM53.4565 15.5708H57.79C58.555 15.5708 59.1654 15.3063 59.6211 14.7773C60.085 14.2484 60.3169 13.6299 60.3169 12.9219C60.3169 12.222 60.0768 11.5832 59.5967 11.0054C59.1165 10.4194 58.4899 10.1265 57.7168 10.1265H53.4565V15.5708ZM53.4565 7.85596H57.2896C57.9569 7.85596 58.4777 7.62402 58.8521 7.16016C59.2264 6.68815 59.4136 6.11035 59.4136 5.42676C59.4136 4.72689 59.2061 4.18164 58.791 3.79102C58.3841 3.40039 57.8226 3.20508 57.1064 3.20508H53.4565V7.85596ZM66.5059 18V0.775879H69.1548V15.5708H76.064V18H66.5059ZM78.9814 18V0.775879H89.3574V3.22949H81.6304V8.31982H88.3809V10.749H81.6304V15.5708H89.6138V18H78.9814ZM92.1895 18L94.2891 0.775879H96.645L102.492 13.0439L108.339 0.775879H110.72L112.819 18H110.17L108.693 5.69531L103.64 16.0713H101.394L96.3154 5.69531L94.8506 18H92.1895Z" fill="#79C0E0"/>
</svg>
