<svg width="90" height="19" viewBox="0 0 90 19" fill="none" xmlns="http://www.w3.org/2000/svg">
<path d="M0.171875 9.43066C0.171875 7.81934 0.554362 6.33822 1.31934 4.9873C2.08431 3.62826 3.13411 2.55404 4.46875 1.76465C5.80339 0.97526 7.2723 0.580566 8.87549 0.580566C10.4868 0.580566 11.9639 0.97526 13.3066 1.76465C14.6494 2.55404 15.7033 3.62826 16.4683 4.9873C17.2414 6.33822 17.6279 7.81934 17.6279 9.43066C17.6279 10.627 17.4001 11.7703 16.9443 12.8608C16.4886 13.9432 15.8742 14.8791 15.1011 15.6685C14.328 16.4578 13.3962 17.0845 12.3057 17.5483C11.2233 18.0122 10.0799 18.2441 8.87549 18.2441C7.67106 18.2441 6.52767 18.0122 5.44531 17.5483C4.37109 17.0845 3.44743 16.4578 2.67432 15.6685C1.90934 14.8791 1.29899 13.9432 0.843262 12.8608C0.395671 11.7703 0.171875 10.627 0.171875 9.43066ZM2.8208 9.43066C2.8208 10.57 3.08529 11.6157 3.61426 12.5679C4.15137 13.5119 4.88379 14.2606 5.81152 14.814C6.73926 15.3674 7.76058 15.644 8.87549 15.644C9.99854 15.644 11.0239 15.3674 11.9517 14.814C12.8875 14.2606 13.62 13.5119 14.1489 12.5679C14.686 11.6157 14.9546 10.57 14.9546 9.43066C14.9546 8.29134 14.686 7.24561 14.1489 6.29346C13.62 5.33317 12.8875 4.57633 11.9517 4.02295C11.0239 3.46143 9.99854 3.18066 8.87549 3.18066C7.18278 3.18066 5.75049 3.79102 4.57861 5.01172C3.40674 6.22428 2.8208 7.69727 2.8208 9.43066ZM21.0459 18V0.775879H27.9795C28.8747 0.775879 29.6681 0.930501 30.3599 1.23975C31.0516 1.54899 31.6009 1.9681 32.0078 2.49707C32.4147 3.0179 32.7199 3.5957 32.9233 4.23047C33.1268 4.86523 33.2285 5.53662 33.2285 6.24463C33.2285 6.95264 33.1268 7.62402 32.9233 8.25879C32.7199 8.89355 32.4147 9.47135 32.0078 9.99219C31.6009 10.5049 31.0516 10.9159 30.3599 11.2251C29.6681 11.5262 28.8747 11.6768 27.9795 11.6768H23.7192V18H21.0459ZM23.7192 9.24756H27.8208C28.4312 9.24756 28.952 9.09701 29.3833 8.7959C29.8146 8.49479 30.1198 8.12451 30.2988 7.68506C30.486 7.24561 30.5796 6.76546 30.5796 6.24463C30.5796 5.43083 30.3517 4.72689 29.896 4.13281C29.4484 3.5306 28.7933 3.22949 27.9307 3.22949H23.7192V9.24756ZM34.6812 3.25391V0.775879H47.5352V3.25391H42.457V18H39.7593V3.25391H34.6812ZM50.4893 18V0.775879H53.1382V18H50.4893ZM56.5684 9.43066C56.5684 7.81934 56.9508 6.33822 57.7158 4.9873C58.4808 3.62826 59.5306 2.55404 60.8652 1.76465C62.1999 0.97526 63.6688 0.580566 65.272 0.580566C66.8833 0.580566 68.3604 0.97526 69.7031 1.76465C71.0459 2.55404 72.0998 3.62826 72.8647 4.9873C73.6379 6.33822 74.0244 7.81934 74.0244 9.43066C74.0244 10.627 73.7965 11.7703 73.3408 12.8608C72.8851 13.9432 72.2707 14.8791 71.4976 15.6685C70.7244 16.4578 69.7926 17.0845 68.7021 17.5483C67.6198 18.0122 66.4764 18.2441 65.272 18.2441C64.0675 18.2441 62.9242 18.0122 61.8418 17.5483C60.7676 17.0845 59.8439 16.4578 59.0708 15.6685C58.3058 14.8791 57.6955 13.9432 57.2397 12.8608C56.7922 11.7703 56.5684 10.627 56.5684 9.43066ZM59.2173 9.43066C59.2173 10.57 59.4818 11.6157 60.0107 12.5679C60.5479 13.5119 61.2803 14.2606 62.208 14.814C63.1357 15.3674 64.1571 15.644 65.272 15.644C66.395 15.644 67.4204 15.3674 68.3481 14.814C69.284 14.2606 70.0164 13.5119 70.5454 12.5679C71.0825 11.6157 71.3511 10.57 71.3511 9.43066C71.3511 8.29134 71.0825 7.24561 70.5454 6.29346C70.0164 5.33317 69.284 4.57633 68.3481 4.02295C67.4204 3.46143 66.395 3.18066 65.272 3.18066C63.5793 3.18066 62.147 3.79102 60.9751 5.01172C59.8032 6.22428 59.2173 7.69727 59.2173 9.43066ZM77.4424 18V0.775879H79.9937L87.3179 12.9951V0.775879H89.9668V18H87.501L80.0913 5.6709V18H77.4424Z" fill="#79C0E0"/>
</svg>
