<svg width="81" height="38" viewBox="0 0 81 38" fill="none" xmlns="http://www.w3.org/2000/svg">
<path d="M0.363281 32V0.996582H18.7764V5.41309H5.13135V14.5757H15.9419V18.9482H5.13135V32H0.363281ZM18.2051 32L29.9165 0.996582H35.0801L46.7915 32H41.7378L38.7715 24.2656H26.269L23.3027 32H18.2051ZM27.895 19.981H37.1455L32.5312 6.97314L27.895 19.981ZM48.5273 16.5752C48.5273 13.6748 49.2158 11.0088 50.5928 8.57715C51.9844 6.13086 53.8813 4.19727 56.2837 2.77637C58.7007 1.35547 61.3521 0.64502 64.2378 0.64502C66.4204 0.64502 68.4932 1.06982 70.4561 1.91943C72.4189 2.75439 74.0962 3.88232 75.4878 5.30322C76.894 6.72412 78 8.41602 78.8057 10.3789C79.626 12.3418 80.0361 14.4072 80.0361 16.5752C80.0361 19.3291 79.3843 21.8853 78.0806 24.2437C76.7915 26.6021 75.041 28.499 72.8291 29.9346L75.9932 35.0103L72.3896 37.2295L68.9619 31.7363C67.5703 32.2051 65.9956 32.4395 64.2378 32.4395C62.0698 32.4395 60.0117 32.022 58.0635 31.187C56.1299 30.3521 54.4673 29.2241 53.0757 27.8032C51.6841 26.3823 50.5781 24.6978 49.7578 22.7495C48.9375 20.7866 48.5273 18.7285 48.5273 16.5752ZM53.2954 16.5752C53.2954 19.5049 54.2329 22.0171 56.1079 24.1118C57.9829 26.2065 60.334 27.3784 63.1611 27.6274C64.2012 27.7593 65.2632 27.73 66.3472 27.5396L63.3809 22.6836L66.9404 20.4863L70.3022 25.9355C71.8257 24.9395 73.0269 23.6211 73.9058 21.9805C74.7847 20.3252 75.2241 18.5234 75.2241 16.5752C75.2241 14.5098 74.7407 12.6128 73.7739 10.8843C72.8218 9.14111 71.5034 7.76416 69.8188 6.75342C68.1343 5.72803 66.2739 5.21533 64.2378 5.21533C62.2163 5.21533 60.3633 5.72803 58.6787 6.75342C57.0088 7.76416 55.6904 9.14111 54.7236 10.8843C53.7715 12.6128 53.2954 14.5098 53.2954 16.5752Z" fill="#79C0E0"/>
</svg>
