<svg width="163" height="33" viewBox="0 0 163 33" fill="none" xmlns="http://www.w3.org/2000/svg">
<path d="M0.429688 16.5752C0.429688 13.6748 1.11816 11.0088 2.49512 8.57715C3.87207 6.13086 5.76172 4.19727 8.16406 2.77637C10.5664 1.35547 13.2104 0.64502 16.0962 0.64502C18.9966 0.64502 21.6553 1.35547 24.0723 2.77637C26.4893 4.19727 28.3862 6.13086 29.7632 8.57715C31.1548 11.0088 31.8506 13.6748 31.8506 16.5752C31.8506 18.7285 31.4404 20.7866 30.6201 22.7495C29.7998 24.6978 28.6938 26.3823 27.3022 27.8032C25.9106 29.2241 24.2334 30.3521 22.2705 31.187C20.3223 32.022 18.2642 32.4395 16.0962 32.4395C13.9282 32.4395 11.8701 32.022 9.92188 31.187C7.98828 30.3521 6.32568 29.2241 4.93408 27.8032C3.55713 26.3823 2.4585 24.6978 1.63818 22.7495C0.83252 20.7866 0.429688 18.7285 0.429688 16.5752ZM5.19775 16.5752C5.19775 18.626 5.67383 20.5083 6.62598 22.2222C7.59277 23.9214 8.91113 25.269 10.5811 26.2651C12.251 27.2612 14.0894 27.7593 16.0962 27.7593C18.1177 27.7593 19.9634 27.2612 21.6333 26.2651C23.3179 25.269 24.6362 23.9214 25.5884 22.2222C26.5552 20.5083 27.0386 18.626 27.0386 16.5752C27.0386 14.5244 26.5552 12.6421 25.5884 10.9282C24.6362 9.19971 23.3179 7.8374 21.6333 6.84131C19.9634 5.83057 18.1177 5.3252 16.0962 5.3252C13.0493 5.3252 10.4712 6.42383 8.36182 8.62109C6.25244 10.8037 5.19775 13.4551 5.19775 16.5752ZM38.0029 32V0.996582H50.4834C52.0947 0.996582 53.5229 1.2749 54.7681 1.83154C56.0132 2.38818 57.002 3.14258 57.7344 4.09473C58.4668 5.03223 59.0161 6.07227 59.3823 7.21484C59.7485 8.35742 59.9316 9.56592 59.9316 10.8403C59.9316 12.1147 59.7485 13.3232 59.3823 14.4658C59.0161 15.6084 58.4668 16.6484 57.7344 17.5859C57.002 18.5088 56.0132 19.2485 54.7681 19.8052C53.5229 20.3472 52.0947 20.6182 50.4834 20.6182H42.8149V32H38.0029ZM42.8149 16.2456H50.1978C51.2964 16.2456 52.2339 15.9746 53.0103 15.4326C53.7866 14.8906 54.3359 14.2241 54.6582 13.4331C54.9951 12.6421 55.1636 11.7778 55.1636 10.8403C55.1636 9.37549 54.7534 8.1084 53.9331 7.03906C53.1274 5.95508 51.9482 5.41309 50.3955 5.41309H42.8149V16.2456ZM62.5464 5.45703V0.996582H85.6836V5.45703H76.543V32H71.687V5.45703H62.5464ZM91.001 32V0.996582H95.769V32H91.001ZM101.943 16.5752C101.943 13.6748 102.632 11.0088 104.009 8.57715C105.386 6.13086 107.275 4.19727 109.678 2.77637C112.08 1.35547 114.724 0.64502 117.61 0.64502C120.51 0.64502 123.169 1.35547 125.586 2.77637C128.003 4.19727 129.9 6.13086 131.277 8.57715C132.668 11.0088 133.364 13.6748 133.364 16.5752C133.364 18.7285 132.954 20.7866 132.134 22.7495C131.313 24.6978 130.208 26.3823 128.816 27.8032C127.424 29.2241 125.747 30.3521 123.784 31.187C121.836 32.022 119.778 32.4395 117.61 32.4395C115.442 32.4395 113.384 32.022 111.436 31.187C109.502 30.3521 107.839 29.2241 106.448 27.8032C105.071 26.3823 103.972 24.6978 103.152 22.7495C102.346 20.7866 101.943 18.7285 101.943 16.5752ZM106.711 16.5752C106.711 18.626 107.188 20.5083 108.14 22.2222C109.106 23.9214 110.425 25.269 112.095 26.2651C113.765 27.2612 115.603 27.7593 117.61 27.7593C119.631 27.7593 121.477 27.2612 123.147 26.2651C124.832 25.269 126.15 23.9214 127.102 22.2222C128.069 20.5083 128.552 18.626 128.552 16.5752C128.552 14.5244 128.069 12.6421 127.102 10.9282C126.15 9.19971 124.832 7.8374 123.147 6.84131C121.477 5.83057 119.631 5.3252 117.61 5.3252C114.563 5.3252 111.985 6.42383 109.875 8.62109C107.766 10.8037 106.711 13.4551 106.711 16.5752ZM139.517 32V0.996582H144.109L157.292 22.9912V0.996582H162.061V32H157.622L144.285 9.80762V32H139.517Z" fill="#79C0E0"/>
</svg>
