<svg width="114" height="32" viewBox="0 0 114 32" fill="none" xmlns="http://www.w3.org/2000/svg">
<path d="M0.669922 24.4414L1.70264 20.5303H6.51465L8.66797 12.73H3.94385L4.97656 8.81885H9.74463L11.9639 0.996582H16.1387L13.9414 8.81885H18.7095L20.9067 0.996582H25.1035L22.8843 8.81885H27.7183L26.6196 12.73H21.7637L19.5664 20.5303H24.4224L23.3457 24.4414H18.4897L16.2266 32H12.1396L14.293 24.4414H9.56885L7.32764 32H3.24072L5.43799 24.4414H0.669922ZM10.6455 20.5303H15.3696L17.5889 12.73H12.8208L10.6455 20.5303ZM33.3652 32V0.996582H38.1333V27.6274H50.5698V32H33.3652ZM55.8213 32V0.996582H60.5894V32H55.8213ZM65.7749 0.996582H70.7847L77.3984 24.0459L84.0562 0.996582H89L79.6396 32H75.1792L65.7749 0.996582ZM94.1855 32V0.996582H112.862V5.41309H98.9536V14.5757H111.104V18.9482H98.9536V27.6274H113.324V32H94.1855Z" fill="#79C0E0"/>
</svg>
