<svg width="119" height="33" viewBox="0 0 119 33" fill="none" xmlns="http://www.w3.org/2000/svg">
<path d="M0.363281 32V0.996582H12.8438C14.4551 0.996582 15.8833 1.2749 17.1284 1.83154C18.3735 2.38818 19.3623 3.14258 20.0947 4.09473C20.8271 5.03223 21.3765 6.07227 21.7427 7.21484C22.1089 8.35742 22.292 9.56592 22.292 10.8403C22.292 12.1147 22.1089 13.3232 21.7427 14.4658C21.3765 15.6084 20.8271 16.6484 20.0947 17.5859C19.3623 18.5088 18.3735 19.2485 17.1284 19.8052C15.8833 20.3472 14.4551 20.6182 12.8438 20.6182H5.17529V32H0.363281ZM5.17529 16.2456H12.5581C13.6567 16.2456 14.5942 15.9746 15.3706 15.4326C16.147 14.8906 16.6963 14.2241 17.0186 13.4331C17.3555 12.6421 17.5239 11.7778 17.5239 10.8403C17.5239 9.37549 17.1138 8.1084 16.2935 7.03906C15.4878 5.95508 14.3086 5.41309 12.7559 5.41309H5.17529V16.2456ZM27.6973 32V0.996582H39.8042C41.4009 0.996582 42.8218 1.2749 44.0669 1.83154C45.312 2.38818 46.3008 3.13525 47.0332 4.07275C47.7656 5.01025 48.3149 6.05762 48.6812 7.21484C49.062 8.35742 49.2524 9.56592 49.2524 10.8403C49.2524 12.0122 49.0986 13.1255 48.791 14.1802C48.4834 15.2349 48.022 16.209 47.4067 17.1025C46.7915 17.9961 45.9565 18.7432 44.9019 19.3438C43.8472 19.9297 42.6313 20.2959 41.2544 20.4424L49.3843 32H43.5835L35.8491 20.6182H32.5093V32H27.6973ZM32.5093 16.2456H39.4526C41.064 16.2456 42.2725 15.7183 43.0781 14.6636C43.8984 13.5942 44.3086 12.3198 44.3086 10.8403C44.3086 9.91748 44.1548 9.06055 43.8472 8.26953C43.5542 7.47852 43.0415 6.80469 42.3091 6.24805C41.5767 5.69141 40.6831 5.41309 39.6284 5.41309H32.5093V16.2456ZM55.6904 32V0.996582H60.4585V32H55.6904ZM66.6328 16.5752C66.6328 13.6748 67.3213 11.0088 68.6982 8.57715C70.0898 6.13086 71.9868 4.19727 74.3892 2.77637C76.7915 1.35547 79.4282 0.64502 82.2993 0.64502C84.731 0.64502 86.9868 1.13574 89.0669 2.11719C91.147 3.09863 92.8828 4.46094 94.2744 6.2041L90.583 9.10449C89.5283 7.90332 88.2905 6.9585 86.8696 6.27002C85.4487 5.56689 83.9253 5.21533 82.2993 5.21533C79.2378 5.21533 76.6523 6.32129 74.543 8.5332C72.4482 10.7451 71.4009 13.4258 71.4009 16.5752C71.4009 18.6406 71.877 20.5376 72.8291 22.2661C73.7812 23.9946 75.0923 25.3643 76.7622 26.375C78.4321 27.3711 80.2778 27.8691 82.2993 27.8691C83.9839 27.8691 85.5513 27.5103 87.0015 26.7925C88.4663 26.0601 89.6895 25.064 90.6709 23.8042L94.3623 26.7266C92.9854 28.5137 91.2495 29.9126 89.1548 30.9233C87.0601 31.9341 84.7749 32.4395 82.2993 32.4395C79.4282 32.4395 76.7915 31.7363 74.3892 30.3301C71.9868 28.9092 70.0898 26.9829 68.6982 24.5513C67.3213 22.1196 66.6328 19.4609 66.6328 16.5752ZM99.3281 32V0.996582H118.005V5.41309H104.096V14.5757H116.247V18.9482H104.096V27.6274H118.466V32H99.3281Z" fill="#79C0E0"/>
</svg>
