<svg width="149" height="33" viewBox="0 0 149 33" fill="none" xmlns="http://www.w3.org/2000/svg">
<path d="M0.583984 32L12.2954 0.996582H17.459L29.1704 32H24.1167L21.1504 24.2656H8.64795L5.68164 32H0.583984ZM10.2739 19.981H19.5244L14.9102 6.97314L10.2739 19.981ZM33.499 32V0.996582H45.3862C48.0229 0.996582 50.1104 1.73633 51.6484 3.21582C53.2012 4.68066 53.9775 6.67285 53.9775 9.19238C53.9775 10.5693 53.6553 11.8291 53.0107 12.9717C52.3809 14.0996 51.3701 14.9346 49.9785 15.4766C51.1357 15.7402 52.1538 16.2822 53.0327 17.1025C53.9263 17.9229 54.5854 18.8384 55.0103 19.8491C55.4351 20.8599 55.6475 21.8779 55.6475 22.9033C55.6475 25.4521 54.7979 27.6055 53.0986 29.3633C51.4141 31.1211 49.1582 32 46.3311 32H33.499ZM38.311 27.6274H46.1113C47.4883 27.6274 48.5869 27.1514 49.4072 26.1992C50.2422 25.2471 50.6597 24.1338 50.6597 22.8594C50.6597 21.5996 50.2275 20.4497 49.3633 19.4097C48.499 18.355 47.3711 17.8276 45.9795 17.8276H38.311V27.6274ZM38.311 13.7407H45.2104C46.4116 13.7407 47.3491 13.3232 48.0229 12.4883C48.6968 11.6387 49.0337 10.5986 49.0337 9.36816C49.0337 8.1084 48.6602 7.12695 47.9131 6.42383C47.1807 5.7207 46.1699 5.36914 44.8809 5.36914H38.311V13.7407ZM59.8662 16.5752C59.8662 13.6748 60.5547 11.0088 61.9316 8.57715C63.3086 6.13086 65.1982 4.19727 67.6006 2.77637C70.0029 1.35547 72.647 0.64502 75.5327 0.64502C78.4331 0.64502 81.0918 1.35547 83.5088 2.77637C85.9258 4.19727 87.8228 6.13086 89.1997 8.57715C90.5913 11.0088 91.2871 13.6748 91.2871 16.5752C91.2871 18.7285 90.877 20.7866 90.0566 22.7495C89.2363 24.6978 88.1304 26.3823 86.7388 27.8032C85.3472 29.2241 83.6699 30.3521 81.707 31.187C79.7588 32.022 77.7007 32.4395 75.5327 32.4395C73.3647 32.4395 71.3066 32.022 69.3584 31.187C67.4248 30.3521 65.7622 29.2241 64.3706 27.8032C62.9937 26.3823 61.895 24.6978 61.0747 22.7495C60.269 20.7866 59.8662 18.7285 59.8662 16.5752ZM64.6343 16.5752C64.6343 18.626 65.1104 20.5083 66.0625 22.2222C67.0293 23.9214 68.3477 25.269 70.0176 26.2651C71.6875 27.2612 73.5259 27.7593 75.5327 27.7593C77.5542 27.7593 79.3999 27.2612 81.0698 26.2651C82.7544 25.269 84.0728 23.9214 85.0249 22.2222C85.9917 20.5083 86.4751 18.626 86.4751 16.5752C86.4751 14.5244 85.9917 12.6421 85.0249 10.9282C84.0728 9.19971 82.7544 7.8374 81.0698 6.84131C79.3999 5.83057 77.5542 5.3252 75.5327 5.3252C72.4858 5.3252 69.9077 6.42383 67.7983 8.62109C65.689 10.8037 64.6343 13.4551 64.6343 16.5752ZM97.1318 21.2554V0.996582H101.988V21.2554C101.988 23.2036 102.64 24.793 103.943 26.0234C105.247 27.2539 106.814 27.8691 108.646 27.8691C110.477 27.8691 112.044 27.2539 113.348 26.0234C114.651 24.793 115.303 23.2036 115.303 21.2554V0.996582H120.137V21.2554C120.137 23.4526 119.603 25.4155 118.533 27.144C117.479 28.8579 116.08 30.1689 114.336 31.0771C112.608 31.9854 110.711 32.4395 108.646 32.4395C106.565 32.4395 104.654 31.9854 102.911 31.0771C101.167 30.1689 99.7686 28.8579 98.7139 27.144C97.6592 25.4155 97.1318 23.4526 97.1318 21.2554ZM125.103 5.45703V0.996582H148.24V5.45703H139.1V32H134.244V5.45703H125.103Z" fill="#79C0E0"/>
</svg>
