<svg width="221" height="33" viewBox="0 0 221 33" fill="none" xmlns="http://www.w3.org/2000/svg">
<path d="M0.440918 0.996582H5.45068L12.0645 24.0459L18.7222 0.996582H23.666L14.3057 32H9.84521L0.440918 0.996582ZM23.4902 32L35.2017 0.996582H40.3652L52.0767 32H47.0229L44.0566 24.2656H31.5542L28.5879 32H23.4902ZM33.1802 19.981H42.4307L37.8164 6.97314L33.1802 19.981ZM56.4053 32V0.996582H68.5122C70.1089 0.996582 71.5298 1.2749 72.7749 1.83154C74.02 2.38818 75.0088 3.13525 75.7412 4.07275C76.4736 5.01025 77.0229 6.05762 77.3892 7.21484C77.77 8.35742 77.9604 9.56592 77.9604 10.8403C77.9604 12.0122 77.8066 13.1255 77.499 14.1802C77.1914 15.2349 76.73 16.209 76.1147 17.1025C75.4995 17.9961 74.6646 18.7432 73.6099 19.3438C72.5552 19.9297 71.3394 20.2959 69.9624 20.4424L78.0923 32H72.2915L64.5571 20.6182H61.2173V32H56.4053ZM61.2173 16.2456H68.1606C69.772 16.2456 70.9805 15.7183 71.7861 14.6636C72.6064 13.5942 73.0166 12.3198 73.0166 10.8403C73.0166 9.91748 72.8628 9.06055 72.5552 8.26953C72.2622 7.47852 71.7495 6.80469 71.0171 6.24805C70.2847 5.69141 69.3911 5.41309 68.3364 5.41309H61.2173V16.2456ZM84.3984 32V0.996582H89.1665V32H84.3984ZM93.4951 32L105.207 0.996582H110.37L122.082 32H117.028L114.062 24.2656H101.559L98.5928 32H93.4951ZM103.185 19.981H112.436L107.821 6.97314L103.185 19.981ZM121.378 5.45703V0.996582H144.516V5.45703H135.375V32H130.519V5.45703H121.378ZM149.833 32V0.996582H154.601V32H149.833ZM160.775 16.5752C160.775 13.6748 161.464 11.0088 162.841 8.57715C164.218 6.13086 166.107 4.19727 168.51 2.77637C170.912 1.35547 173.556 0.64502 176.442 0.64502C179.342 0.64502 182.001 1.35547 184.418 2.77637C186.835 4.19727 188.732 6.13086 190.109 8.57715C191.5 11.0088 192.196 13.6748 192.196 16.5752C192.196 18.7285 191.786 20.7866 190.966 22.7495C190.146 24.6978 189.04 26.3823 187.648 27.8032C186.256 29.2241 184.579 30.3521 182.616 31.187C180.668 32.022 178.61 32.4395 176.442 32.4395C174.274 32.4395 172.216 32.022 170.268 31.187C168.334 30.3521 166.671 29.2241 165.28 27.8032C163.903 26.3823 162.804 24.6978 161.984 22.7495C161.178 20.7866 160.775 18.7285 160.775 16.5752ZM165.543 16.5752C165.543 18.626 166.02 20.5083 166.972 22.2222C167.938 23.9214 169.257 25.269 170.927 26.2651C172.597 27.2612 174.435 27.7593 176.442 27.7593C178.463 27.7593 180.309 27.2612 181.979 26.2651C183.664 25.269 184.982 23.9214 185.934 22.2222C186.901 20.5083 187.384 18.626 187.384 16.5752C187.384 14.5244 186.901 12.6421 185.934 10.9282C184.982 9.19971 183.664 7.8374 181.979 6.84131C180.309 5.83057 178.463 5.3252 176.442 5.3252C173.395 5.3252 170.817 6.42383 168.708 8.62109C166.598 10.8037 165.543 13.4551 165.543 16.5752ZM198.349 32V0.996582H202.941L216.125 22.9912V0.996582H220.893V32H216.454L203.117 9.80762V32H198.349Z" fill="#79C0E0"/>
</svg>
