<svg width="65" height="19" viewBox="0 0 65 19" fill="none" xmlns="http://www.w3.org/2000/svg">
<path d="M0.246094 18V0.775879H10.4756V3.22949H2.89502V8.31982H8.90088V10.749H2.89502V18H0.246094ZM13.4297 18V0.775879H16.0786V15.5708H22.9878V18H13.4297ZM24.2695 9.43066C24.2695 7.81934 24.652 6.33822 25.417 4.9873C26.182 3.62826 27.2318 2.55404 28.5664 1.76465C29.901 0.97526 31.37 0.580566 32.9731 0.580566C34.5845 0.580566 36.0615 0.97526 37.4043 1.76465C38.7471 2.55404 39.8009 3.62826 40.5659 4.9873C41.339 6.33822 41.7256 7.81934 41.7256 9.43066C41.7256 10.627 41.4977 11.7703 41.042 12.8608C40.5863 13.9432 39.9718 14.8791 39.1987 15.6685C38.4256 16.4578 37.4938 17.0845 36.4033 17.5483C35.321 18.0122 34.1776 18.2441 32.9731 18.2441C31.7687 18.2441 30.6253 18.0122 29.543 17.5483C28.4688 17.0845 27.5451 16.4578 26.772 15.6685C26.007 14.8791 25.3966 13.9432 24.9409 12.8608C24.4933 11.7703 24.2695 10.627 24.2695 9.43066ZM26.9185 9.43066C26.9185 10.57 27.1829 11.6157 27.7119 12.5679C28.249 13.5119 28.9814 14.2606 29.9092 14.814C30.8369 15.3674 31.8582 15.644 32.9731 15.644C34.0962 15.644 35.1216 15.3674 36.0493 14.814C36.9852 14.2606 37.7176 13.5119 38.2466 12.5679C38.7837 11.6157 39.0522 10.57 39.0522 9.43066C39.0522 8.29134 38.7837 7.24561 38.2466 6.29346C37.7176 5.33317 36.9852 4.57633 36.0493 4.02295C35.1216 3.46143 34.0962 3.18066 32.9731 3.18066C31.2804 3.18066 29.8481 3.79102 28.6763 5.01172C27.5044 6.22428 26.9185 7.69727 26.9185 9.43066ZM42.8608 0.775879H45.7051L49.8066 13.6055L52.7607 3.11963H54.8359L57.7778 13.6055L61.8794 0.775879H64.7358L58.9009 18H56.6792L53.7861 7.67285L50.9053 18H48.6836L42.8608 0.775879Z" fill="#79C0E0"/>
</svg>
