<svg width="128" height="33" viewBox="0 0 128 33" fill="none" xmlns="http://www.w3.org/2000/svg">
<path d="M0.440918 0.996582H5.45068L12.0645 24.0459L18.7222 0.996582H23.666L14.3057 32H9.84521L0.440918 0.996582ZM23.4902 32L35.2017 0.996582H40.3652L52.0767 32H47.0229L44.0566 24.2656H31.5542L28.5879 32H23.4902ZM33.1802 19.981H42.4307L37.8164 6.97314L33.1802 19.981ZM56.4053 32V0.996582H61.1733V27.6274H73.6099V32H56.4053ZM77.9824 21.2554V0.996582H82.8384V21.2554C82.8384 23.2036 83.4902 24.793 84.7939 26.0234C86.0977 27.2539 87.665 27.8691 89.4961 27.8691C91.3271 27.8691 92.8945 27.2539 94.1982 26.0234C95.502 24.793 96.1538 23.2036 96.1538 21.2554V0.996582H100.988V21.2554C100.988 23.4526 100.453 25.4155 99.3838 27.144C98.3291 28.8579 96.9302 30.1689 95.187 31.0771C93.4585 31.9854 91.5615 32.4395 89.4961 32.4395C87.416 32.4395 85.5044 31.9854 83.7612 31.0771C82.0181 30.1689 80.6191 28.8579 79.5645 27.144C78.5098 25.4155 77.9824 23.4526 77.9824 21.2554ZM108.744 32V0.996582H127.421V5.41309H113.512V14.5757H125.663V18.9482H113.512V27.6274H127.882V32H108.744Z" fill="#79C0E0"/>
</svg>
