<svg width="414" height="590" viewBox="0 0 414 590" fill="none" xmlns="http://www.w3.org/2000/svg">
<g clip-path="url(#clip0_760_2820)">
<path d="M51.7898 295.65H28.2098V310.15C28.2098 312.56 27.3698 313.45 25.6298 313.9C23.8898 314.4 20.4798 314.46 14.4298 314.4C14.2098 313.62 13.6998 312.5 13.2498 311.71C18.2298 311.82 22.5498 311.82 23.7798 311.77C25.0098 311.71 25.4598 311.32 25.4598 310.15V295.65H1.94977V293.02H25.4698V282.44H5.58977V279.86H25.4698V270.06C19.0898 270.68 12.4798 271.18 6.48977 271.46C6.37977 270.73 6.03977 269.72 5.75977 269.11C18.9798 268.38 35.7798 266.93 43.8998 264.13L46.0298 266.31C41.4398 267.71 35.0498 268.89 28.2198 269.73V279.87H48.7698V282.45H28.2198V293.03H51.7998V295.66L51.7898 295.65Z" fill="#0C445F"/>
<path d="M75.5597 304.44V314.86H73.0398V304.44H62.0598V301.92H73.0398V296.71H63.9098V277.78H73.0398V272.91H62.7398V270.39H73.0398V263.89H75.5597V270.39H85.8097V272.91H75.5597V277.78H84.7998V296.71H75.5597V301.92H86.3097V304.44H75.5597ZM66.1498 286.13H73.2098V280.03H66.1498V286.13ZM66.1498 294.47H73.2098V288.31H66.1498V294.47ZM82.4998 280.02H75.3898V286.12H82.4998V280.02ZM82.4998 288.31H75.3898V294.47H82.4998V288.31ZM100.59 310.6H113.19V313.12H84.2397V310.6H97.9598V299.34H87.9897V296.88H97.9598V289.04H100.59V296.88H110.73V299.34H100.59V310.6ZM110.78 267.54C108.88 273.64 105.52 278.63 101.37 282.49C104.9 285.46 109.1 287.7 113.8 289.04C113.18 289.6 112.46 290.55 112.06 291.28C107.3 289.77 103.04 287.36 99.4598 284.17C95.4798 287.42 90.9998 289.83 86.4698 291.39C86.1298 290.66 85.5198 289.71 84.9598 289.15C89.3298 287.81 93.7498 285.57 97.5597 282.43C94.1397 279.01 91.3998 274.81 89.5498 270.11L91.8498 269.38C93.5298 273.69 96.1598 277.61 99.4698 280.8C102.83 277.66 105.63 273.86 107.42 269.38H86.8097V266.92H108.59L109.15 266.75L110.77 267.53L110.78 267.54Z" fill="#0C445F"/>
<path d="M132.16 271.96C130.93 278.01 129.36 287.3 129.36 293.97C129.36 297.67 129.58 300.58 130.03 304.27C131.04 301.36 132.61 297.16 133.61 294.64L135.29 295.93C134 299.46 131.82 305.28 131.37 307.75C131.2 308.59 131.03 309.54 131.09 310.21C131.15 310.77 131.26 311.44 131.31 311.95L128.73 312.17C127.61 308.08 126.71 301.87 126.71 294.31C126.71 286.19 128.67 276.5 129.34 271.74C129.56 270.56 129.68 269.56 129.68 268.66L132.98 268.94C132.7 269.78 132.36 270.96 132.14 271.96H132.16ZM144.82 301.14C144.82 303.77 146.39 306.8 155.18 306.8C160.22 306.8 164.64 306.35 168.96 305.34L169.02 308.36C165.6 309.09 160.84 309.59 155.36 309.59C146.12 309.59 142.2 306.62 142.2 301.64C142.2 299.96 142.48 298.11 143.04 295.48L145.67 295.76C145.11 297.89 144.83 299.57 144.83 301.14H144.82ZM167.22 273.59V276.56C161.73 277.18 150.48 277.23 144.88 276.56V273.59C150.48 274.65 161.9 274.49 167.22 273.59Z" fill="#0C445F"/>
<path d="M184.24 300.75L186.54 298.68C190.63 301.93 195.44 306.74 199.36 311.17L196.84 313.3C193.09 308.71 188.27 303.95 184.24 300.76V300.75Z" fill="#0C445F"/>
<path d="M261.92 271.8V314.47H259.18V311.45H227.37V314.87H224.68V271.81H238.62C239.57 269.35 240.69 266.1 241.31 263.86L244.17 264.36C243.27 266.82 242.21 269.62 241.26 271.81H261.92V271.8ZM227.37 274.43V284.34H259.18V274.43H227.37ZM227.37 286.92V296.55H259.18V286.92H227.37ZM259.18 308.93V299.13H227.37V308.93H259.18Z" fill="#0C445F"/>
<path d="M321.52 274.93V314.35H318.78V310.88H281.99V314.69H279.36V274.93H299.02V263.95H301.71V274.93H321.53H321.52ZM281.98 277.62V291.45H299V277.62H281.98ZM281.98 308.25H299V294.08H281.98V308.25ZM301.69 277.62V291.45H318.77V277.62H301.69ZM318.77 308.25V294.08H301.69V308.25H318.77Z" fill="#0C445F"/>
<path d="M343.47 271.96C342.24 278.01 340.67 287.3 340.67 293.97C340.67 297.67 340.89 300.58 341.34 304.27C342.35 301.36 343.92 297.16 344.92 294.64L346.6 295.93C345.31 299.46 343.13 305.28 342.68 307.75C342.51 308.59 342.34 309.54 342.4 310.21C342.46 310.77 342.57 311.44 342.62 311.95L340.04 312.17C338.92 308.08 338.02 301.87 338.02 294.31C338.02 286.19 339.98 276.5 340.65 271.74C340.87 270.56 340.99 269.56 340.99 268.66L344.29 268.94C344.01 269.78 343.67 270.96 343.45 271.96H343.47ZM356.13 301.14C356.13 303.77 357.7 306.8 366.49 306.8C371.53 306.8 375.95 306.35 380.27 305.34L380.33 308.36C376.91 309.09 372.15 309.59 366.67 309.59C357.43 309.59 353.51 306.62 353.51 301.64C353.51 299.96 353.79 298.11 354.35 295.48L356.98 295.76C356.42 297.89 356.14 299.57 356.14 301.14H356.13ZM378.53 273.59V276.56C373.04 277.18 361.79 277.23 356.19 276.56V273.59C361.79 274.65 373.21 274.49 378.53 273.59Z" fill="#0C445F"/>
<path d="M395.55 300.75L397.85 298.68C401.94 301.93 406.75 306.74 410.67 311.17L408.15 313.3C404.4 308.71 399.58 303.95 395.55 300.76V300.75Z" fill="#0C445F"/>
<path d="M12.1998 377.93C12.1998 386.33 11.2498 397.53 4.41977 405.2C4.02977 404.64 3.07977 403.74 2.51977 403.41C7.21977 398.09 8.84977 391.2 9.40977 384.76C6.88977 386.22 4.42977 387.67 2.18977 388.96L1.00977 386.66C3.24977 385.6 6.32977 383.92 9.57977 382.07C9.63977 380.67 9.63977 379.27 9.63977 377.93V360.01H28.2898V354.35H31.0298V360.01H52.4198V362.42H12.1998V377.93ZM5.81977 376.31C5.36977 373.4 3.74977 368.92 2.00977 365.45L4.18977 364.67C6.08977 368.09 7.65977 372.51 8.10977 375.31L5.80977 376.32L5.81977 376.31ZM12.1498 402.8C15.2298 401.01 17.2498 397.76 18.2498 394.62L20.3798 395.35C19.2598 398.77 17.4098 402.18 14.1598 404.2L12.1398 402.8H12.1498ZM33.5398 362.82C38.3598 367.13 45.9698 370.55 52.5798 372.17C52.0798 372.79 51.4598 373.79 51.0698 374.41C44.6298 372.51 37.0698 368.98 32.4798 364.83C28.4998 368.64 21.5598 372.39 14.3398 374.8C14.0598 374.18 13.4998 373.29 12.9998 372.73C20.2798 370.6 27.4998 366.74 31.0898 362.82H33.5498H33.5398ZM30.7998 389.2C30.7998 390.38 30.5798 390.94 29.6798 391.22C28.7798 391.61 27.3798 391.61 25.1398 391.61C25.0298 391.05 24.6398 390.38 24.3598 389.82C26.0398 389.88 27.4998 389.88 27.9398 389.82C28.3898 389.82 28.4998 389.65 28.4998 389.26V386.4H19.3198V391.72H17.0798V375.2H30.7998V389.2ZM19.3198 377.22V379.96H28.4998V377.22H19.3198ZM28.4998 384.61V381.81H19.3198V384.61H28.4998ZM38.4698 402.31C40.2598 402.31 40.5398 401.97 40.7098 398.61C41.2698 399 42.2198 399.28 42.8898 399.45C42.6698 403.65 41.8798 404.6 38.7998 404.6H29.3898C25.2998 404.6 24.2398 403.98 24.2398 401.07V394.13H26.6498V401.02C26.6498 402.08 26.9898 402.31 29.4498 402.31H38.4698ZM40.6498 372.52H24.8598V370.5H40.6498V372.52ZM35.7798 398.11C34.3198 396.54 31.3598 394.47 28.7798 393.18L30.5198 391.72C33.0398 392.95 36.0598 394.97 37.5198 396.48L35.7798 398.1V398.11ZM37.3498 375.6V387.47H35.1098V375.6H37.3498ZM47.1498 389.04C47.1498 390.44 46.8098 391 45.8098 391.39C44.6298 391.84 42.8398 391.84 39.8198 391.84C39.7098 391.17 39.2598 390.38 38.9798 389.77C41.3898 389.83 43.3498 389.83 43.9598 389.77C44.5798 389.71 44.6898 389.55 44.6898 389.04V374.87H47.1498V389.04ZM43.5698 394.19C46.9298 396.6 50.6298 400.13 52.3598 402.65L50.2898 404.16C48.6698 401.64 44.9698 398 41.6698 395.54L43.5698 394.2V394.19Z" fill="#0C445F"/>
<path d="M70.9698 362.42C70.7498 368.92 70.2998 382.58 70.2998 391.76C70.2998 398.2 74.4998 400.55 80.3798 400.55C91.1898 400.55 97.0098 394.56 100.99 388.9L103.01 391.31C99.0898 396.57 92.1998 403.35 80.2198 403.35C72.8298 403.35 67.4498 400.44 67.4498 391.53C67.4498 382.62 68.0698 368.91 68.0698 362.41C68.0698 360.67 67.9598 359.11 67.6798 357.82H71.4298C71.1498 359.39 71.0898 360.79 70.9798 362.41L70.9698 362.42Z" fill="#0C445F"/>
<path d="M130.87 364.1C136.81 363.82 143.13 363.32 148.68 362.31V365.11C142.91 366.01 136.02 366.51 129.92 366.68C128.35 370.26 126.17 374.07 123.7 377.15C126.22 375.47 129.64 374.46 132.38 374.46C136.19 374.46 139.21 376.53 139.72 380.06C144.14 377.93 148.23 376.31 151.54 374.74C152.94 374.12 153.95 373.68 155.18 373L156.47 375.74C155.24 376.13 153.84 376.69 152.55 377.25C149.02 378.65 144.49 380.44 139.78 382.74C139.84 385.99 139.89 391.14 139.95 393.94H137.04C137.15 391.53 137.21 387.16 137.21 384.03C131.5 387.05 126.91 390.41 126.91 394.73C126.91 399.83 132.23 400.39 138.22 400.39C142.36 400.39 148.19 400 153.12 399.21L153.06 402.07C148.52 402.63 142.64 403.08 138.05 403.08C130.49 403.08 124.11 401.57 124.11 395.02C124.11 388.47 130.49 384.83 137.1 381.41L137.21 381.35C136.99 378.44 134.75 376.87 131.61 376.87C127.8 376.87 124.22 378.61 121.42 381.13C119.85 382.59 118.23 384.6 116.38 386.79L113.8 384.94C121.81 377.1 125.28 370.77 127.07 366.74C125.89 366.8 124.77 366.8 123.71 366.8C121.19 366.8 117.72 366.69 114.64 366.52V363.66C117.72 364.05 121.42 364.22 123.88 364.22C125.22 364.22 126.62 364.22 128.08 364.16C129.03 361.58 129.59 358.95 129.7 356.88L132.67 357.1C132.28 359 131.83 361.3 130.88 364.1H130.87Z" fill="#0C445F"/>
<path d="M174.37 375.02H210.99C212.17 375.02 213.62 374.91 214.91 374.8V377.88C213.79 377.77 212.22 377.71 210.99 377.71H194.81C194.7 383.87 193.91 389.3 191.56 393.61C189.49 397.25 185.29 401.11 180.7 403.47L178.01 401.45C182.55 399.49 186.63 396.24 188.82 392.55C191.4 388.35 191.79 383.37 191.9 377.71H174.37C172.63 377.71 171.29 377.77 169.78 377.88V374.8C171.24 374.91 172.64 375.02 174.37 375.02ZM181.03 361.13H201.08C202.48 361.13 204.33 361.07 205.84 360.85V363.99C204.33 363.88 202.48 363.82 201.08 363.82H181.14C179.35 363.82 177.84 363.88 176.55 363.99V360.85C178.01 361.02 179.29 361.13 181.03 361.13ZM213.12 363.54L210.94 364.6C209.88 362.3 207.86 358.94 206.35 356.82L208.48 355.87C209.88 357.89 211.9 361.19 213.13 363.54H213.12ZM219.11 361.41L216.93 362.42C215.7 359.96 213.85 356.82 212.23 354.75L214.3 353.8C215.81 355.87 218 359.29 219.12 361.42L219.11 361.41Z" fill="#0C445F"/>
<path d="M246.34 404.08L243.88 401.78C253.68 397.8 259 392.99 259 376.19V373.73H241.47V383.64C241.47 385.49 241.64 388.01 241.64 388.23H238.39C238.45 388.01 238.67 385.54 238.67 383.64V373.73H231.84C229.6 373.73 226.74 373.9 226.52 373.9V370.71C226.69 370.77 229.71 370.99 231.84 370.99H238.67V362.87C238.67 361.92 238.56 360.41 238.45 359.4H241.7C241.64 359.57 241.48 361.08 241.48 362.82V371H259.01V363.33C259.01 361.2 258.79 359.35 258.73 359.13H262.09C262.03 359.35 261.81 361.2 261.81 363.33V371H269.15C271.39 371 273.35 370.78 273.69 370.72V373.91C273.41 373.91 271.39 373.74 269.15 373.74H261.81V375.76C261.81 391.33 258.67 398.5 246.35 404.1L246.34 404.08ZM270.92 366.62L268.79 367.35C267.95 365 266.44 361.47 265.37 359.4L267.39 358.78C268.45 360.68 270.08 364.32 270.92 366.62ZM276.46 364.88L274.28 365.66C273.33 363.14 271.98 359.78 270.81 357.76L272.88 357.09C273.94 359.05 275.51 362.52 276.46 364.87V364.88Z" fill="#0C445F"/>
<path d="M307.42 371.04C313.36 367.23 318.51 362.86 322.54 358.05L324.89 360.23C320.58 364.77 315.59 368.97 309.66 372.89V397.14C309.66 398.99 309.77 401.34 309.94 402.29H306.47C306.58 401.39 306.69 398.99 306.69 397.14V374.74C300.81 378.27 292.75 381.85 284.51 384.43L283 381.69C292.52 379.06 301.26 374.91 307.42 371.05V371.04Z" fill="#0C445F"/>
<path d="M361.53 389.8C369.59 384.59 376.15 376.42 379.17 369.86L380.91 372.88C377.33 379.43 371.39 386.99 363.21 392.26C357.67 395.84 350.67 399.48 340.47 401.5L338.57 398.53C348.93 396.96 356.27 393.21 361.53 389.79V389.8ZM356.21 372.27L354.03 374.51C351.23 371.71 344.34 365.72 340.14 362.97L342.1 360.9C346.08 363.53 353.24 369.36 356.21 372.27Z" fill="#0C445F"/>
<path d="M409.75 395.68C409.75 400.22 406.05 403.91 401.52 403.91C396.99 403.91 393.29 400.21 393.29 395.68C393.29 391.15 396.99 387.45 401.52 387.45C406.05 387.45 409.75 391.15 409.75 395.68ZM407.57 395.68C407.57 392.38 404.88 389.63 401.52 389.63C398.16 389.63 395.42 392.37 395.42 395.68C395.42 398.99 398.16 401.73 401.52 401.73C404.88 401.73 407.57 399.1 407.57 395.68Z" fill="#0C445F"/>
<path d="M18.2999 214.72C20.3899 221.57 24.3899 227.19 30.0799 229.66C29.6999 229.98 29.2999 230.56 29.0399 230.97C23.2099 228.19 19.2099 222.41 16.9699 215.13C15.7499 221.16 12.6799 227.55 4.95992 231C4.72992 230.62 4.28992 230.13 3.91992 229.87C11.4599 226.65 14.4199 220.5 15.6399 214.73H4.43992V213.34H15.8699C16.3899 210.03 16.3899 206.96 16.4199 204.75H17.8699C17.8399 207.01 17.8099 210.06 17.3199 213.34H29.6799V214.73H18.3099L18.2999 214.72Z" fill="#0C445F"/>
<path d="M61.4399 228.62V229.95H35.2799V228.62H47.9299V224.18H38.3599V222.85H47.9299V219.05H49.3199V222.85H58.3399V224.18H49.3199V228.62H61.4399ZM41.1899 213.07C40.8999 215.59 39.8799 218.35 36.9499 220.41C36.7499 220.09 36.3099 219.6 36.0199 219.39C38.6899 217.59 39.5899 215.27 39.8799 213.07H36.0499V211.79H39.9699V207.27H36.9799V205.96H49.9499V207.27H46.8799V211.79H50.5399V213.07H46.8799V219.68H45.5499V213.07H41.1999H41.1899ZM41.2799 211.79H45.5399V207.27H41.2799V211.79ZM53.9899 215.97H52.6799V206.37H53.9899V215.97ZM59.4699 218.09C59.4699 219.08 59.2399 219.48 58.5099 219.71C57.7599 219.94 56.3899 219.94 54.2999 219.94C54.2399 219.56 54.0399 219.01 53.8099 218.61C55.6699 218.67 57.0899 218.67 57.5499 218.61C58.0099 218.61 58.1299 218.49 58.1299 218.09V204.8H59.4599V218.09H59.4699Z" fill="#0C445F"/>
<path d="M69.3299 228.85V230.27H68.0499V218.44C67.5299 219.14 66.9799 219.75 66.3999 220.33C66.1999 220.07 65.6999 219.52 65.4099 219.29C67.0899 217.72 68.5399 215.64 69.6999 213.23H65.8399V212.01H70.2499C70.7099 210.97 71.0899 209.89 71.4099 208.76H68.9399C68.3599 209.8 67.7199 210.76 67.0299 211.54C66.7999 211.34 66.2499 210.93 65.8999 210.79C67.3499 209.25 68.5099 207.05 69.2099 204.79L70.5399 205.11C70.2799 205.92 69.9599 206.76 69.5799 207.55H78.2799V208.77H72.7699C72.4499 209.9 72.0699 210.97 71.6699 212.02H78.9199V213.24H71.1499C70.6299 214.37 70.0499 215.44 69.4399 216.46H72.9199C73.2999 215.68 73.6999 214.69 73.9099 214.02L75.2399 214.4C74.8899 215.1 74.5099 215.82 74.1699 216.46H78.3999V217.59H74.2199V220.08H77.9899V221.18H74.2199V223.76H78.0199V224.89H74.2199V227.7H78.7199V228.86H69.3199L69.3299 228.85ZM72.9599 217.57H69.3299V220.06H72.9599V217.57ZM72.9599 221.17H69.3299V223.75H72.9599V221.17ZM72.9599 224.88H69.3299V227.69H72.9599V224.88ZM90.1299 229.41C90.7999 229.41 90.8799 228.97 90.9399 225.35C91.2599 225.61 91.7799 225.81 92.1599 225.93C92.0399 229.76 91.6999 230.69 90.2699 230.69H88.0099C86.4999 230.69 86.1199 230.28 86.1199 228.75V222.02H83.3599C82.8399 226.28 81.4199 229.36 77.3299 231.07C77.1799 230.78 76.7799 230.32 76.4899 230.08C80.3499 228.57 81.5999 225.76 82.0599 222.02H79.7099V206.04H90.6699V222.02H87.4199V228.72C87.4199 229.33 87.5099 229.42 88.1199 229.42H90.1199L90.1299 229.41ZM80.9899 210.9H89.3399V207.3H80.9899V210.9ZM80.9899 215.8H89.3399V212.14H80.9899V215.8ZM80.9899 220.73H89.3399V217.02H80.9899V220.73Z" fill="#0C445F"/>
<path d="M112.57 224.29C115.24 226.58 119.76 228.5 123.77 229.34C123.45 229.63 123.07 230.18 122.87 230.53C118.61 229.46 113.67 227.08 110.98 224.32V230.96H109.62V224.43C106.81 227.04 101.85 229.36 97.8999 230.43C97.6699 230.08 97.2899 229.59 96.9699 229.33C100.77 228.4 105.27 226.46 108.05 224.28H97.5799V223.06H109.62V220.51H101.82V213.64H97.5899V212.39H101.82V210.04H103.18V212.39H108.6V209.75H109.93V212.39H116.89V209.98H118.28V212.39H123.18V213.64H118.28V217.27H108.59V213.64H103.17V219.33H122.29V220.52H110.98V223.07H123.25V224.29H112.58H112.57ZM104.71 208.05H97.5699V206.86H104.71V204.71H106.07V206.86H114.51V204.71H115.9V206.86H123.18V208.05H115.9V210.66H114.51V208.05H106.07V210.54H104.71V208.05ZM109.93 213.65V216.2H116.89V213.65H109.93Z" fill="#0C445F"/>
<path d="M134.65 211.15H138.22V212.46H134.65V214.64C135.46 215.71 137.7 219.08 138.22 219.89L137.35 220.96C136.89 220 135.61 217.89 134.65 216.38V230.94H133.32V215.91C132.25 219.51 130.74 223.19 129.26 225.31C129.06 224.96 128.68 224.41 128.39 224.15C130.28 221.63 132.22 216.7 133.12 212.46H128.97V211.15H133.32V204.71H134.65V211.15ZM146.11 212.22C146.23 211.38 146.34 210.33 146.43 209.26H138.8V208.01H146.55C146.64 206.85 146.7 205.72 146.75 204.7L148.17 204.82C148.11 205.81 148.02 206.91 147.91 208.01H155.02V209.26H147.8C147.68 210.3 147.57 211.35 147.45 212.22H153.37V225.19H143.04V212.22H146.11ZM155.1 229.22H140.39V230.99H139.11V214.02H140.39V227.94H155.1V229.22ZM152.05 213.38H144.3V216.14H152.05V213.38ZM152.05 217.27H144.3V220.05H152.05V217.27ZM152.05 221.19H144.3V224.03H152.05V221.19Z" fill="#0C445F"/>
<path d="M170.05 218.96C168.74 219.4 167.41 219.83 166.11 220.24V231H164.78V220.67L159.7 222.29L159.26 220.96C160.77 220.52 162.65 219.97 164.77 219.31V212.2H161.7C161.29 213.97 160.86 215.59 160.28 216.9C160.02 216.73 159.47 216.41 159.12 216.26C160.28 213.77 160.95 210.05 161.32 206.4L162.63 206.63C162.46 208.05 162.25 209.5 161.96 210.86H164.77V204.74H166.1V210.86H169.44V212.19H166.1V218.86L169.84 217.7L170.04 218.95L170.05 218.96ZM185.34 209.79C185.34 209.79 185.31 210.43 185.28 210.6C184.58 223.94 183.92 228.35 182.7 229.77C182.15 230.41 181.66 230.61 180.79 230.67C180.06 230.73 178.76 230.7 177.48 230.58C177.45 230.14 177.33 229.59 177.1 229.22C178.55 229.34 179.83 229.34 180.38 229.34C180.87 229.34 181.19 229.28 181.51 228.9C182.53 227.8 183.25 223.27 183.92 211.12H181.77C180.26 218.95 176.98 226.84 172.08 230.61C171.76 230.29 171.27 229.94 170.86 229.74C175.67 226.23 178.98 218.72 180.49 211.12H177.5C176.11 216.25 173.32 221.82 170.04 224.58C169.78 224.32 169.31 223.97 168.88 223.77C172.13 221.25 174.86 216.03 176.22 211.12H173.12C172.13 213.32 170.97 215.3 169.64 216.83C169.41 216.6 168.83 216.19 168.51 215.99C171.03 213.32 172.77 209.17 173.82 204.74L175.15 204.97C174.74 206.65 174.25 208.28 173.67 209.79H185.33H185.34Z" fill="#0C445F"/>
<path d="M200.13 209.76C203.2 209.61 206.48 209.35 209.35 208.83V210.28C206.36 210.74 202.79 211.01 199.63 211.09C198.82 212.95 197.69 214.92 196.41 216.51C197.72 215.64 199.48 215.12 200.91 215.12C202.88 215.12 204.45 216.19 204.71 218.02C207 216.92 209.12 216.08 210.83 215.26C211.56 214.94 212.08 214.71 212.72 214.36L213.39 215.78C212.75 215.98 212.03 216.27 211.36 216.56C209.53 217.29 207.18 218.21 204.75 219.4C204.78 221.08 204.81 223.75 204.84 225.2H203.33C203.39 223.95 203.42 221.69 203.42 220.07C200.46 221.64 198.08 223.38 198.08 225.61C198.08 228.25 200.84 228.54 203.94 228.54C206.09 228.54 209.1 228.34 211.66 227.93L211.63 229.41C209.28 229.7 206.23 229.93 203.86 229.93C199.94 229.93 196.64 229.15 196.64 225.75C196.64 222.35 199.95 220.47 203.37 218.7L203.43 218.67C203.31 217.16 202.15 216.35 200.53 216.35C198.56 216.35 196.7 217.25 195.25 218.55C194.44 219.3 193.6 220.35 192.64 221.48L191.31 220.52C195.46 216.46 197.26 213.18 198.18 211.09C197.57 211.12 196.99 211.12 196.44 211.12C195.13 211.12 193.34 211.06 191.74 210.97V209.49C193.34 209.69 195.25 209.78 196.53 209.78C197.23 209.78 197.95 209.78 198.71 209.75C199.2 208.42 199.49 207.05 199.55 205.98L201.09 206.1C200.89 207.09 200.65 208.28 200.16 209.73L200.13 209.76Z" fill="#0C445F"/>
<path d="M231.11 216.52C231.26 215.91 231.4 215.19 231.52 214.46H219.83V213.27H231.72C231.81 212.63 231.89 211.99 231.95 211.41H221.19V205.99H243.38V211.41H233.4C233.31 211.99 233.2 212.63 233.11 213.27H244.6V214.46H232.88C232.76 215.21 232.62 215.91 232.5 216.52H242.01V226.53H226.38V216.52H231.11ZM245.41 229.66H222.9V230.99H221.51V216.98H222.9V228.44H245.41V229.66ZM227.98 207.12H222.56V210.28H227.98V207.12ZM240.66 217.56H227.72V219.47H240.66V217.56ZM240.66 220.52H227.72V222.46H240.66V220.52ZM240.66 223.51H227.72V225.48H240.66V223.51ZM229.32 210.28H234.95V207.12H229.32V210.28ZM236.25 210.28H242.02V207.12H236.25V210.28Z" fill="#0C445F"/>
<path d="M260.74 206.31L262.36 206.05C262.48 207.15 262.8 208.46 263.14 209.73C265.23 209.47 267.43 209 269.23 208.4L269.46 209.79C267.78 210.28 265.57 210.75 263.51 210.98C263.77 211.88 264.06 212.69 264.29 213.36C264.52 214 264.78 214.67 265.07 215.36C267.42 215.04 269.65 214.52 270.99 214.05L271.22 215.47C269.83 215.88 267.83 216.28 265.62 216.6C266.26 218.05 267.04 219.47 267.94 220.81C268.2 221.19 268.55 221.56 268.9 221.91L268.03 223.13C266.41 222.67 263.94 222.43 262.03 222.23L262.15 221.07C263.89 221.24 265.95 221.48 266.91 221.62C265.89 220.14 265.02 218.43 264.27 216.78C260.79 217.16 255.97 217.22 251.45 216.87L251.36 215.42C255.77 215.91 260.44 215.86 263.75 215.51C263.49 214.9 263.26 214.32 263.05 213.74C262.7 212.84 262.41 211.97 262.15 211.13C259.34 211.36 255.65 211.3 252.06 210.98L251.94 209.56C255.45 209.97 258.99 210.05 261.8 209.88C261.65 209.39 261.51 208.92 261.39 208.49C261.19 207.74 260.95 206.95 260.72 206.31H260.74ZM253.6 224.7C253.6 227.25 255.8 228.65 260.76 228.65C263.46 228.65 265.37 228.48 267.46 228.04L267.43 229.55C265.4 229.87 263.34 230.04 260.82 230.04C255.19 230.04 252.23 228.36 252.23 224.88C252.23 223.37 252.67 222.27 253.3 221.02L254.78 221.4C254.08 222.42 253.59 223.4 253.59 224.71L253.6 224.7Z" fill="#0C445F"/>
<path d="M286.72 208.28C286.55 209.09 286.37 210.05 286.17 211.09C288.2 210.86 290.29 210.48 292.17 209.99V211.47C290.17 211.91 287.96 212.25 285.88 212.46C285.62 213.77 285.3 215.13 284.92 216.43C283.88 220.61 281.9 226.64 280.42 229.63L278.77 229.08C280.54 226.03 282.48 220.26 283.56 216.14C283.85 215.1 284.14 213.82 284.43 212.6C283.27 212.69 282.23 212.75 281.27 212.75C280.08 212.75 279.07 212.72 277.99 212.63L277.93 211.18C279.24 211.35 280.34 211.38 281.32 211.38C282.3 211.38 283.47 211.32 284.71 211.23C284.97 209.92 285.17 208.79 285.26 208.16C285.38 207.52 285.41 206.65 285.38 206.1L287.18 206.25C287.01 206.8 286.83 207.76 286.72 208.28ZM290.11 224.76C290.11 226.18 290.84 227.72 295.56 227.72C297.45 227.72 299.42 227.52 301.04 227.17L300.98 228.71C299.44 228.94 297.53 229.12 295.53 229.12C291.15 229.12 288.74 227.9 288.74 225.06C288.74 224.07 288.89 223.17 289.15 221.9L290.54 222.05C290.25 223.07 290.1 223.96 290.1 224.78L290.11 224.76ZM295.65 214.9C297.36 214.9 299.13 214.96 300.64 215.13L300.58 216.58C299.07 216.38 297.42 216.26 295.74 216.26C294.06 216.26 292.29 216.38 290.52 216.55V215.13C292 214.98 293.83 214.9 295.65 214.9Z" fill="#0C445F"/>
<path d="M309.49 211.3C309.46 213.07 309.49 216.03 309.72 218.58C310.24 223.83 311.95 227.25 314.19 227.25C315.73 227.25 317.21 224.49 318.11 221.25L319.27 222.44C317.65 227.25 315.91 228.91 314.17 228.91C311.68 228.91 309.12 226.27 308.34 218.9C308.08 216.49 308.02 212.87 308.02 211.24C308.02 210.63 308.02 209.41 307.87 208.86L309.7 208.92C309.61 209.41 309.53 210.6 309.5 211.3H309.49ZM330.14 223.89L328.69 224.5C328.14 218.96 326.25 213.62 323.73 210.34L325.15 209.82C327.64 213.21 329.65 218.73 330.14 223.89Z" fill="#0C445F"/>
<path d="M345.77 215.33C345.77 215.33 345.77 215.88 345.74 216.11C345.51 225.97 345.33 229.16 344.55 230.12C344.14 230.67 343.71 230.82 342.95 230.87C342.28 230.9 341.04 230.9 339.79 230.81C339.73 230.43 339.64 229.85 339.38 229.5C340.74 229.59 341.99 229.62 342.45 229.62C342.89 229.62 343.15 229.56 343.38 229.27C343.9 228.57 344.16 225.44 344.37 216.62H339.53V217.14C339.53 221.98 338.98 226.89 335.01 231.01C334.78 230.75 334.31 230.37 333.97 230.11C337.74 226.28 338.21 221.44 338.21 217.11V210.87H334.41V209.54H340.12V204.78H341.51V209.54H347.28V210.87H339.53V215.31H345.77V215.33ZM358.59 211.53C357.72 216.49 356.44 220.46 354.41 223.65C356.06 226.38 358.18 228.52 360.85 229.8C360.5 230.09 360.04 230.58 359.83 230.96C357.25 229.6 355.19 227.51 353.54 224.87C351.63 227.45 349.16 229.45 345.88 231.05C345.71 230.76 345.3 230.12 345.01 229.8C348.4 228.29 350.93 226.26 352.81 223.56C351.39 220.89 350.34 217.76 349.56 214.31C348.92 215.88 348.2 217.27 347.41 218.46C347.15 218.23 346.54 217.82 346.16 217.59C348.39 214.46 349.9 209.61 350.83 204.68L352.25 204.91C351.9 206.71 351.47 208.51 350.97 210.19H360.69V211.52H358.57L358.59 211.53ZM350.58 211.53C350.52 211.73 350.43 211.91 350.38 212.11C351.08 215.88 352.15 219.36 353.63 222.29C355.34 219.39 356.44 215.85 357.2 211.53H350.59H350.58Z" fill="#0C445F"/>
<path d="M392.37 229.05C392.14 229.34 391.88 229.92 391.79 230.33H383.44C376.68 230.33 371.9 229.55 369.14 225.28C368.73 227.54 368.01 229.63 366.85 231.02C366.65 230.76 366.21 230.35 365.86 230.15C367.69 228 368.3 223.83 368.41 220.23H369.72C369.66 221.36 369.55 222.52 369.4 223.68C370.07 224.99 370.94 225.97 371.98 226.75V218.37H366V217.18H379.05V218.37H373.25V221.94H378.56V223.13H373.25V227.51C375.86 228.79 379.34 229.05 383.43 229.05H392.36H392.37ZM377.11 214.75H367.94V205.99H377.11V214.75ZM375.78 207.12H369.22V209.79H375.78V207.12ZM375.78 210.89H369.22V213.62H375.78V210.89ZM383.76 223.68C382.48 225.25 380.37 226.9 378.51 227.94C378.36 227.71 377.84 227.19 377.55 226.98C379.41 226.08 381.35 224.72 382.54 223.3L383.76 223.68ZM383.7 210.08C383.96 209.27 384.25 208.28 384.45 207.44H378.85V206.25H391.93V207.44H385.81C385.52 208.34 385.23 209.3 384.91 210.08H390.6V222.61H380.07V210.08H383.7ZM389.27 211.24H381.38V213.85H389.27V211.24ZM389.27 215.01H381.38V217.65H389.27V215.01ZM389.27 218.75H381.38V221.45H389.27V218.75ZM387.5 223.33C389.21 224.35 391.18 226 392.2 227.1L391.16 227.85C390.2 226.66 388.2 225.01 386.55 223.93L387.51 223.32L387.5 223.33Z" fill="#0C445F"/>
<path d="M402.98 227.43C402.98 226.47 403.68 225.86 404.43 225.86C405.18 225.86 405.88 226.47 405.88 227.43C405.88 228.39 405.18 228.94 404.43 228.94C403.68 228.94 402.98 228.39 402.98 227.43ZM403.33 210.08L403.3 207.18H405.56L405.53 210.08L405.07 222.15H403.79L403.33 210.08Z" fill="#0C445F"/>
<path d="M412.33 241.84H2.49023V244.02H412.33V241.84Z" fill="#0C445F"/>
<path d="M412.33 325.96H2.49023V328.14H412.33V325.96Z" fill="#0C445F"/>
<path d="M412.33 414.46H2.49023V416.64H412.33V414.46Z" fill="#0C445F"/>
<path d="M172.05 52.4102V83.0902H169.16V80.8302H150.81V83.2402H148.04V52.4202H172.05V52.4102ZM150.81 55.1102V65.1002H169.16V55.1102H150.81ZM169.16 78.1302V67.8102H150.81V78.1302H169.16Z" fill="#0C445F"/>
<path d="M199.43 60.3701C202.5 66.7001 207.83 72.5801 213.64 75.3901C212.97 75.9501 212.01 77.0201 211.6 77.8001C206.01 74.7301 201.05 69.1001 197.72 62.7001V74.0201H204.75V76.7601H197.72V83.6401H194.87V76.7601H187.65V74.0201H194.87V62.7001C191.47 69.1001 186.47 74.6901 181.03 77.8301C180.62 77.1601 179.7 76.1301 179.07 75.6101C184.69 72.6901 190.06 66.6901 193.17 60.3601H180.33V57.6201H194.87V49.8901H197.72V57.6201H212.37V60.3601H199.42L199.43 60.3701Z" fill="#0C445F"/>
<path d="M230.44 73.8001C229.63 72.6501 227.74 70.3601 226.26 68.6601V83.6501H223.56V69.9601C221.97 71.7401 220.3 73.2901 218.71 74.5101C218.41 73.8401 217.64 72.5901 217.19 72.1401C221.22 69.2501 225.59 64.2201 228.03 59.1501H218.22V56.6301H223.55V49.9001H226.25V56.6301H229.4L229.88 56.4801L231.43 57.5501C230.25 60.5501 228.58 63.4301 226.66 66.1001L228.03 67.4701C228.99 66.3201 230.14 64.6601 230.81 63.5101L232.62 64.9901C231.47 66.2901 230.29 67.7301 229.29 68.7601C230.47 69.9801 231.66 71.2001 232.1 71.7201L230.43 73.7901L230.44 73.8001ZM250.72 54.7801C250.28 73.5401 249.91 79.7601 248.5 81.6101C247.72 82.7601 246.91 83.0901 245.69 83.2401C244.47 83.3901 242.43 83.3101 240.44 83.2401C240.4 82.4301 240.03 81.2401 239.55 80.4301C241.73 80.6201 243.73 80.6201 244.55 80.6201C245.22 80.6601 245.59 80.5101 245.99 79.9901C247.1 78.6901 247.58 72.5501 247.95 55.8601H240.48C240.18 66.2901 239.3 77.6901 230.82 83.6901C230.34 83.0601 229.45 82.1001 228.71 81.6201C236.89 76.2201 237.48 65.5201 237.66 55.8701H231.41V53.2801H250.73V54.8001L250.72 54.7801Z" fill="#0C445F"/>
<path d="M261.6 78.5701C261.6 77.0901 262.67 76.0901 263.97 76.0901C265.27 76.0901 266.34 77.0901 266.34 78.5701C266.34 80.0501 265.27 81.0101 263.97 81.0101C262.67 81.0101 261.6 80.0501 261.6 78.5701ZM262.01 57.5201L261.94 53.1501H266.01L265.94 57.5201L265.2 71.8801H262.76L262.02 57.5201H262.01Z" fill="#0C445F"/>
<path d="M161.39 111.75C161.39 112.79 161.09 113.31 160.35 113.55C159.59 113.81 158.27 113.83 156.13 113.83C156.03 113.41 155.75 112.71 155.51 112.29C157.17 112.35 158.77 112.33 159.23 112.33C159.69 112.31 159.85 112.17 159.85 111.73V107.73H150.25C149.75 109.99 148.75 112.25 146.81 113.95C146.61 113.63 146.01 113.09 145.71 112.87C148.89 110.07 149.21 106.01 149.21 102.83V96.7102H161.39V111.75ZM159.85 106.27V102.91H150.71C150.71 103.95 150.65 105.09 150.49 106.27H159.85ZM150.71 98.1702V101.49H159.85V98.1702H150.71Z" fill="#0C445F"/>
<path d="M180.84 101.18C179.9 103.8 178.18 106.88 176.48 109.12C177.62 109.9 178.64 110.68 179.32 111.4L178.26 112.76C176.74 111.1 173.44 108.9 170.62 107.54L171.58 106.34C172.72 106.88 173.96 107.54 175.16 108.26C176.5 106.5 177.82 104.12 178.66 102.14H171.88C170.7 104.48 169.24 106.68 167.52 108.36C167.18 108.08 166.54 107.68 166.12 107.48C169.1 104.72 171.28 100.3 172.4 96.6001L174.06 96.9801C173.66 98.1801 173.16 99.4201 172.6 100.64H179.42L179.72 100.58L180.84 101.18Z" fill="#0C445F"/>
<path d="M188 108.85H184.4V107.79H188V106.33H184.4V105.29H187.54L183.9 98.1301H185.82L187.56 101.97C188 102.95 188.42 103.93 188.9 104.99H189C189.48 103.93 189.9 102.95 190.36 101.97L192.12 98.1301H193.96L190.28 105.29H193.46V106.33H189.82V107.79H193.46V108.85H189.82V112.39H188V108.85Z" fill="#0C445F"/>
<path d="M195.83 110.65L196.75 109.45C197.61 110.35 198.73 111.13 200.39 111.13C202.05 111.13 203.37 110.11 203.37 108.51C203.37 106.81 202.19 105.69 198.81 105.69V104.29C201.83 104.29 202.87 103.11 202.87 101.61C202.87 100.23 201.91 99.3501 200.39 99.3501C199.21 99.3501 198.17 99.9501 197.35 100.79L196.37 99.6501C197.47 98.6101 198.77 97.8701 200.47 97.8701C202.93 97.8701 204.73 99.1701 204.73 101.49C204.73 103.21 203.67 104.31 202.13 104.87V104.95C203.85 105.37 205.23 106.63 205.23 108.59C205.23 111.13 203.13 112.65 200.53 112.65C198.23 112.65 196.79 111.69 195.83 110.65Z" fill="#0C445F"/>
<path d="M207.76 115.11C209.02 114.55 209.76 113.57 209.76 112.39C209.68 112.41 209.62 112.41 209.54 112.41C208.84 112.41 208.2 111.97 208.2 111.13C208.2 110.35 208.84 109.85 209.58 109.85C210.54 109.85 211.12 110.67 211.12 112.01C211.12 113.93 210 115.43 208.2 116.19L207.76 115.11Z" fill="#0C445F"/>
<path d="M214.13 111.15L215.15 110.01C215.71 110.71 216.59 111.13 217.49 111.13C219.49 111.13 221.19 109.57 221.27 105.01C220.35 106.15 219.09 106.85 217.93 106.85C215.45 106.85 213.85 105.35 213.85 102.43C213.85 99.7101 215.77 97.8701 218.05 97.8701C220.87 97.8701 222.97 100.15 222.97 104.73C222.97 110.45 220.39 112.65 217.55 112.65C216.03 112.65 214.91 112.01 214.13 111.15ZM218.23 105.49C219.15 105.49 220.31 104.91 221.23 103.55C220.99 100.79 219.87 99.3101 218.05 99.3101C216.65 99.3101 215.57 100.55 215.57 102.43C215.57 104.31 216.45 105.49 218.23 105.49Z" fill="#0C445F"/>
<path d="M225.7 108.75C225.7 106.89 227.06 105.61 228.4 104.89V104.81C227.34 104.09 226.42 103.03 226.42 101.51C226.42 99.3301 228.16 97.8701 230.44 97.8701C232.94 97.8701 234.46 99.4301 234.46 101.65C234.46 103.15 233.36 104.43 232.5 105.09V105.19C233.76 105.95 234.98 106.95 234.98 108.85C234.98 110.99 233.14 112.65 230.38 112.65C227.62 112.65 225.7 111.01 225.7 108.75ZM233.24 108.81C233.24 106.95 231.44 106.29 229.36 105.47C228.2 106.21 227.36 107.27 227.36 108.59C227.36 110.15 228.66 111.29 230.42 111.29C232.18 111.29 233.24 110.27 233.24 108.81ZM232.9 101.75C232.9 100.35 232 99.2301 230.42 99.2301C229.06 99.2301 228.08 100.13 228.08 101.51C228.08 103.23 229.66 103.95 231.38 104.63C232.36 103.75 232.9 102.81 232.9 101.75Z" fill="#0C445F"/>
<path d="M237.7 105.21C237.7 100.43 239.44 97.8701 242.28 97.8701C245.12 97.8701 246.84 100.45 246.84 105.21C246.84 109.97 245.12 112.65 242.28 112.65C239.44 112.65 237.7 109.99 237.7 105.21ZM245.06 105.21C245.06 101.03 243.94 99.3301 242.28 99.3301C240.62 99.3301 239.48 101.03 239.48 105.21C239.48 109.39 240.6 111.19 242.28 111.19C243.96 111.19 245.06 109.39 245.06 105.21Z" fill="#0C445F"/>
<path d="M254.84 103.71C253.26 103.71 251.88 104.77 251.06 106.35L249.64 105.59C250.9 103.31 252.74 102.09 254.86 102.09C256.68 102.09 257.96 102.83 259.36 104.23C260.44 105.25 261.32 105.87 262.76 105.87C264.34 105.87 265.72 104.81 266.54 103.23L267.96 103.99C266.7 106.27 264.86 107.49 262.74 107.49C260.92 107.49 259.64 106.75 258.24 105.35C257.16 104.33 256.3 103.71 254.84 103.71Z" fill="#0C445F"/>
<path d="M199.39 168.77C199.39 168.77 199.34 168.77 199.32 168.77C195.79 168.56 192.25 168.12 188.8 167.47C188.18 167.35 187.76 166.75 187.88 166.13C188 165.51 188.6 165.09 189.22 165.21C192.58 165.84 196.03 166.27 199.46 166.47C200.09 166.51 200.58 167.05 200.54 167.69C200.5 168.3 200 168.77 199.39 168.77ZM209.85 168.75C209.25 168.75 208.74 168.28 208.7 167.67C208.66 167.04 209.14 166.49 209.78 166.45C213.21 166.23 216.65 165.8 220.01 165.15C220.64 165.03 221.24 165.44 221.36 166.06C221.48 166.68 221.07 167.29 220.45 167.41C217 168.07 213.46 168.52 209.93 168.74C209.91 168.74 209.88 168.74 209.86 168.74L209.85 168.75ZM178.87 164.91C178.75 164.91 178.63 164.89 178.52 164.85C175.16 163.77 171.84 162.46 168.65 160.96C168.07 160.69 167.83 160.01 168.1 159.43C168.37 158.86 169.05 158.61 169.63 158.88C172.74 160.34 175.97 161.61 179.23 162.66C179.83 162.86 180.17 163.5 179.97 164.11C179.81 164.6 179.36 164.91 178.88 164.91H178.87ZM230.35 164.83C229.87 164.83 229.41 164.52 229.26 164.04C229.06 163.44 229.39 162.79 230 162.59C233.26 161.53 236.48 160.24 239.58 158.78C240.16 158.51 240.84 158.75 241.11 159.33C241.38 159.9 241.14 160.59 240.56 160.86C237.37 162.37 234.06 163.69 230.71 164.78C230.59 164.82 230.47 164.84 230.35 164.84V164.83ZM159.96 156.04C159.75 156.04 159.54 155.98 159.35 155.86C156.37 153.97 153.48 151.88 150.76 149.63C150.27 149.23 150.2 148.5 150.61 148.01C151.02 147.52 151.74 147.45 152.23 147.85C154.88 150.03 157.69 152.07 160.58 153.91C161.12 154.25 161.28 154.96 160.94 155.5C160.72 155.85 160.35 156.03 159.97 156.03L159.96 156.04ZM249.22 155.9C248.84 155.9 248.47 155.71 248.25 155.37C247.91 154.83 248.07 154.12 248.6 153.78C251.49 151.94 254.29 149.89 256.93 147.7C257.42 147.29 258.14 147.36 258.55 147.85C258.96 148.34 258.89 149.06 258.4 149.47C255.69 151.72 252.81 153.82 249.84 155.72C249.65 155.84 249.43 155.9 249.22 155.9ZM143.85 142.75C143.54 142.75 143.24 142.63 143.01 142.39C140.59 139.82 138.31 137.08 136.23 134.24C135.86 133.73 135.97 133.01 136.48 132.63C136.99 132.25 137.71 132.37 138.09 132.88C140.11 135.65 142.33 138.32 144.68 140.81C145.12 141.27 145.09 142 144.63 142.44C144.41 142.65 144.12 142.75 143.84 142.75H143.85ZM265.28 142.57C265 142.57 264.72 142.47 264.49 142.26C264.03 141.83 264 141.1 264.44 140.63C266.79 138.13 269 135.45 271.01 132.68C271.38 132.17 272.1 132.05 272.62 132.42C273.13 132.79 273.25 133.51 272.88 134.03C270.81 136.88 268.54 139.63 266.13 142.21C265.9 142.45 265.6 142.57 265.29 142.57H265.28ZM131.54 125.9C131.14 125.9 130.74 125.69 130.53 125.31C128.82 122.22 127.3 119 125.99 115.73C125.75 115.14 126.04 114.47 126.63 114.24C127.22 114 127.89 114.29 128.12 114.88C129.39 118.06 130.87 121.19 132.53 124.19C132.84 124.75 132.64 125.45 132.08 125.75C131.9 125.85 131.71 125.89 131.52 125.89L131.54 125.9ZM277.55 125.67C277.36 125.67 277.17 125.62 277 125.53C276.44 125.22 276.24 124.52 276.55 123.97C278.2 120.96 279.68 117.82 280.94 114.63C281.17 114.04 281.84 113.75 282.43 113.98C283.02 114.21 283.31 114.88 283.08 115.47C281.79 118.75 280.27 121.98 278.57 125.07C278.36 125.45 277.97 125.67 277.56 125.67H277.55ZM123.82 106.51C123.31 106.51 122.84 106.17 122.71 105.65C121.83 102.24 121.16 98.7401 120.71 95.2401C120.63 94.6101 121.08 94.0301 121.71 93.9501C122.34 93.8701 122.92 94.3201 123 94.9501C123.43 98.3601 124.09 101.77 124.94 105.08C125.1 105.7 124.73 106.32 124.11 106.48C124.01 106.5 123.92 106.52 123.82 106.52V106.51ZM285.23 106.24C285.14 106.24 285.04 106.23 284.94 106.2C284.32 106.04 283.95 105.42 284.11 104.8C284.95 101.48 285.6 98.0701 286.02 94.6601C286.1 94.0301 286.67 93.5801 287.3 93.6601C287.93 93.7401 288.38 94.3101 288.3 94.9401C287.87 98.4501 287.21 101.95 286.34 105.36C286.21 105.88 285.74 106.23 285.23 106.23V106.24ZM121.18 85.8001C120.54 85.8001 120.03 85.2901 120.03 84.6501V84.4701C120.03 80.9301 120.25 77.3701 120.69 73.8801C120.77 73.2501 121.35 72.8001 121.97 72.8801C122.6 72.9601 123.05 73.5301 122.97 74.1601C122.55 77.5501 122.33 81.0201 122.33 84.4601V84.6501C122.33 85.2901 121.82 85.8001 121.18 85.8001ZM287.8 85.5201C287.17 85.5201 286.65 85.0101 286.65 84.3701C286.65 80.9301 286.43 77.4701 286 74.0701C285.92 73.4401 286.37 72.8601 287 72.7801C287.63 72.7001 288.21 73.1501 288.29 73.7801C288.73 77.2701 288.95 80.8301 288.96 84.3601C288.96 85.0001 288.45 85.5101 287.81 85.5101L287.8 85.5201ZM123.78 64.9001C123.69 64.9001 123.59 64.8901 123.49 64.8601C122.87 64.7001 122.5 64.0801 122.66 63.4601C123.54 60.0401 124.64 56.6501 125.94 53.3701C126.17 52.7801 126.84 52.4901 127.43 52.7201C128.02 52.9501 128.31 53.6201 128.08 54.2101C126.82 57.4001 125.74 60.7001 124.89 64.0301C124.76 64.5501 124.29 64.9001 123.78 64.9001ZM285.18 64.8101C284.67 64.8101 284.2 64.4601 284.07 63.9501C283.22 60.6301 282.14 57.3301 280.88 54.1401C280.65 53.5501 280.93 52.8801 281.52 52.6501C282.11 52.4201 282.78 52.7001 283.01 53.2901C284.31 56.5701 285.42 59.9601 286.29 63.3701C286.45 63.9901 286.08 64.6101 285.46 64.7701C285.36 64.7901 285.27 64.8101 285.17 64.8101H285.18ZM131.47 45.4801C131.28 45.4801 131.09 45.4301 130.92 45.3401C130.36 45.0301 130.16 44.3301 130.47 43.7801C132.17 40.7001 134.08 37.6801 136.16 34.8301C136.53 34.3201 137.25 34.2001 137.77 34.5801C138.28 34.9501 138.4 35.6701 138.02 36.1901C136 38.9701 134.14 41.9001 132.48 44.9001C132.27 45.2801 131.88 45.5001 131.47 45.5001V45.4801ZM277.48 45.4101C277.07 45.4101 276.68 45.2001 276.47 44.8201C274.82 41.8201 272.95 38.9001 270.93 36.1201C270.56 35.6101 270.67 34.8901 271.18 34.5101C271.69 34.1301 272.41 34.2501 272.79 34.7601C274.87 37.6101 276.78 40.6201 278.48 43.7001C278.79 44.2601 278.58 44.9601 278.03 45.2601C277.85 45.3601 277.66 45.4001 277.47 45.4001L277.48 45.4101ZM143.76 28.5901C143.48 28.5901 143.19 28.4901 142.97 28.2801C142.51 27.8401 142.48 27.1201 142.92 26.6501C145.33 24.0801 147.93 21.6401 150.65 19.3901C151.14 18.9901 151.86 19.0501 152.27 19.5401C152.68 20.0301 152.61 20.7501 152.12 21.1601C149.48 23.3501 146.95 25.7201 144.6 28.2201C144.37 28.4601 144.07 28.5801 143.76 28.5801V28.5901ZM265.19 28.5401C264.88 28.5401 264.58 28.4201 264.35 28.1801C262 25.6801 259.47 23.3101 256.83 21.1201C256.34 20.7201 256.27 19.9901 256.68 19.5001C257.08 19.0101 257.81 18.9401 258.3 19.3501C261.02 21.6001 263.62 24.0401 266.03 26.6101C266.47 27.0701 266.44 27.8001 265.98 28.2401C265.76 28.4501 265.47 28.5501 265.19 28.5501V28.5401ZM159.84 15.2701C159.46 15.2701 159.09 15.0801 158.87 14.7401C158.53 14.2001 158.69 13.4901 159.22 13.1501C162.2 11.2601 165.32 9.54012 168.5 8.03012C169.08 7.76012 169.76 8.01012 170.03 8.58012C170.3 9.15012 170.05 9.84012 169.48 10.1101C166.38 11.5701 163.35 13.2501 160.45 15.0901C160.26 15.2101 160.04 15.2701 159.83 15.2701H159.84ZM249.1 15.2301C248.89 15.2301 248.68 15.1701 248.48 15.0501C245.58 13.2101 242.54 11.5401 239.44 10.0801C238.86 9.81012 238.62 9.12012 238.89 8.55012C239.16 7.98012 239.85 7.73012 240.42 8.00012C243.61 9.50012 246.73 11.2201 249.72 13.1101C250.26 13.4501 250.42 14.1601 250.07 14.7001C249.85 15.0501 249.48 15.2301 249.1 15.2301ZM178.72 6.37012C178.23 6.37012 177.78 6.06012 177.63 5.57012C177.43 4.97012 177.76 4.32012 178.37 4.12012C181.72 3.03012 185.18 2.14012 188.64 1.49012C189.26 1.37012 189.87 1.78012 189.99 2.41012C190.11 3.03012 189.7 3.64012 189.07 3.76012C185.7 4.40012 182.34 5.26012 179.08 6.32012C178.96 6.36012 178.84 6.38012 178.72 6.38012V6.37012ZM230.2 6.34012C230.08 6.34012 229.96 6.32012 229.85 6.28012C226.59 5.22012 223.23 4.37012 219.86 3.73012C219.24 3.61012 218.83 3.01012 218.94 2.39012C219.06 1.77012 219.66 1.36012 220.28 1.47012C223.74 2.13012 227.2 3.01012 230.55 4.09012C231.15 4.29012 231.49 4.93012 231.29 5.54012C231.13 6.03012 230.68 6.34012 230.2 6.34012ZM199.23 2.46012C198.63 2.46012 198.12 1.99012 198.08 1.38012C198.04 0.750117 198.52 0.200117 199.16 0.160117C202.66 -0.0598828 206.25 -0.0598828 209.76 0.160117C210.39 0.200117 210.88 0.740117 210.84 1.38012C210.8 2.01012 210.27 2.50012 209.62 2.46012C206.21 2.25012 202.71 2.25012 199.3 2.46012C199.28 2.46012 199.25 2.46012 199.23 2.46012Z" fill="#0C445F"/>
<path d="M56.19 458.52C55.87 460.06 55.26 464.01 55.26 466.04C55.26 466.72 55.3 467.37 55.41 468.07C55.68 467.29 56.09 466.34 56.4 465.64L57.35 466.38C56.84 467.82 56.19 469.76 55.98 470.73C55.92 471 55.88 471.38 55.88 471.6C55.9 471.79 55.92 472.08 55.94 472.3L54.25 472.43C53.85 471.08 53.51 468.97 53.51 466.39C53.51 463.58 54.12 459.95 54.35 458.43C54.41 457.96 54.48 457.35 54.5 456.85L56.57 457.04C56.46 457.38 56.27 458.16 56.19 458.5V458.52ZM65.78 458.06C65.76 458.53 65.74 459.35 65.72 460.23C66.84 460.14 67.9 459.98 68.87 459.79V461.63C67.88 461.78 66.82 461.91 65.72 461.99C65.74 463.89 65.87 465.6 65.93 467.06C67.51 467.69 68.72 468.66 69.67 469.51L68.64 471.11C67.75 470.27 66.87 469.55 66 469V469.09C66 470.84 65.16 472.34 62.52 472.34C59.88 472.34 58.45 471.28 58.45 469.45C58.45 467.62 59.95 466.41 62.5 466.41C63.03 466.41 63.54 466.45 64.04 466.52C63.96 465.19 63.89 463.56 63.85 462.07C63.32 462.09 62.79 462.11 62.25 462.11C61.15 462.11 60.1 462.05 59 461.98L58.98 460.19C60.06 460.3 61.13 460.36 62.27 460.36C62.8 460.36 63.31 460.34 63.85 460.32V458.08C63.85 457.76 63.79 457.23 63.74 456.86H65.89C65.83 457.24 65.79 457.66 65.78 458.04V458.06ZM62.28 470.58C63.69 470.58 64.12 469.86 64.12 468.66V468.15C63.55 467.98 62.96 467.88 62.35 467.88C61.08 467.88 60.18 468.43 60.18 469.25C60.18 470.14 61.05 470.58 62.27 470.58H62.28Z" fill="#0C445F"/>
<path d="M75.31 459.01C75.22 461.12 75.06 465.51 75.06 468.13C75.06 470.14 76.31 470.83 77.97 470.83C81.31 470.83 83.29 468.95 84.66 466.94L86.01 468.57C84.74 470.37 82.19 472.84 77.94 472.84C75.05 472.84 73.11 471.61 73.11 468.43C73.11 465.73 73.3 460.85 73.3 459.01C73.3 458.23 73.24 457.45 73.09 456.81L75.52 456.83C75.41 457.55 75.33 458.33 75.31 459.01ZM82.41 461.42L81.04 462.03C80.53 460.93 79.94 459.86 79.27 458.93L80.6 458.36C81.11 459.1 81.97 460.51 82.4 461.42H82.41ZM84.97 460.34L83.62 460.99C83.07 459.91 82.46 458.88 81.8 457.99L83.11 457.38C83.62 458.08 84.52 459.49 84.97 460.34Z" fill="#0C445F"/>
<path d="M99.9 458.52C99.82 458.86 99.75 459.2 99.65 459.55C102.67 460.14 104.72 462.51 104.72 465.8C104.72 469.69 101.93 471.99 97.92 472.58L96.78 470.87C100.85 470.51 102.8 468.4 102.8 465.72C102.8 463.4 101.41 461.67 99.21 461.2C98.53 463.54 97.61 465.87 96.53 467.49C96.87 467.95 97.25 468.38 97.63 468.74L96.13 469.96C95.84 469.64 95.58 469.33 95.33 469.01C94.11 470.43 92.99 471.23 91.59 471.23C90.09 471.23 88.78 469.98 88.78 467.64C88.78 465.47 89.92 463.18 91.65 461.71C91.46 461.16 91.29 460.59 91.12 460.06C90.93 459.41 90.7 458.81 90.42 458.22L92.4 457.61C92.51 458.16 92.67 458.79 92.8 459.34C92.91 459.76 93.05 460.21 93.2 460.69C94.74 459.84 96.26 459.47 97.85 459.42C97.95 459.02 98.02 458.64 98.08 458.26C98.17 457.8 98.23 457.08 98.21 456.65L100.28 456.84C100.15 457.33 99.99 458.11 99.9 458.53V458.52ZM91.79 469.31C92.63 469.31 93.5 468.53 94.28 467.51C94.22 467.4 94.15 467.28 94.07 467.17C93.48 466.28 92.85 464.91 92.28 463.45C91.2 464.59 90.53 466.17 90.53 467.52C90.53 468.62 91.01 469.32 91.78 469.32L91.79 469.31ZM95.38 465.87C96.16 464.56 96.86 462.81 97.39 461.1C96.02 461.19 94.84 461.65 93.74 462.3C94.22 463.59 94.75 464.83 95.2 465.59C95.26 465.68 95.31 465.78 95.37 465.87H95.38Z" fill="#0C445F"/>
<path d="M108.08 458.71C109.47 458.58 112.85 458.25 116.34 457.97C118.37 457.8 120.27 457.69 121.58 457.63V459.55C120.54 459.55 118.88 459.57 117.89 459.83C115.36 460.59 113.67 463.29 113.67 465.55C113.67 469.01 116.9 470.17 120.05 470.3L119.35 472.31C115.63 472.14 111.73 470.14 111.73 465.95C111.73 463.1 113.42 460.78 114.96 459.78C113.04 459.99 108.61 460.44 106.51 460.9L106.3 458.81C107.04 458.79 107.71 458.75 108.07 458.72L108.08 458.71Z" fill="#0C445F"/>
<path d="M131.81 472.35L130.69 470.56C131.34 470.5 131.91 470.41 132.38 470.29C134.81 469.74 136.98 467.95 136.98 464.89C136.98 462.14 135.31 459.95 132.38 459.59C132.11 461.3 131.79 463.14 131.24 464.93C130.1 468.81 128.52 470.95 126.64 470.95C124.76 470.95 123.03 468.86 123.03 465.69C123.03 461.43 126.75 457.79 131.52 457.79C136.29 457.79 138.97 460.98 138.97 464.95C138.97 468.92 136.42 471.67 131.81 472.34V472.35ZM126.7 468.7C127.55 468.7 128.45 467.47 129.32 464.54C129.79 463.04 130.14 461.31 130.36 459.64C126.94 460.19 124.95 463.15 124.95 465.51C124.95 467.69 125.88 468.7 126.7 468.7Z" fill="#0C445F"/>
<path d="M148.3 460.53C148.24 461.46 148.17 462.41 148.05 463.34H155.46C155.46 463.34 155.44 463.89 155.4 464.16C155.06 469.44 154.66 471.55 153.92 472.33C153.43 472.86 152.91 472.99 152.13 473.05C151.45 473.11 150.19 473.09 148.92 473.03C148.9 472.52 148.65 471.8 148.31 471.3C149.62 471.41 150.95 471.43 151.48 471.43C151.9 471.43 152.14 471.39 152.39 471.18C152.9 470.74 153.26 468.96 153.53 465.01H147.75C147.07 468.3 145.53 471.34 141.71 473.22C141.44 472.75 140.91 472.1 140.44 471.76C145.61 469.39 146.12 464.75 146.33 460.53H140.71V458.84H148.18V455.61H149.98V458.84H157.62V460.53H148.29H148.3Z" fill="#0C445F"/>
<path d="M161.67 458.81C163.06 458.68 166.44 458.35 169.93 458.05C171.96 457.88 173.86 457.77 175.17 457.73V459.65C174.11 459.65 172.45 459.67 171.47 459.92C168.94 460.68 167.27 463.4 167.27 465.64C167.27 469.1 170.5 470.26 173.63 470.39L172.95 472.42C169.23 472.23 165.33 470.24 165.33 466.06C165.33 463.19 167.02 460.89 168.56 459.89C166.64 460.08 162.22 460.54 160.09 460.99L159.9 458.92C160.62 458.9 161.29 458.86 161.67 458.83V458.81ZM174 464.38L172.82 464.91C172.36 463.94 171.87 463.07 171.3 462.25L172.44 461.76C172.9 462.42 173.6 463.58 174 464.38ZM176.17 463.53L175.01 464.08C174.52 463.11 174.02 462.28 173.41 461.46L174.55 460.95C175.01 461.6 175.75 462.74 176.16 463.53H176.17Z" fill="#0C445F"/>
<path d="M185.3 458.06C185.24 458.48 185.17 459.07 185.07 459.79C186.48 459.79 187.75 459.7 188.76 459.54L188.7 461.33C187.52 461.44 186.44 461.52 184.88 461.52H184.84C184.71 462.51 184.57 463.59 184.46 464.58H184.73C185.96 464.58 187.33 464.52 188.62 464.35L188.56 466.14C187.4 466.25 186.24 466.33 185.01 466.33H184.29C184.23 467 184.19 467.58 184.19 467.98C184.19 469.71 185.2 470.72 187.23 470.72C190 470.72 191.68 469.49 191.68 467.7C191.68 466.41 191 465.08 189.67 463.9L191.78 463.46C193.05 464.96 193.68 466.29 193.68 467.92C193.68 470.77 191.13 472.63 187.2 472.63C184.45 472.63 182.34 471.43 182.34 468.28C182.34 467.79 182.4 467.06 182.47 466.21C181.08 466.1 179.75 465.87 178.67 465.56L178.76 463.74C179.99 464.18 181.36 464.39 182.65 464.5C182.78 463.49 182.92 462.43 183.05 461.42C181.68 461.31 180.26 461.06 179.1 460.75L179.2 459C180.36 459.38 181.84 459.61 183.25 459.72C183.34 459.04 183.4 458.43 183.44 457.93C183.5 457.17 183.5 456.81 183.46 456.43L185.59 456.54C185.46 457.13 185.38 457.58 185.31 458.04L185.3 458.06Z" fill="#0C445F"/>
<path d="M206.19 465.83C207.52 468.72 209.91 470.67 213.6 471.47C213.22 471.87 212.67 472.63 212.44 473.12C208.62 472.11 206.23 470 204.73 466.74C203.76 469.3 201.61 471.62 197.07 473.1C196.86 472.68 196.35 471.92 195.95 471.56C200.26 470.17 202.2 468.1 203.04 465.82H196.24V464.03H203.5C203.63 463.21 203.67 462.38 203.67 461.56V460.63H199.68C199.15 461.69 198.56 462.62 197.95 463.37C197.59 463.09 196.72 462.65 196.26 462.44C197.67 460.9 198.81 458.41 199.47 455.92L201.33 456.32C201.08 457.17 200.8 458.03 200.46 458.85H203.67V455.68H205.51V458.85H211.53V460.64H205.51V461.59C205.51 462.41 205.47 463.22 205.38 464.04H213.11V465.83H206.2H206.19Z" fill="#0C445F"/>
<path d="M219.13 468.97C218.54 470.57 217.53 472.16 216.53 473.17C216.21 472.87 215.5 472.37 215.12 472.14C216.09 471.25 216.96 469.9 217.44 468.55L219.13 468.97ZM231.29 460.78C230.81 463.71 230.09 466.14 228.95 468.13C229.98 469.63 231.29 470.81 232.94 471.55C232.54 471.93 231.95 472.63 231.71 473.13C230.13 472.33 228.88 471.19 227.85 469.77C226.77 471.16 225.4 472.28 223.69 473.17C223.54 472.83 223.12 472.18 222.8 471.76L221.96 472.18C221.62 471.36 220.8 470.09 220.06 469.18L221.48 468.52C222.18 469.32 222.92 470.38 223.34 471.18C224.78 470.38 225.92 469.38 226.82 468.12C226.04 466.68 225.45 465.04 224.98 463.22C224.64 463.87 224.24 464.44 223.82 464.95C223.65 464.76 223.33 464.49 223 464.25V468.28H216.22V456.43H223V462.91C224.29 461.07 225.15 458.46 225.64 455.69L227.48 455.99C227.27 457.07 227 458.12 226.7 459.12H232.7V460.79H231.28L231.29 460.78ZM221.28 457.85H217.9V459.92H221.28V457.85ZM221.28 461.27H217.9V463.38H221.28V461.27ZM221.28 464.71H217.9V466.84H221.28V464.71ZM226.14 460.78C226.54 462.79 227.09 464.66 227.89 466.29C228.63 464.73 229.11 462.91 229.45 460.78H226.14Z" fill="#0C445F"/>
<path d="M238.4 458.9C238.3 461.01 238.17 465.4 238.17 468.02C238.17 470.03 239.4 470.72 241.06 470.72C244.38 470.72 246.38 468.84 247.75 466.81L249.1 468.46C247.85 470.26 245.28 472.72 241.03 472.72C238.14 472.72 236.2 471.49 236.2 468.33C236.2 465.63 236.39 460.73 236.39 458.91C236.39 458.11 236.31 457.33 236.18 456.71L238.61 456.73C238.5 457.43 238.42 458.23 238.4 458.91V458.9Z" fill="#0C445F"/>
<path d="M258.27 459.24C259.24 459.09 260.19 458.88 261.06 458.59L261.12 460.34C260.17 460.61 258.99 460.85 257.72 461.02C256.79 463.7 255.14 467 253.6 469.09L251.78 468.16C253.34 466.3 254.91 463.37 255.77 461.23C255.29 461.25 254.84 461.27 254.38 461.27C253.66 461.27 252.86 461.25 252.1 461.21L251.97 459.44C252.71 459.52 253.62 459.55 254.38 459.55C255.01 459.55 255.67 459.53 256.34 459.47C256.62 458.41 256.85 457.23 256.89 456.22L258.98 456.43C258.83 457.09 258.56 458.16 258.28 459.22L258.27 459.24ZM263.44 464.56C263.46 465.19 263.52 466.29 263.57 467.37C265.2 467.96 266.53 468.91 267.5 469.76L266.49 471.37C265.75 470.69 264.78 469.87 263.64 469.24V469.77C263.64 471.38 262.67 472.7 260.16 472.7C257.96 472.7 256.17 471.75 256.17 469.77C256.17 467.98 257.78 466.73 260.14 466.73C260.71 466.73 261.24 466.79 261.75 466.86C261.69 465.36 261.6 463.57 261.56 462.32H263.42C263.38 463.12 263.4 463.78 263.42 464.54L263.44 464.56ZM259.93 470.98C261.37 470.98 261.85 470.18 261.85 469.16C261.85 468.99 261.85 468.76 261.83 468.51C261.28 468.36 260.69 468.26 260.06 468.26C258.81 468.26 257.95 468.83 257.95 469.61C257.95 470.43 258.63 470.98 259.93 470.98ZM262.57 460.4L263.54 458.94C264.91 459.55 267.15 460.8 268.1 461.49L267.02 463.07C265.98 462.2 263.87 461 262.57 460.41V460.4Z" fill="#0C445F"/>
<path d="M272.85 460.29C272.83 461.49 272.85 463.08 272.98 464.56C273.26 467.54 274.04 469.56 275.32 469.56C276.27 469.56 277.11 467.49 277.54 465.76L279.04 467.53C277.84 470.78 276.67 471.9 275.28 471.9C273.36 471.9 271.59 470.08 271.08 465.08C270.89 463.41 270.87 461.13 270.87 459.99C270.87 459.52 270.83 458.72 270.72 458.2L273.04 458.24C272.94 458.79 272.85 459.78 272.85 460.29ZM286.17 468.34L284.21 469.1C283.89 465.83 282.8 461.62 280.89 459.34L282.77 458.71C284.52 460.91 285.92 465.26 286.17 468.34Z" fill="#0C445F"/>
<path d="M292.69 462.38C293.2 463.06 294.61 465.19 294.91 465.69L293.98 466.98C293.73 466.39 293.18 465.37 292.69 464.47V473.11H291.06V465.07C290.49 466.87 289.79 468.55 289.03 469.63C288.86 469.15 288.44 468.49 288.19 468.11C289.31 466.55 290.39 463.74 290.91 461.33H288.59V459.7H291.06V455.69H292.69V459.7H294.72V461.33H292.69V462.37V462.38ZM305.87 472.14H296.77V473.15H295.19V461.73H296.77V470.6H305.87V472.14ZM299.85 460.59C299.91 460.13 299.95 459.6 300 459.07H295.27V457.57H300.11C300.17 456.92 300.21 456.28 300.22 455.69L302.01 455.78C301.97 456.35 301.91 456.96 301.84 457.57H305.79V459.07H301.67C301.59 459.6 301.54 460.11 301.46 460.59H304.86V469.29H298.04V460.59H299.84H299.85ZM303.27 461.86H299.57V463.09H303.27V461.86ZM303.27 464.31H299.57V465.53H303.27V464.31ZM303.27 466.76H299.57V468.03H303.27V466.76Z" fill="#0C445F"/>
<path d="M314.5 465.61C313.76 465.86 313.02 466.09 312.28 466.31V473.11H310.65V466.82L307.67 467.73L307.21 466.04C308.16 465.79 309.36 465.47 310.65 465.11V461.12H309.13C308.9 462.13 308.64 463.04 308.35 463.76C308.06 463.53 307.42 463.15 307.06 462.96C307.73 461.42 308.07 459.03 308.26 456.77L309.76 457.02C309.66 457.84 309.57 458.65 309.46 459.45H310.66V455.69H312.29V459.45H314.06V461.12H312.29V464.62L314.29 464.05L314.52 465.61H314.5ZM324.57 458.75C324.57 458.75 324.57 459.36 324.55 459.59C324.13 468.12 323.77 471.12 323.03 472.05C322.63 472.62 322.25 472.79 321.64 472.89C321.13 472.98 320.33 472.97 319.49 472.93C319.47 472.42 319.28 471.7 319 471.2C319.8 471.28 320.5 471.28 320.86 471.28C321.16 471.28 321.35 471.2 321.54 470.94C322.09 470.31 322.49 467.62 322.83 460.4H322.3C321.33 465.3 319.3 470.3 316.22 472.77C315.88 472.45 315.25 471.99 314.76 471.73C317.82 469.55 319.81 465.01 320.76 460.41H319.49C318.65 463.6 317 467.08 314.99 468.86C314.67 468.54 314.1 468.1 313.62 467.85C315.58 466.33 317.13 463.33 318.01 460.4H316.66C316.07 461.77 315.39 462.96 314.61 463.9C314.32 463.65 313.62 463.12 313.24 462.89C314.78 461.22 315.86 458.52 316.49 455.71L318.09 456.01C317.88 456.96 317.6 457.89 317.31 458.76H324.57V458.75Z" fill="#0C445F"/>
<path d="M330.22 469.14C331.06 470.49 332.61 471.1 334.7 471.17C336.9 471.27 341.43 471.21 343.86 471.04C343.69 471.44 343.42 472.2 343.33 472.71C341.09 472.8 336.97 472.84 334.72 472.77C332.33 472.68 330.67 472.03 329.51 470.57C328.75 471.35 327.95 472.13 327.06 472.94L326.17 471.27C326.91 470.74 327.78 470.02 328.58 469.29V464.69H326.41V463.06H330.21V469.14H330.22ZM329.1 460.25C328.63 459.32 327.47 457.97 326.4 457.02L327.81 456.13C328.87 457.04 330.07 458.31 330.6 459.25L329.1 460.26V460.25ZM343.56 467.75H330.95V466.4H334.2V464.84H331.54V463.53H334.2V462.31H335.87V463.53H338.55V462.31H340.24V463.53H342.98V464.84H340.24V466.4H343.56V467.75ZM335.09 457.53H331.25V456.35H336.59V459.75H333.02V460.45C333.02 460.83 333.12 460.89 333.67 460.89H335.47C335.89 460.89 335.96 460.8 336.02 460.05C336.31 460.26 336.87 460.45 337.29 460.53C337.14 461.76 336.72 462.11 335.66 462.11H333.49C331.95 462.11 331.55 461.77 331.55 460.48V458.56H335.08V457.53H335.09ZM336.42 468.34C335.45 469.27 333.89 470.16 332.64 470.73C332.35 470.43 331.73 469.89 331.35 469.65C332.66 469.17 334.03 468.51 334.86 467.81L336.42 468.34ZM335.87 466.4H338.55V464.84H335.87V466.4ZM341.23 457.53H337.39V456.35H342.77V459.75H339.22V460.45C339.22 460.83 339.32 460.89 339.9 460.89H341.82C342.24 460.89 342.33 460.78 342.39 460C342.69 460.21 343.24 460.4 343.66 460.49C343.51 461.76 343.07 462.1 342.01 462.1H339.69C338.17 462.1 337.73 461.76 337.73 460.45V458.55H341.23V457.52V457.53ZM341.61 470.77C340.87 470.11 339.52 469.23 338.27 468.59L339.52 467.83C340.91 468.48 342.48 469.37 343.4 470.07L341.61 470.77Z" fill="#0C445F"/>
<path d="M362.03 465.74L360.8 467.45C359.89 466.46 359.11 465.34 358.42 464.05C358.76 468.65 357.3 473 352.02 473C349 473 346.64 471.33 346.64 468.04C346.64 464.75 348.25 462.15 349.96 460.1C349.11 460.23 347.7 460.38 347.05 460.48C346.67 460.52 346.37 460.57 345.97 460.63L345.82 458.65C346.12 458.67 346.52 458.67 346.86 458.65C348.61 458.57 351.78 458.14 352.96 457.7L353.53 459.37C353.26 459.46 352.83 459.6 352.54 459.75C351.29 460.68 348.53 463.83 348.53 467.61C348.53 470.1 350.16 470.99 352.04 470.99C356.37 470.99 357.83 466.45 356.47 459.4C356.34 459 356.22 458.6 356.09 458.18L357.97 457.65C358.35 459.99 359.17 463.14 362.02 465.72L362.03 465.74ZM360.87 459.3L359.69 459.72C359.37 458.85 358.93 457.74 358.51 456.98L359.65 456.6C360.03 457.34 360.58 458.52 360.87 459.3ZM362.92 458.58L361.72 459C361.4 458.13 360.94 457.04 360.5 456.28L361.64 455.88C362.04 456.62 362.57 457.78 362.91 458.58H362.92Z" fill="#0C445F"/>
<path d="M406.54 445.5H8.29006C7.99006 445.5 7.75006 445.26 7.75006 444.96C7.75006 444.66 7.99006 444.42 8.29006 444.42H406.54C406.84 444.42 407.08 444.66 407.08 444.96C407.08 445.26 406.84 445.5 406.54 445.5Z" fill="#0C445F"/>
<path d="M406.54 484.05H8.29006C7.99006 484.05 7.75006 483.81 7.75006 483.51C7.75006 483.21 7.99006 482.97 8.29006 482.97H406.54C406.84 482.97 407.08 483.21 407.08 483.51C407.08 483.81 406.84 484.05 406.54 484.05Z" fill="#0C445F"/>
<path d="M2.49001 478.26C2.19001 478.26 1.95001 478.02 1.95001 477.72V450.75C1.95001 450.45 2.19001 450.21 2.49001 450.21C2.79001 450.21 3.03001 450.45 3.03001 450.75V477.72C3.03001 478.02 2.79001 478.26 2.49001 478.26Z" fill="#0C445F"/>
<path d="M6.98004 449.98C6.84004 449.98 6.70004 449.93 6.59004 449.82L2.01004 445.24C1.80004 445.03 1.80004 444.68 2.01004 444.47C2.22004 444.26 2.57004 444.26 2.78004 444.47L7.36004 449.05C7.57004 449.26 7.57004 449.61 7.36004 449.82C7.25004 449.93 7.11004 449.98 6.97004 449.98H6.98004Z" fill="#0C445F"/>
<path d="M2.40004 484.15C2.26004 484.15 2.12004 484.1 2.01004 483.99C1.80004 483.78 1.80004 483.43 2.01004 483.22L6.59004 478.64C6.80004 478.43 7.15004 478.43 7.36004 478.64C7.57004 478.85 7.57004 479.2 7.36004 479.41L2.78004 483.99C2.67004 484.1 2.53004 484.15 2.39004 484.15H2.40004Z" fill="#0C445F"/>
<path d="M412.33 478.26C412.03 478.26 411.79 478.02 411.79 477.72V450.75C411.79 450.45 412.03 450.21 412.33 450.21C412.63 450.21 412.87 450.45 412.87 450.75V477.72C412.87 478.02 412.63 478.26 412.33 478.26Z" fill="#0C445F"/>
<path d="M412.43 484.15C412.29 484.15 412.15 484.1 412.04 483.99L407.46 479.41C407.25 479.2 407.25 478.85 407.46 478.64C407.67 478.43 408.02 478.43 408.23 478.64L412.81 483.22C413.02 483.43 413.02 483.78 412.81 483.99C412.7 484.1 412.56 484.15 412.42 484.15H412.43Z" fill="#0C445F"/>
<path d="M407.85 449.98C407.71 449.98 407.57 449.93 407.46 449.82C407.25 449.61 407.25 449.26 407.46 449.05L412.04 444.47C412.25 444.26 412.6 444.26 412.81 444.47C413.02 444.68 413.02 445.03 412.81 445.24L408.23 449.82C408.12 449.93 407.98 449.98 407.84 449.98H407.85Z" fill="#0C445F"/>
<path d="M72.7 524.82L71.09 523.3C74.64 521.99 76.31 520.36 76.31 515.32V514.56H71.29V517.41C71.29 518.19 71.35 518.99 71.38 519.25H69.27C69.29 518.98 69.36 518.21 69.36 517.41V514.56H67.5C66.61 514.56 65.83 514.6 65.52 514.64V512.57C65.77 512.63 66.62 512.72 67.5 512.72H69.36V510.54C69.36 510.07 69.32 509.51 69.25 509.02H71.4C71.36 509.27 71.29 509.84 71.29 510.54V512.72H76.31V510.52C76.31 509.76 76.25 509.13 76.21 508.87H78.36C78.32 509.16 78.25 509.76 78.25 510.52V512.72H80.04C80.97 512.72 81.58 512.66 81.94 512.61V514.62C81.64 514.58 80.97 514.56 80.06 514.56H78.26V515.21C78.26 520.11 77.16 522.83 72.71 524.82H72.7Z" fill="#0C445F"/>
<path d="M98.43 510.42L97.71 510.72L98.75 511.4C98.6 511.7 98.5 512.12 98.41 512.5C97.99 514.44 97.1 517.44 95.56 519.47C93.83 521.71 91.46 523.54 88.02 524.62L86.39 522.83C90.11 521.92 92.24 520.28 93.82 518.31C95.13 516.64 95.95 514.21 96.2 512.48H86.85C86.05 512.48 85.29 512.52 84.8 512.56V510.43C85.35 510.49 86.24 510.56 86.87 510.56H96.06C96.31 510.56 96.61 510.56 96.91 510.52C96.55 509.82 96.06 509.02 95.66 508.41L96.93 507.9C97.41 508.58 98.05 509.69 98.43 510.41V510.42ZM101.01 509.93L99.72 510.5C99.3 509.72 98.71 508.62 98.18 507.95L99.47 507.42C99.93 508.08 100.63 509.22 101.01 509.93Z" fill="#0C445F"/>
<path d="M115.17 512C114.51 513.56 113.38 515.7 112.05 517.41C114.01 519.08 116.31 521.53 117.48 522.98L115.81 524.46C114.56 522.75 112.66 520.66 110.78 518.91C108.75 521.08 106.18 523.11 103.47 524.38L101.93 522.77C105.01 521.59 107.86 519.31 109.74 517.2C111.03 515.76 112.3 513.67 112.76 512.18H105.79C105.05 512.18 104.02 512.27 103.72 512.29V510.14C104.1 510.2 105.2 510.27 105.79 510.27H112.84C113.54 510.27 114.17 510.19 114.49 510.08L115.72 510.99C115.59 511.18 115.3 511.66 115.17 511.98V512Z" fill="#0C445F"/>
<path d="M127.1 510.7C127.02 510.85 126.93 511.02 126.83 511.17H131.39C131.92 511.17 132.45 511.11 132.81 510.98L134.37 511.93C134.18 512.23 133.97 512.71 133.84 513.09C133.33 514.91 132.21 517.46 130.5 519.55C128.75 521.72 126.45 523.44 122.9 524.81L121.13 523.23C124.8 522.13 127.06 520.46 128.75 518.48C130.16 516.87 131.3 514.47 131.64 512.88H125.71C124.49 514.51 122.88 516.2 120.88 517.53L119.21 516.28C122.52 514.3 124.28 511.66 125.17 509.99C125.4 509.61 125.72 508.83 125.87 508.28L128.07 509C127.69 509.57 127.29 510.31 127.08 510.69L127.1 510.7Z" fill="#0C445F"/>
<path d="M143.6 510.63C143.52 510.95 143.45 511.33 143.37 511.75C144.53 511.6 145.71 511.37 146.81 511.1V512.96C145.61 513.24 144.28 513.45 142.97 513.61C142.8 514.43 142.59 515.3 142.38 516.1C141.68 518.78 140.4 522.69 139.38 524.84L137.29 524.14C138.43 522.2 139.82 518.29 140.52 515.63C140.67 515.04 140.84 514.41 140.98 513.79C140.45 513.81 139.94 513.83 139.46 513.83C138.57 513.83 137.88 513.81 137.2 513.75L137.16 511.89C138.09 512 138.74 512.04 139.48 512.04C140.07 512.04 140.71 512.02 141.36 511.96C141.47 511.39 141.57 510.92 141.61 510.55C141.7 509.94 141.72 509.24 141.69 508.82L143.97 508.99C143.86 509.46 143.68 510.24 143.61 510.62L143.6 510.63ZM145.88 521.12C145.88 521.97 146.39 522.75 148.82 522.75C150.05 522.75 151.37 522.6 152.62 522.37L152.56 524.29C151.5 524.42 150.24 524.56 148.8 524.56C145.7 524.56 144.03 523.55 144.03 521.67C144.03 520.87 144.18 520.07 144.33 519.3L146.12 519.47C145.97 520.06 145.87 520.65 145.87 521.12H145.88ZM149.01 514.6C150.11 514.6 151.25 514.64 152.33 514.75L152.27 516.57C151.3 516.44 150.18 516.34 149.04 516.34C147.81 516.34 146.65 516.4 145.45 516.53V514.76C146.48 514.67 147.79 514.59 149 514.59L149.01 514.6ZM151.82 512.17L150.57 512.72C150.19 511.94 149.56 510.8 149.05 510.08L150.28 509.57C150.76 510.25 151.44 511.45 151.82 512.17ZM154.02 511.35L152.79 511.9C152.37 511.08 151.75 509.98 151.23 509.26L152.45 508.75C152.96 509.47 153.67 510.67 154.03 511.35H154.02Z" fill="#0C445F"/>
<path d="M162.48 510.21C162.37 510.8 162.2 511.71 162.02 512.6C162.8 512.52 163.48 512.49 163.92 512.49C165.76 512.49 167.15 513.23 167.15 515.89C167.15 518.13 166.87 521.19 166.07 522.79C165.46 524.1 164.47 524.44 163.14 524.44C162.42 524.44 161.51 524.33 160.88 524.17L160.58 522.19C161.34 522.42 162.38 522.57 162.9 522.57C163.58 522.57 164.12 522.4 164.46 521.66C165.03 520.48 165.31 518.07 165.31 516.09C165.31 514.46 164.57 514.17 163.37 514.17C162.97 514.17 162.34 514.21 161.62 514.28C160.92 517.07 159.57 521.46 157.69 524.5L155.73 523.72C157.63 521.16 159 517.05 159.68 514.47C158.81 514.56 158.03 514.66 157.59 514.72C157.12 514.78 156.24 514.89 155.71 514.99L155.52 512.94C156.17 512.98 156.72 512.96 157.36 512.94C157.97 512.92 158.99 512.85 160.08 512.75C160.35 511.34 160.54 509.9 160.52 508.67L162.74 508.9C162.64 509.3 162.55 509.79 162.47 510.21H162.48ZM172.7 517.73L170.82 518.6C170.29 516.59 168.86 513.19 167.53 511.57L169.3 510.81C170.48 512.39 172.09 515.94 172.7 517.73Z" fill="#0C445F"/>
<path d="M177.65 517.3C179.42 515.86 181.43 515.19 183.58 515.19C186.68 515.19 188.61 517.07 188.61 519.33C188.61 522.75 185.72 525.22 178.29 524.59L177.72 522.63C183.59 523.37 186.55 521.79 186.55 519.29C186.55 517.88 185.24 516.88 183.42 516.88C181.08 516.88 179.07 517.77 177.82 519.29C177.5 519.65 177.33 519.97 177.17 520.3L175.42 519.88C175.8 518.09 176.26 514.22 176.39 512.07L178.4 512.34C178.13 513.54 177.81 516.14 177.64 517.3H177.65ZM186.05 510.2L185.61 512.04C183.75 511.79 179.57 510.92 178.11 510.54L178.59 508.74C180.3 509.27 184.38 510.03 186.06 510.2H186.05Z" fill="#0C445F"/>
<path d="M208.28 510.61C207.84 514.69 206.84 517.89 205.37 520.34C206.36 521.75 207.57 522.89 209.06 523.66C208.66 524 208.09 524.67 207.84 525.1C206.43 524.28 205.26 523.22 204.27 521.91C203.24 523.22 202.01 524.25 200.64 525.06C200.39 524.64 199.92 524.03 199.54 523.69V525.25H197.83V522C195.53 522.38 193.19 522.76 191.43 523.04L191.11 521.27C191.64 521.21 192.23 521.12 192.9 521.04V510.61H191.51V508.98H200.82V510.35H206.84L207.14 510.29L208.28 510.59V510.61ZM194.58 510.63V512.83H197.83V510.63H194.58ZM194.58 516.73H197.83V514.41H194.58V516.73ZM197.83 520.38V518.33H194.58V520.84L197.83 520.38ZM199.54 523.61C200.95 522.87 202.18 521.75 203.23 520.3C202 518.12 201.14 515.47 200.53 512.49L202.24 512.15C202.68 514.51 203.34 516.69 204.29 518.57C205.24 516.77 205.94 514.58 206.34 512.09H200.32V510.63H199.54V523.61Z" fill="#0C445F"/>
<path d="M213.57 513.38C214.41 511.65 216.23 509.62 218.53 509.62C221.11 509.62 223.03 512.17 223.03 516.25C223.03 521.55 219.72 523.98 214.88 524.87L213.74 523.14C217.9 522.49 221.02 520.96 221.02 516.24C221.02 513.28 220.01 511.34 218.21 511.34C215.89 511.34 213.78 514.76 213.61 517.27C213.55 517.9 213.55 518.54 213.69 519.45L211.83 519.58C211.74 518.86 211.62 517.76 211.62 516.5C211.62 514.71 211.92 512.11 212.17 510.38C212.27 509.73 212.3 509.11 212.32 508.58L214.39 508.67C214.07 509.87 213.69 512.17 213.57 513.36V513.38Z" fill="#0C445F"/>
<path d="M233.12 516.88C232.57 516.39 231.58 515.63 230.69 514.96C230.06 516.04 229.06 517.09 227.48 517.96C227.23 517.6 226.72 517.03 226.32 516.76C228.11 515.87 229.04 514.77 229.53 513.64H226.66V512.22H229.93C230.03 511.73 230.04 511.25 230.04 510.81H227.25V509.42H230.04V507.84H231.73V509.42H234.12V510.81H231.73C231.73 511.27 231.69 511.72 231.62 512.22H234.43V513.64H231.47C232.46 514.31 233.62 515.16 234.26 515.71L233.12 516.87V516.88ZM240.45 513.65C241.23 514.9 242.43 515.93 243.85 516.48C243.47 516.76 243 517.39 242.73 517.79C241.19 517.09 239.94 515.8 239.1 514.24C238.55 515.34 237.56 516.39 235.89 517.22H241.08V525.2H239.29V524.63H230.67V525.28H228.94V517.23H235.51C235.24 516.87 234.81 516.41 234.48 516.15C236.13 515.48 237.04 514.59 237.56 513.66H235.09V512.24H238.05C238.13 511.78 238.15 511.37 238.15 510.97V510.84H235.43V509.45H238.15V507.87H239.84V509.45H242.78V510.84H239.84V510.99C239.84 511.41 239.82 511.81 239.75 512.24H243.4V513.66H240.46L240.45 513.65ZM239.29 518.72H230.67V520.22H239.29V518.72ZM239.29 523.13V521.55H230.67V523.13H239.29Z" fill="#0C445F"/>
<path d="M256.22 515.23C255.42 515.93 253.45 517.76 252.86 518.38C253.03 518.36 253.37 518.4 253.58 518.47C254.25 518.58 254.64 519.04 254.89 519.8C255.08 520.33 255.31 521.19 255.5 521.74C255.69 522.41 256.13 522.73 257 522.73C258.35 522.73 259.74 522.56 260.65 522.35L260.54 524.34C259.74 524.47 257.9 524.62 256.91 524.62C255.26 524.62 254.31 524.24 253.87 522.99C253.68 522.42 253.41 521.39 253.26 520.9C253.03 520.22 252.63 519.91 252.16 519.91C251.69 519.91 251.27 520.19 250.83 520.63C250.15 521.31 248.36 523.21 247.18 524.71L245.38 523.46C245.66 523.23 246.06 522.89 246.5 522.47C247.35 521.6 251.95 517 253.78 515.14C252.36 515.22 249.56 515.46 248.42 515.56C247.77 515.6 247.26 515.67 246.84 515.75L246.67 513.66C247.11 513.7 247.73 513.72 248.38 513.72C249.39 513.7 253.76 513.45 255.26 513.26C255.58 513.22 256.04 513.13 256.23 513.05L257.35 514.3C256.93 514.6 256.5 514.96 256.23 515.21L256.22 515.23ZM256.85 509.59L256.6 511.36C254.64 511.21 251.22 510.77 248.93 510.37L249.23 508.64C251.32 509.06 254.97 509.48 256.85 509.59Z" fill="#0C445F"/>
<path d="M268 510.23C267.94 510.65 267.87 511.24 267.77 511.96C269.18 511.96 270.45 511.87 271.46 511.71L271.4 513.5C270.22 513.61 269.14 513.69 267.58 513.69H267.54C267.41 514.68 267.27 515.76 267.16 516.75H267.43C268.66 516.75 270.03 516.69 271.32 516.52L271.26 518.31C270.1 518.42 268.94 518.5 267.71 518.5H266.99C266.93 519.17 266.89 519.75 266.89 520.15C266.89 521.88 267.9 522.89 269.93 522.89C272.7 522.89 274.38 521.66 274.38 519.87C274.38 518.58 273.7 517.25 272.37 516.07L274.48 515.63C275.75 517.13 276.38 518.46 276.38 520.09C276.38 522.94 273.83 524.8 269.9 524.8C267.15 524.8 265.04 523.6 265.04 520.45C265.04 519.96 265.1 519.23 265.17 518.38C263.78 518.27 262.45 518.04 261.37 517.73L261.46 515.91C262.69 516.35 264.06 516.56 265.35 516.67C265.48 515.66 265.62 514.6 265.75 513.59C264.38 513.48 262.96 513.23 261.8 512.92L261.9 511.17C263.06 511.55 264.54 511.78 265.95 511.89C266.04 511.21 266.1 510.6 266.14 510.1C266.2 509.34 266.2 508.98 266.16 508.6L268.29 508.71C268.16 509.3 268.08 509.75 268.01 510.21L268 510.23Z" fill="#0C445F"/>
<path d="M293.28 510.38V525.24H291.42V524.29H281.81V525.32H280.04V510.39H284.83C285.1 509.57 285.32 508.59 285.46 507.84L287.57 508.09C287.27 508.89 286.96 509.7 286.64 510.39H293.29L293.28 510.38ZM281.81 512.07V514.5H291.42V512.07H281.81ZM281.81 516.14V518.57H291.42V516.14H281.81ZM291.42 522.66V520.21H281.81V522.66H291.42Z" fill="#0C445F"/>
<path d="M312.07 511.48V525.23H310.23V524.19H299.08V525.31H297.31V511.48H303.69V507.87H305.49V511.48H312.06H312.07ZM299.08 513.27V516.96H303.7V513.27H299.08ZM299.08 522.46H303.7V518.68H299.08V522.46ZM305.5 513.27V516.96H310.23V513.27H305.5ZM310.23 522.46V518.68H305.5V522.46H310.23Z" fill="#0C445F"/>
<path d="M329.43 510.38V525.24H327.57V524.29H317.96V525.32H316.19V510.39H320.98C321.25 509.57 321.47 508.59 321.61 507.84L323.72 508.09C323.42 508.89 323.11 509.7 322.79 510.39H329.44L329.43 510.38ZM317.96 512.07V514.5H327.57V512.07H317.96ZM317.96 516.14V518.57H327.57V516.14H317.96ZM327.57 522.66V520.21H317.96V522.66H327.57Z" fill="#0C445F"/>
<path d="M349.28 510.63V512.32H339.06C338.41 513.67 337.67 514.96 336.8 516.14V525.26H335.03V518.19C334.42 518.78 333.76 519.35 333.05 519.84C332.86 519.37 332.46 518.61 332.18 518.19C334.27 516.77 335.88 514.64 337.06 512.32H332.69V510.63H337.82C338.22 509.7 338.5 508.77 338.75 507.84L340.59 508.3C340.34 509.08 340.08 509.86 339.77 510.64H349.27L349.28 510.63ZM344.49 523.19H349.26V524.84H337.92V523.19H342.71V518.29H338.64V516.66H342.71V513.24H344.5V516.66H348.55V518.29H344.5V523.19H344.49Z" fill="#0C445F"/>
<path d="M406.54 497.66H8.29006C7.99006 497.66 7.75006 497.42 7.75006 497.12C7.75006 496.82 7.99006 496.58 8.29006 496.58H406.54C406.84 496.58 407.08 496.82 407.08 497.12C407.08 497.42 406.84 497.66 406.54 497.66Z" fill="#0C445F"/>
<path d="M406.54 536.22H8.29006C7.99006 536.22 7.75006 535.98 7.75006 535.68C7.75006 535.38 7.99006 535.14 8.29006 535.14H406.54C406.84 535.14 407.08 535.38 407.08 535.68C407.08 535.98 406.84 536.22 406.54 536.22Z" fill="#0C445F"/>
<path d="M2.49001 530.42C2.19001 530.42 1.95001 530.18 1.95001 529.88V502.91C1.95001 502.61 2.19001 502.37 2.49001 502.37C2.79001 502.37 3.03001 502.61 3.03001 502.91V529.88C3.03001 530.18 2.79001 530.42 2.49001 530.42Z" fill="#0C445F"/>
<path d="M6.98004 502.15C6.84004 502.15 6.70004 502.1 6.59004 501.99L2.01004 497.41C1.80004 497.2 1.80004 496.85 2.01004 496.64C2.22004 496.43 2.57004 496.43 2.78004 496.64L7.36004 501.22C7.57004 501.43 7.57004 501.78 7.36004 501.99C7.25004 502.1 7.11004 502.15 6.97004 502.15H6.98004Z" fill="#0C445F"/>
<path d="M2.40004 536.31C2.26004 536.31 2.12004 536.26 2.01004 536.15C1.80004 535.94 1.80004 535.59 2.01004 535.38L6.59004 530.8C6.80004 530.59 7.15004 530.59 7.36004 530.8C7.57004 531.01 7.57004 531.36 7.36004 531.57L2.78004 536.15C2.67004 536.26 2.53004 536.31 2.39004 536.31H2.40004Z" fill="#0C445F"/>
<path d="M412.33 530.42C412.03 530.42 411.79 530.18 411.79 529.88V502.91C411.79 502.61 412.03 502.37 412.33 502.37C412.63 502.37 412.87 502.61 412.87 502.91V529.88C412.87 530.18 412.63 530.42 412.33 530.42Z" fill="#0C445F"/>
<path d="M412.43 536.31C412.29 536.31 412.15 536.26 412.04 536.15L407.46 531.57C407.25 531.36 407.25 531.01 407.46 530.8C407.67 530.59 408.02 530.59 408.23 530.8L412.81 535.38C413.02 535.59 413.02 535.94 412.81 536.15C412.7 536.26 412.56 536.31 412.42 536.31H412.43Z" fill="#0C445F"/>
<path d="M407.85 502.15C407.71 502.15 407.57 502.1 407.46 501.99C407.25 501.78 407.25 501.43 407.46 501.22L412.04 496.64C412.25 496.43 412.6 496.43 412.81 496.64C413.02 496.85 413.02 497.2 412.81 497.41L408.23 501.99C408.12 502.1 407.98 502.15 407.84 502.15H407.85Z" fill="#0C445F"/>
<path d="M89.07 575.46V576.88H72.11V575.46H79.59V574.11H73.51V572.72H79.59V571.64H74.1V565.73H79.59V564.76H72.2V563.35H79.59V562.23C77.69 562.34 75.75 562.4 73.99 562.44C73.97 562.02 73.76 561.41 73.63 561.05C78 560.94 83.22 560.59 86.28 560.06L87.17 561.45C85.54 561.73 83.5 561.94 81.36 562.1V563.35H88.94V564.76H81.36V565.73H87.15V571.64H81.36V572.72H87.86V574.11H81.36V575.46H89.07ZM75.83 568.13H79.59V566.95H75.83V568.13ZM79.59 570.41V569.25H75.83V570.41H79.59ZM81.36 566.95V568.13H85.35V566.95H81.36ZM85.35 569.25H81.36V570.41H85.35V569.25Z" fill="#0C445F"/>
<path d="M97.91 562.55C97.85 562.87 97.78 563.25 97.68 563.67C98.84 563.5 100.02 563.29 101.12 563.01V564.89C99.92 565.17 98.59 565.38 97.3 565.54C97.11 566.36 96.9 567.23 96.69 568.03C96.01 570.71 94.71 574.62 93.69 576.77L91.62 576.07C92.74 574.13 94.13 570.22 94.85 567.56C95 566.97 95.15 566.34 95.31 565.72C94.76 565.74 94.25 565.76 93.77 565.76C92.9 565.76 92.19 565.74 91.51 565.68L91.47 563.82C92.4 563.93 93.07 563.97 93.79 563.97C94.38 563.97 95.02 563.95 95.69 563.89C95.79 563.32 95.88 562.83 95.92 562.47C96.01 561.88 96.03 561.18 96 560.76L98.28 560.93C98.17 561.41 98 562.18 97.92 562.56L97.91 562.55ZM100.19 573.04C100.19 573.89 100.7 574.67 103.13 574.67C104.38 574.67 105.68 574.52 106.93 574.29L106.87 576.21C105.83 576.34 104.55 576.48 103.11 576.48C100.01 576.48 98.34 575.47 98.34 573.59C98.34 572.79 98.49 571.99 98.66 571.22L100.43 571.39C100.28 571.98 100.18 572.57 100.18 573.04H100.19ZM103.32 566.52C104.42 566.52 105.56 566.56 106.64 566.67L106.58 568.49C105.61 568.36 104.49 568.24 103.35 568.24C102.12 568.24 100.96 568.32 99.76 568.45V566.68C100.79 566.58 102.1 566.51 103.31 566.51L103.32 566.52Z" fill="#0C445F"/>
<path d="M111.8 564.62C111.78 565.82 111.8 567.41 111.93 568.89C112.21 571.87 112.99 573.89 114.27 573.89C115.22 573.89 116.06 571.82 116.49 570.09L117.99 571.86C116.79 575.11 115.62 576.23 114.23 576.23C112.31 576.23 110.54 574.41 110.03 569.41C109.84 567.74 109.82 565.46 109.82 564.32C109.82 563.85 109.78 563.05 109.67 562.53L111.99 562.57C111.89 563.12 111.8 564.11 111.8 564.62ZM125.12 572.67L123.16 573.43C122.84 570.16 121.75 565.95 119.84 563.67L121.72 563.04C123.47 565.24 124.87 569.59 125.12 572.67Z" fill="#0C445F"/>
<path d="M137.47 569.42V575.8C137.47 576.5 137.34 576.94 136.9 577.19C136.44 577.44 135.78 577.46 134.75 577.46C134.69 577.1 134.52 576.43 134.35 576.07C135.03 576.11 135.68 576.11 135.89 576.09C136.1 576.09 136.16 576.01 136.16 575.79V569.6C135.32 569.69 134.49 569.79 133.69 569.88C133.63 572.37 133.29 575.43 132.09 577.52C131.86 577.25 131.31 576.85 130.99 576.7C132.07 574.8 132.34 572.24 132.4 570.03L131.37 570.14L131.26 569.44L130.5 569.76V575.61C130.5 576.41 130.35 576.84 129.87 577.13C129.41 577.36 128.77 577.43 127.7 577.42C127.66 577.02 127.45 576.34 127.26 575.92C127.89 575.94 128.48 575.94 128.68 575.92C128.87 575.92 128.93 575.86 128.93 575.62V570.41C128.38 570.62 127.85 570.83 127.35 571.02L126.87 569.42C127.44 569.23 128.14 568.96 128.92 568.68V565.36H127.12V563.76H128.92V560.04H130.48V563.76H131.66V565.36H130.48V568.1L131.56 567.68L131.77 568.61L132.4 568.55V562.53H133.9C134.11 561.73 134.32 560.73 134.39 560L136.06 560.38C135.79 561.08 135.53 561.86 135.26 562.53H137.45V568.02L138.08 567.96L138.1 569.35L137.45 569.43L137.47 569.42ZM136.16 568.17V563.95H133.71V568.41L136.16 568.16V568.17ZM134.81 564.52C135.23 565.34 135.65 566.38 135.82 567.03L134.91 567.58C134.76 566.9 134.36 565.79 133.94 564.98L134.81 564.52ZM135.28 570.41V574.82H134.39V570.41H135.28ZM143.77 568.76C143.43 570.91 142.78 572.69 141.89 574.14C142.65 575.03 143.58 575.75 144.7 576.21C144.36 576.49 143.9 577.1 143.67 577.48C142.61 576.97 141.71 576.26 140.97 575.39C140.23 576.24 139.39 576.95 138.46 577.46C138.27 577.1 137.87 576.51 137.55 576.23C138.48 575.76 139.34 575.05 140.06 574.12C139.39 573.02 138.88 571.73 138.52 570.3L139.85 569.98C140.12 571.01 140.48 571.94 140.95 572.79C141.41 571.95 141.79 571 142.05 569.98H138.29V568.52H142.58L142.83 568.48L143.76 568.76H143.77ZM139.97 563.46C139.97 564.88 139.8 566.78 138.75 568.06C138.52 567.81 137.97 567.36 137.67 567.21C138.58 566.07 138.68 564.63 138.68 563.45V560.85H142.65V565.77C142.65 566.13 142.63 566.38 142.69 566.43C142.73 566.51 142.77 566.52 142.84 566.52H143.13C143.21 566.52 143.3 566.48 143.34 566.44C143.4 566.36 143.45 566.25 143.47 566.02C143.51 565.74 143.53 565.13 143.53 564.37C143.78 564.6 144.23 564.83 144.57 564.92C144.55 565.68 144.49 566.53 144.4 566.84C144.31 567.14 144.15 567.33 143.93 567.49C143.74 567.6 143.47 567.66 143.21 567.66H142.55C142.23 567.66 141.85 567.57 141.64 567.32C141.41 567.07 141.32 566.79 141.32 565.69V562.23H139.99V563.46H139.97Z" fill="#0C445F"/>
<path d="M156.34 561.12C156.34 564.56 156.78 571.61 164.02 575.88C163.62 576.18 162.9 576.94 162.6 577.38C158.29 574.78 156.25 570.9 155.32 567.41C153.91 571.99 151.54 575.31 148.03 577.42C147.69 577.06 146.87 576.32 146.4 576C150.48 573.89 152.78 570.15 153.88 565L154.85 565.17C154.72 564.37 154.64 563.59 154.6 562.91H150.08V561.12H156.35H156.34Z" fill="#0C445F"/>
<path d="M167.8 567.92C166.41 567.92 165.22 568.89 164.46 570.33L162.79 569.42C164.02 567.18 165.81 566.02 167.82 566.02C169.59 566.02 170.88 566.72 172.21 568.07C173.14 569 173.9 569.55 175.25 569.55C176.6 569.55 177.83 568.58 178.59 567.14L180.26 568.05C179.03 570.29 177.24 571.45 175.23 571.45C173.46 571.45 172.17 570.75 170.84 569.4C169.91 568.47 169.15 567.92 167.8 567.92Z" fill="#0C445F"/>
<path d="M188.88 564.56H181.62V563.15H188.88V564.56ZM188.2 576.41H184V577.21H182.48V570.83H188.2V576.42V576.41ZM188.22 566.82C189.95 565.66 190.21 564.16 190.21 562.85V560.59H196.31V565.05C196.31 565.49 196.35 565.56 196.61 565.56H197.35C197.63 565.56 197.71 565.31 197.75 563.57C198.09 563.85 198.76 564.12 199.19 564.22C199.08 566.48 198.64 567.07 197.54 567.07H196.32C195.01 567.07 194.61 566.63 194.61 565.08V562.17H191.87V562.87C191.87 564.58 191.47 566.65 189.48 567.98C189.23 567.68 188.59 567.09 188.21 566.86V567.11H182.51V565.74H188.21V566.82H188.22ZM182.52 568.26H188.22V569.65H182.52V568.26ZM188.16 562.03H182.59V560.64H188.16V562.03ZM184 572.25V574.99H186.66V572.25H184ZM198.15 568.51C197.52 570.83 196.46 572.65 195.07 574.06C196.27 574.9 197.65 575.52 199.23 575.92C198.85 576.26 198.34 576.98 198.09 577.44C196.44 576.95 194.97 576.21 193.74 575.22C192.39 576.23 190.85 576.95 189.16 577.44C188.99 577 188.55 576.26 188.21 575.88C189.75 575.5 191.17 574.87 192.43 574.02C191.42 572.94 190.59 571.68 189.96 570.26L191.54 569.77C192.05 570.95 192.79 572.03 193.73 572.94C194.66 572.05 195.4 570.98 195.91 569.75H189.11V568.14H196.69L197.01 568.08L198.15 568.52V568.51Z" fill="#0C445F"/>
<path d="M208.23 567.89C208.29 567.59 208.34 567.28 208.38 566.94H201.18V565.59H208.57C208.61 565.29 208.65 564.98 208.67 564.68H202.04V560.79H216.8V564.68H210.47C210.41 564.98 210.37 565.29 210.34 565.59H217.54V566.94H210.11C210.05 567.28 210 567.6 209.94 567.89H216.08V574.44H205.61V567.89H208.23ZM217.99 576.74H203.97V577.46H202.18V568.13H203.97V575.35H217.99V576.74ZM206.33 562.02H203.73V563.44H206.33V562.02ZM214.37 568.88H207.25V569.75H214.37V568.88ZM214.37 570.7H207.25V571.59H214.37V570.7ZM214.37 572.54H207.25V573.45H214.37V572.54ZM207.97 563.44H210.67V562.02H207.97V563.44ZM212.28 563.44H215.02V562.02H212.28V563.44Z" fill="#0C445F"/>
<path d="M226.32 562.39C226.26 562.81 226.19 563.4 226.09 564.12C227.5 564.12 228.77 564.03 229.78 563.87L229.72 565.66C228.54 565.77 227.46 565.85 225.9 565.85H225.86C225.73 566.84 225.59 567.92 225.48 568.91H225.75C226.98 568.91 228.35 568.85 229.64 568.68L229.58 570.47C228.42 570.58 227.26 570.66 226.03 570.66H225.31C225.25 571.33 225.21 571.91 225.21 572.31C225.21 574.04 226.22 575.05 228.25 575.05C231.02 575.05 232.7 573.82 232.7 572.03C232.7 570.74 232.02 569.41 230.69 568.23L232.8 567.79C234.07 569.29 234.7 570.62 234.7 572.25C234.7 575.1 232.15 576.96 228.22 576.96C225.47 576.96 223.36 575.76 223.36 572.61C223.36 572.12 223.42 571.39 223.49 570.54C222.1 570.43 220.77 570.2 219.69 569.89L219.78 568.07C221.01 568.51 222.38 568.72 223.67 568.83C223.8 567.82 223.94 566.76 224.07 565.75C222.7 565.64 221.28 565.39 220.12 565.08L220.22 563.33C221.38 563.71 222.86 563.94 224.27 564.05C224.37 563.37 224.42 562.76 224.46 562.26C224.52 561.5 224.52 561.14 224.48 560.76L226.61 560.87C226.48 561.46 226.4 561.91 226.33 562.37L226.32 562.39Z" fill="#0C445F"/>
<path d="M245.94 575.37H253.14V576.97H237.11V575.37H244.08V572.62H238.65V571.08H244.08V568.46H239.54V567.05C238.84 567.56 238.1 568.04 237.36 568.46C237.13 568.04 236.64 567.42 236.24 567.04C239.49 565.31 242.58 562.37 244.01 559.97H245.81C247.81 562.8 251 565.42 253.94 566.83C253.52 567.27 253.1 567.87 252.78 568.39C252.1 568.01 251.39 567.55 250.69 567.06V568.47H245.94V571.09H251.47V572.63H245.94V575.38V575.37ZM250.46 566.9C248.29 565.34 246.21 563.42 244.99 561.71C243.85 563.38 241.93 565.3 239.75 566.9H250.46Z" fill="#0C445F"/>
<path d="M257.11 563.04C258.5 562.91 261.88 562.58 265.37 562.3C267.4 562.13 269.3 562.02 270.61 561.96V563.88C269.57 563.88 267.91 563.9 266.92 564.16C264.39 564.92 262.7 567.62 262.7 569.88C262.7 573.34 265.93 574.5 269.08 574.63L268.38 576.64C264.66 576.47 260.76 574.47 260.76 570.28C260.76 567.43 262.45 565.11 263.99 564.11C262.07 564.32 257.64 564.77 255.54 565.23L255.33 563.14C256.07 563.12 256.74 563.08 257.1 563.05L257.11 563.04Z" fill="#0C445F"/>
<path d="M279.53 562.13C279.51 562.59 279.49 563.19 279.45 563.88C280.78 563.73 282.15 563.46 283.19 563.16L283.23 565.02C282.13 565.27 280.72 565.49 279.41 565.65C279.39 566.41 279.37 567.17 279.37 567.85V568.52C280.76 568.12 282.16 567.91 283.32 567.91C286.15 567.91 288.28 569.43 288.28 571.86C288.28 574.12 286.97 575.7 284.18 576.36C283.33 576.55 282.47 576.61 281.77 576.64L281.09 574.7C281.85 574.72 282.67 574.72 283.37 574.57C284.97 574.27 286.35 573.43 286.35 571.83C286.35 570.37 285.04 569.55 283.31 569.55C281.98 569.55 280.67 569.78 279.42 570.18C279.44 571.76 279.5 573.35 279.5 574.11C279.5 576.12 278.76 576.71 277.64 576.71C275.99 576.71 273.46 575.19 273.46 573.37C273.46 571.76 275.42 570.06 277.66 569.1V567.92C277.66 567.26 277.66 566.53 277.68 565.81C277.21 565.85 276.79 565.87 276.43 565.87C275.27 565.87 274.55 565.83 273.92 565.77L273.86 563.95C274.94 564.08 275.68 564.1 276.39 564.1C276.79 564.1 277.23 564.08 277.7 564.04C277.7 563.19 277.72 562.5 277.72 562.16C277.72 561.76 277.66 561 277.61 560.66H279.7C279.64 561.02 279.59 561.67 279.55 562.12L279.53 562.13ZM277.1 574.69C277.48 574.69 277.75 574.44 277.75 573.82C277.75 573.2 277.71 572.11 277.69 570.88C276.3 571.56 275.32 572.53 275.32 573.29C275.32 574.05 276.46 574.7 277.11 574.7L277.1 574.69ZM289.85 565.5L288.92 567.02C288.01 566.18 285.73 564.84 284.53 564.21L285.37 562.77C286.78 563.47 288.9 564.76 289.85 565.51V565.5Z" fill="#0C445F"/>
<path d="M297.64 560.61C297.11 561.94 296.44 563.29 295.7 564.56V577.44H293.95V567.16C293.32 567.98 292.66 568.74 292.01 569.36C291.84 568.94 291.29 567.99 290.95 567.56C292.93 565.76 294.79 562.92 295.91 560.08L297.64 560.61ZM303.6 569.69V575.07H308.41V576.76H297.16V575.07H301.81V569.69H296.43V567.98H301.81V563.34C300.37 563.59 298.9 563.78 297.54 563.93C297.46 563.51 297.22 562.85 297.01 562.43C300.47 561.99 304.4 561.25 306.74 560.4L308.03 561.9C306.78 562.32 305.22 562.7 303.6 563.02V567.98H308.67V569.69H303.6Z" fill="#0C445F"/>
<path d="M323.83 562.7C323.81 563.52 323.81 564.33 323.79 565.09C324.44 565.03 325.06 565 325.59 564.96C326.08 564.94 326.73 564.88 327.22 564.85V566.71C326.9 566.69 326.06 566.71 325.57 566.73C325.08 566.73 324.45 566.77 323.75 566.81C323.71 568.25 323.64 569.87 323.47 570.72C323.28 571.63 322.84 571.88 321.93 571.88C321.25 571.88 319.84 571.69 319.27 571.6L319.31 569.95C319.94 570.08 320.73 570.2 321.13 570.2C321.57 570.2 321.76 570.12 321.8 569.71C321.9 569.14 321.95 568.04 321.99 566.96C320.15 567.11 318.08 567.3 316.31 567.49C316.29 569.35 316.27 571.23 316.31 572.01C316.37 573.97 316.44 574.57 319.54 574.57C321.52 574.57 323.89 574.34 325.2 574.1L325.14 576.13C323.87 576.28 321.53 576.45 319.65 576.45C315.03 576.45 314.54 575.42 314.46 572.29C314.44 571.47 314.44 569.52 314.44 567.69C313.74 567.77 313.15 567.82 312.73 567.88C312.14 567.96 311.15 568.09 310.66 568.16L310.45 566.22C311.02 566.22 311.8 566.18 312.6 566.11C313.02 566.07 313.64 566.02 314.44 565.94V563.62C314.44 562.95 314.4 562.4 314.31 561.8H316.42C316.36 562.31 316.32 562.84 316.32 563.53C316.32 564.06 316.32 564.86 316.3 565.77C318.05 565.6 320.12 565.41 322.02 565.24V562.77C322.02 562.33 321.94 561.55 321.89 561.21H323.92C323.86 561.51 323.82 562.25 323.82 562.71L323.83 562.7Z" fill="#0C445F"/>
<path d="M332.84 574.65C332.84 573.8 333.47 573.21 334.26 573.21C335.05 573.21 335.68 573.8 335.68 574.65C335.68 575.5 335.05 576.09 334.26 576.09C333.47 576.09 332.84 575.5 332.84 574.65ZM333.05 564.26L332.99 561.75H335.54L335.48 564.26L335.04 571.25H333.48L333.04 564.26H333.05Z" fill="#0C445F"/>
<path d="M406.54 549.83H8.29006C7.99006 549.83 7.75006 549.59 7.75006 549.29C7.75006 548.99 7.99006 548.75 8.29006 548.75H406.54C406.84 548.75 407.08 548.99 407.08 549.29C407.08 549.59 406.84 549.83 406.54 549.83Z" fill="#0C445F"/>
<path d="M406.54 588.38H8.29006C7.99006 588.38 7.75006 588.14 7.75006 587.84C7.75006 587.54 7.99006 587.3 8.29006 587.3H406.54C406.84 587.3 407.08 587.54 407.08 587.84C407.08 588.14 406.84 588.38 406.54 588.38Z" fill="#0C445F"/>
<path d="M2.49001 582.59C2.19001 582.59 1.95001 582.35 1.95001 582.05V555.08C1.95001 554.78 2.19001 554.54 2.49001 554.54C2.79001 554.54 3.03001 554.78 3.03001 555.08V582.05C3.03001 582.35 2.79001 582.59 2.49001 582.59Z" fill="#0C445F"/>
<path d="M6.98004 554.31C6.84004 554.31 6.70004 554.26 6.59004 554.15L2.01004 549.57C1.80004 549.36 1.80004 549.01 2.01004 548.8C2.22004 548.59 2.57004 548.59 2.78004 548.8L7.36004 553.38C7.57004 553.59 7.57004 553.94 7.36004 554.15C7.25004 554.26 7.11004 554.31 6.97004 554.31H6.98004Z" fill="#0C445F"/>
<path d="M2.40004 588.48C2.26004 588.48 2.12004 588.43 2.01004 588.32C1.80004 588.11 1.80004 587.76 2.01004 587.55L6.59004 582.97C6.80004 582.76 7.15004 582.76 7.36004 582.97C7.57004 583.18 7.57004 583.53 7.36004 583.74L2.78004 588.32C2.67004 588.43 2.53004 588.48 2.39004 588.48H2.40004Z" fill="#0C445F"/>
<path d="M412.33 582.59C412.03 582.59 411.79 582.35 411.79 582.05V555.08C411.79 554.78 412.03 554.54 412.33 554.54C412.63 554.54 412.87 554.78 412.87 555.08V582.05C412.87 582.35 412.63 582.59 412.33 582.59Z" fill="#0C445F"/>
<path d="M412.43 588.48C412.29 588.48 412.15 588.43 412.04 588.32L407.46 583.74C407.25 583.53 407.25 583.18 407.46 582.97C407.67 582.76 408.02 582.76 408.23 582.97L412.81 587.55C413.02 587.76 413.02 588.11 412.81 588.32C412.7 588.43 412.56 588.48 412.42 588.48H412.43Z" fill="#0C445F"/>
<path d="M407.85 554.31C407.71 554.31 407.57 554.26 407.46 554.15C407.25 553.94 407.25 553.59 407.46 553.38L412.04 548.8C412.25 548.59 412.6 548.59 412.81 548.8C413.02 549.01 413.02 549.36 412.81 549.57L408.23 554.15C408.12 554.26 407.98 554.31 407.84 554.31H407.85Z" fill="#0C445F"/>
</g>
<defs>
<clipPath id="clip0_760_2820">
<rect width="414" height="590" fill="white"/>
</clipPath>
</defs>
</svg>
