<svg width="182" height="50" viewBox="0 0 182 50" fill="none" xmlns="http://www.w3.org/2000/svg">
<path d="M157.367 49.94H132.68V25.48L132.81 25.35L157.187 1H157.377C170.877 1 181.864 11.98 181.864 25.47C181.864 38.96 170.877 49.94 157.377 49.94H157.367Z" fill="white"/>
<path fill-rule="evenodd" clip-rule="evenodd" d="M4.02085 15.6602H0.0380859V49.0502H23.8146V45.4402H4.02085V15.6602ZM39.8659 16.5703H36.0933V49.0503H39.8659V16.5703ZM55.2063 16.5703C57.3478 21.2503 66.8444 42.0303 68.0753 45.2203H68.1453C68.8558 43.1403 71.0073 38.1403 80.694 16.5703H84.6568L69.9666 49.0503H65.9338L51.0435 16.5703H55.2063ZM108.903 46.5202C101.298 46.5202 96.3548 41.1302 95.9645 33.5902V33.5802H124.374V32.4802C124.374 24.8802 120.411 15.6602 108.253 15.6602C98.8965 15.6602 92.1318 22.7402 92.1318 32.9402C92.1318 41.6502 97.7157 49.9602 108.443 49.9602C117.74 49.9602 122.163 44.5002 123.854 40.1502H120.021C117.94 43.9902 114.627 46.5202 108.903 46.5202ZM108.183 19.0402C117.479 19.0402 119.891 25.7302 120.211 30.3402H96.0946C96.8051 23.8502 100.768 19.0402 108.183 19.0402Z" fill="#0C445F"/>
<path d="M173.158 17.45C173.158 15.52 171.327 14 171.247 13.94L171.037 13.77L170.827 13.94C170.746 14 168.915 15.52 168.915 17.45C168.915 19.12 170.276 20.47 170.696 20.85V24.43C170.696 26 169.426 27.27 167.854 27.27H161.57C159.869 27.27 158.388 28.18 157.557 29.53C157.567 25.63 157.587 21.39 157.617 17.8C158.138 17.33 159.789 15.68 159.789 13.67C159.789 11.32 157.557 9.47998 157.457 9.39998L157.247 9.22998L157.037 9.39998C156.937 9.47998 154.705 11.32 154.705 13.67C154.705 15.79 156.517 17.49 156.947 17.86C156.947 19.31 156.907 24.37 156.887 29.39C156.887 30.29 156.887 31.12 156.887 31.89C156.887 31.92 156.887 31.94 156.887 31.97C156.887 34.41 156.887 36.22 156.887 37.58C156.066 36.22 154.575 35.3 152.864 35.3H145.949C144.378 35.3 143.107 34.03 143.107 32.46V27.69C143.598 27.26 145.309 25.58 145.309 23.53C145.309 21.18 143.077 19.34 142.977 19.26L142.767 19.09L142.557 19.26C142.457 19.34 140.225 21.18 140.225 23.53C140.225 25.59 141.947 27.26 142.427 27.69V32.46C142.427 34.4 144.008 35.98 145.949 35.98H152.864C155.086 35.98 156.887 37.78 156.887 40H156.907C156.937 41.57 156.987 41.62 157.057 41.69L157.297 41.79V41.11C157.487 41.11 157.607 41.26 157.627 41.37C157.577 41.03 157.557 36.98 157.577 31.88C157.627 29.7 159.409 27.95 161.59 27.95H167.875C169.816 27.95 171.397 26.37 171.397 24.43V20.85C171.817 20.47 173.178 19.11 173.178 17.45H173.158ZM155.376 13.67C155.376 12.04 156.707 10.62 157.237 10.12C157.767 10.62 159.098 12.04 159.098 13.67C159.098 15.3 157.767 16.72 157.237 17.22C156.707 16.72 155.376 15.29 155.376 13.67ZM140.886 23.53C140.886 21.9 142.217 20.48 142.747 19.98C143.277 20.48 144.608 21.9 144.608 23.53C144.608 25.16 143.277 26.58 142.747 27.08C142.217 26.58 140.886 25.16 140.886 23.53ZM169.586 17.45C169.586 16.2 170.586 15.09 171.037 14.66C171.487 15.09 172.488 16.2 172.488 17.45C172.488 18.7 171.487 19.81 171.037 20.24C170.586 19.81 169.586 18.7 169.586 17.45Z" fill="#81CD1F"/>
<path d="M155.106 21.9899C155.346 21.9899 155.506 21.9799 155.526 21.9699L155.796 21.9399L155.826 21.6699C155.826 21.5799 156.036 19.4899 154.825 18.2799C153.615 17.0699 151.523 17.2699 151.433 17.2799L151.163 17.3099L151.133 17.5799C151.133 17.6699 150.923 19.7599 152.134 20.9699C153.034 21.8699 154.415 21.9899 155.106 21.9899ZM154.345 18.7599C155.096 19.5099 155.176 20.7499 155.166 21.3099C154.605 21.3099 153.364 21.2299 152.614 20.4899C151.863 19.7399 151.783 18.4999 151.793 17.9399C152.354 17.9399 153.595 18.0199 154.345 18.7599Z" fill="#81CD1F"/>
<path d="M155.106 27.8C155.346 27.8 155.506 27.79 155.526 27.78L155.796 27.75L155.826 27.48C155.826 27.39 156.036 25.3 154.825 24.09C153.615 22.88 151.523 23.08 151.433 23.09L151.163 23.12L151.133 23.39C151.133 23.48 150.923 25.57 152.134 26.78C153.034 27.68 154.415 27.8 155.106 27.8ZM154.345 24.57C155.096 25.32 155.176 26.56 155.166 27.12C154.615 27.13 153.364 27.04 152.614 26.3C151.863 25.55 151.783 24.31 151.793 23.75C152.354 23.75 153.595 23.82 154.345 24.57Z" fill="#81CD1F"/>
<path d="M168.845 24.19C169.085 24.19 169.245 24.18 169.265 24.17L169.536 24.14L169.566 23.87C169.566 23.78 169.776 21.69 168.565 20.48C167.354 19.27 165.263 19.47 165.173 19.48L164.902 19.51L164.872 19.78C164.872 19.87 164.662 21.96 165.873 23.17C166.774 24.07 168.155 24.19 168.845 24.19ZM168.085 20.96C168.835 21.71 168.915 22.95 168.905 23.51C168.345 23.51 167.104 23.44 166.353 22.69C165.603 21.94 165.523 20.7 165.533 20.14C166.093 20.14 167.334 20.22 168.085 20.96Z" fill="#81CD1F"/>
<path d="M158.678 20.09L158.708 20.36L158.978 20.39C158.978 20.39 159.158 20.41 159.399 20.41C160.089 20.41 161.47 20.29 162.371 19.39C163.582 18.18 163.381 16.09 163.371 16L163.341 15.73L163.071 15.7C162.981 15.7 160.89 15.49 159.679 16.7C158.468 17.91 158.668 20 158.678 20.09ZM162.711 16.36C162.711 16.92 162.631 18.16 161.89 18.91C161.14 19.66 159.899 19.73 159.339 19.73C159.339 19.17 159.419 17.93 160.159 17.18C160.91 16.43 162.141 16.35 162.711 16.36Z" fill="#81CD1F"/>
<path d="M163.081 21.51C162.991 21.51 160.9 21.3 159.689 22.51C158.478 23.72 158.678 25.81 158.688 25.9L158.718 26.17L158.988 26.2C158.988 26.2 159.168 26.22 159.409 26.22C160.099 26.22 161.48 26.1 162.381 25.2C163.591 23.99 163.391 21.9 163.381 21.81L163.351 21.54L163.081 21.51ZM161.9 24.72C161.15 25.47 159.909 25.55 159.349 25.54C159.349 24.98 159.419 23.74 160.169 22.99C160.92 22.24 162.171 22.17 162.721 22.17C162.721 22.73 162.641 23.97 161.9 24.72Z" fill="#81CD1F"/>
<path d="M144.248 31.98L144.278 32.25L144.548 32.28C144.548 32.28 144.728 32.3 144.969 32.3C145.659 32.3 147.04 32.18 147.941 31.28C149.151 30.07 148.951 27.98 148.941 27.89L148.911 27.62L148.641 27.59C148.551 27.59 146.46 27.38 145.249 28.59C144.038 29.8 144.238 31.89 144.248 31.98ZM148.281 28.25C148.281 28.81 148.201 30.05 147.46 30.8C146.71 31.55 145.469 31.63 144.909 31.62C144.909 31.06 144.989 29.82 145.729 29.07C146.48 28.32 147.71 28.24 148.281 28.25Z" fill="#81CD1F"/>
<path d="M176.961 21.81L176.931 21.54L176.661 21.51C176.571 21.51 174.479 21.3 173.268 22.51C172.057 23.72 172.258 25.81 172.268 25.9L172.298 26.17L172.568 26.2C172.568 26.2 172.748 26.22 172.988 26.22C173.679 26.22 175.059 26.1 175.96 25.2C177.171 23.99 176.971 21.9 176.961 21.81ZM175.48 24.72C174.729 25.47 173.488 25.55 172.928 25.54C172.928 24.98 172.998 23.74 173.749 22.99C174.499 22.24 175.74 22.17 176.3 22.17C176.3 22.73 176.22 23.97 175.48 24.72Z" fill="#81CD1F"/>
<path d="M155.106 33.6099C155.346 33.6099 155.506 33.5999 155.526 33.5899L155.796 33.5599L155.826 33.2899C155.826 33.1999 156.036 31.1099 154.825 29.8999C153.615 28.6899 151.523 28.8899 151.433 28.8999L151.163 28.9299L151.133 29.1999C151.133 29.2899 150.923 31.3799 152.134 32.5899C153.034 33.4899 154.415 33.6099 155.106 33.6099ZM154.345 30.3799C155.096 31.1299 155.176 32.3699 155.166 32.9299C154.615 32.9299 153.364 32.8499 152.614 32.1099C151.863 31.3599 151.783 30.1199 151.793 29.5599C152.354 29.5499 153.595 29.6399 154.345 30.3799Z" fill="#81CD1F"/>
<path d="M161.44 28.47L161.17 28.5L161.14 28.77C161.14 28.83 161.01 30.16 161.79 30.94C162.371 31.52 163.261 31.6 163.702 31.6C163.852 31.6 163.952 31.6 163.962 31.59L164.232 31.56L164.262 31.29C164.262 31.23 164.392 29.9 163.612 29.12C162.831 28.34 161.5 28.47 161.44 28.47ZM162.271 30.46C161.9 30.09 161.82 29.5 161.81 29.14C162.171 29.15 162.771 29.23 163.131 29.6C163.501 29.97 163.582 30.57 163.592 30.92C163.231 30.91 162.641 30.83 162.271 30.46Z" fill="#81CD1F"/>
<path d="M165.163 28.47L164.892 28.5L164.862 28.77C164.862 28.83 164.732 30.16 165.513 30.94C166.093 31.52 166.984 31.6 167.424 31.6C167.574 31.6 167.674 31.6 167.684 31.59L167.955 31.56L167.985 31.29C167.985 31.23 168.115 29.9 167.334 29.12C166.554 28.34 165.223 28.47 165.163 28.47ZM165.993 30.46C165.623 30.09 165.543 29.5 165.533 29.14C165.893 29.15 166.494 29.23 166.854 29.6C167.224 29.97 167.304 30.57 167.314 30.92C166.954 30.91 166.363 30.83 165.993 30.46Z" fill="#81CD1F"/>
<path d="M137.543 26.22L137.273 26.25L137.243 26.52C137.243 26.59 137.083 28.21 138.024 29.16C138.724 29.86 139.805 29.96 140.335 29.96C140.526 29.96 140.646 29.95 140.656 29.95L140.926 29.92L140.956 29.65C140.956 29.58 141.116 27.96 140.175 27.01C139.225 26.06 137.603 26.22 137.533 26.23L137.543 26.22ZM138.504 28.68C137.994 28.17 137.914 27.33 137.904 26.89C138.344 26.89 139.185 26.98 139.695 27.49C140.205 28 140.285 28.84 140.295 29.28C139.855 29.28 139.014 29.19 138.504 28.68Z" fill="#81CD1F"/>
<path d="M137.543 30.63L137.273 30.66L137.243 30.93C137.243 31 137.083 32.62 138.024 33.57C138.724 34.27 139.805 34.37 140.335 34.37C140.526 34.37 140.646 34.36 140.656 34.36L140.926 34.33L140.956 34.06C140.956 33.99 141.116 32.37 140.175 31.42C139.235 30.47 137.603 30.63 137.533 30.64L137.543 30.63ZM138.504 33.09C137.994 32.58 137.914 31.74 137.904 31.29C138.344 31.29 139.185 31.38 139.695 31.89C140.205 32.4 140.285 33.24 140.295 33.68C139.855 33.68 139.014 33.59 138.504 33.08V33.09Z" fill="#81CD1F"/>
<mask id="mask0_718_1693" style="mask-type:luminance" maskUnits="userSpaceOnUse" x="133" y="1" width="49" height="49">
<path d="M157.367 1.4502L133.141 25.6602V49.4902H157.367C170.647 49.4902 181.404 38.7402 181.404 25.4702C181.404 12.2002 170.647 1.4502 157.367 1.4502Z" fill="white"/>
</mask>
<g mask="url(#mask0_718_1693)">
<path d="M159.649 45.0203H129.738V45.9203H159.649V45.0203Z" fill="#A08877"/>
<path d="M160.93 41.0002H131.019V41.9002H160.93V41.0002Z" fill="#A08877"/>
<path d="M183.656 66.0802C176.271 66.0802 170.256 60.0702 170.256 52.6902C170.256 45.3102 176.271 39.3002 183.656 39.3002C191.041 39.3002 197.055 45.3102 197.055 52.6902C197.055 60.0702 191.041 66.0802 183.656 66.0802ZM183.656 40.2002C176.761 40.2002 171.157 45.8002 171.157 52.6902C171.157 59.5802 176.761 65.1802 183.656 65.1802C190.55 65.1802 196.154 59.5802 196.154 52.6902C196.154 45.8002 190.55 40.2002 183.656 40.2002Z" fill="#79C0E0"/>
<path d="M183.656 69.9702C174.129 69.9702 166.374 62.2202 166.374 52.7002C166.374 43.1802 174.129 35.4302 183.656 35.4302C193.182 35.4302 200.938 43.1802 200.938 52.7002C200.938 62.2202 193.182 69.9702 183.656 69.9702ZM183.656 36.3302C174.619 36.3302 167.274 43.6702 167.274 52.7002C167.274 61.7302 174.619 69.0702 183.656 69.0702C192.692 69.0702 200.037 61.7302 200.037 52.7002C200.037 43.6702 192.692 36.3302 183.656 36.3302Z" fill="#79C0E0"/>
<path d="M183.656 74.0003C171.898 74.0003 162.331 64.4402 162.331 52.6902C162.331 40.9402 171.898 31.3802 183.656 31.3802C195.414 31.3802 204.98 40.9402 204.98 52.6902C204.98 64.4402 195.414 74.0003 183.656 74.0003ZM183.656 32.2803C172.398 32.2803 163.232 41.4302 163.232 52.6902C163.232 63.9502 172.388 73.1003 183.656 73.1003C194.923 73.1003 204.08 63.9502 204.08 52.6902C204.08 41.4302 194.923 32.2803 183.656 32.2803Z" fill="#79C0E0"/>
<path d="M183.656 78.1802C169.596 78.1802 158.158 66.7502 158.158 52.7002C158.158 38.6502 169.596 27.2202 183.656 27.2202C197.715 27.2202 209.153 38.6502 209.153 52.7002C209.153 66.7502 197.715 78.1802 183.656 78.1802ZM183.656 28.1202C170.096 28.1202 159.059 39.1502 159.059 52.7002C159.059 66.2502 170.096 77.2802 183.656 77.2802C197.215 77.2802 208.253 66.2502 208.253 52.7002C208.253 39.1502 197.215 28.1202 183.656 28.1202Z" fill="#79C0E0"/>
</g>
<path d="M157.367 49.94H132.68V25.48L132.81 25.35L157.187 1H157.377C170.877 1 181.864 11.98 181.864 25.47C181.864 38.96 170.877 49.94 157.377 49.94H157.367ZM133.591 49.04H157.367C170.376 49.04 180.954 38.47 180.954 25.47C180.954 12.47 170.476 2 157.557 1.9L133.591 25.85V49.04Z" fill="#0C445F"/>
</svg>
